<?xml version="1.0" encoding="UTF-8"?>
<!DOCTYPE svg PUBLIC "-//W3C//DTD SVG 1.1//EN" "http://www.w3.org/Graphics/SVG/1.1/DTD/svg11.dtd">
<svg xmlns="http://www.w3.org/2000/svg" version="1.1" width="168px" height="160px" style="shape-rendering:geometricPrecision; text-rendering:geometricPrecision; image-rendering:optimizeQuality; fill-rule:evenodd; clip-rule:evenodd" xmlns:xlink="http://www.w3.org/1999/xlink">
<g><path style="opacity:0.539" fill="#ba93e2" d="M 113.5,19.5 C 113.519,17.9397 113.852,16.4397 114.5,15C 114.18,13.3468 113.18,12.3468 111.5,12C 93.8333,11.3333 76.1667,11.3333 58.5,12C 57.9558,12.7172 57.2891,13.2172 56.5,13.5C 56.4142,12.5041 56.7476,11.6708 57.5,11C 76.1667,10.3333 94.8333,10.3333 113.5,11C 116.145,13.9495 116.145,16.7829 113.5,19.5 Z"/></g>
<g><path style="opacity:1" fill="#102862" d="M 113.5,19.5 C 94.8333,20.8333 76.1667,20.8333 57.5,19.5C 55.5389,17.68 55.2056,15.68 56.5,13.5C 57.2891,13.2172 57.9558,12.7172 58.5,12C 76.1667,11.3333 93.8333,11.3333 111.5,12C 113.18,12.3468 114.18,13.3468 114.5,15C 113.852,16.4397 113.519,17.9397 113.5,19.5 Z"/></g>
<g><path style="opacity:0.255" fill="#d4bcef" d="M 57.5,19.5 C 76.1667,20.8333 94.8333,20.8333 113.5,19.5C 113.389,20.1174 113.056,20.6174 112.5,21C 94.5,21.6667 76.5,21.6667 58.5,21C 57.944,20.6174 57.6107,20.1174 57.5,19.5 Z"/></g>
<g><path style="opacity:0.263" fill="#cfb0eb" d="M 81.5,29.5 C 77.5526,27.9422 73.3859,27.2756 69,27.5C 65.8333,27.6667 62.6667,27.8333 59.5,28C 58.6266,29.045 57.6266,29.8783 56.5,30.5C 56.5106,28.9826 57.1772,27.8159 58.5,27C 65.8333,26.3333 73.1667,26.3333 80.5,27C 81.2524,27.6708 81.5858,28.5041 81.5,29.5 Z"/></g>
<g><path style="opacity:0.298" fill="#d7beee" d="M 97.5,28.5 C 94.114,26.6795 91.4473,27.3461 89.5,30.5C 89.1667,30.5 88.8333,30.5 88.5,30.5C 89.8276,26.746 92.4942,25.5793 96.5,27C 97.056,27.3826 97.3893,27.8826 97.5,28.5 Z"/></g>
<g><path style="opacity:0.28" fill="#d5bbed" d="M 107.5,27.5 C 108.946,26.3871 110.613,26.2204 112.5,27C 113.756,27.4169 114.423,28.2502 114.5,29.5C 112.442,28.0669 110.108,27.4003 107.5,27.5 Z"/></g>
<g><path style="opacity:1" fill="#1d2e68" d="M 81.5,29.5 C 81.3335,39.5056 81.5002,49.5056 82,59.5C 84.3333,60.8333 86.6667,60.8333 89,59.5C 89.4998,49.8391 89.6665,40.1724 89.5,30.5C 91.4473,27.3461 94.114,26.6795 97.5,28.5C 98.1214,38.9627 98.788,49.296 99.5,59.5C 100.833,59.5 102.167,59.5 103.5,59.5C 105.474,49.8893 106.141,39.8893 105.5,29.5C 105.5,28.1667 106.167,27.5 107.5,27.5C 110.108,27.4003 112.442,28.0669 114.5,29.5C 114.777,42.5368 114.443,55.5368 113.5,68.5C 112.737,69.2679 111.737,69.7679 110.5,70C 93.3283,70.8284 76.3283,70.6617 59.5,69.5C 59.0269,68.0937 58.0269,67.427 56.5,67.5C 55.1901,60.4012 55.1901,53.4012 56.5,46.5C 57.8333,45.8333 58.8333,44.8333 59.5,43.5C 63.8333,43.5 68.1667,43.5 72.5,43.5C 72.5,41.5 72.5,39.5 72.5,37.5C 68.0181,36.6745 63.3514,36.1745 58.5,36C 57.9558,35.2828 57.2891,34.7828 56.5,34.5C 55.1667,33.1667 55.1667,31.8333 56.5,30.5C 57.6266,29.8783 58.6266,29.045 59.5,28C 62.6667,27.8333 65.8333,27.6667 69,27.5C 73.3859,27.2756 77.5526,27.9422 81.5,29.5 Z M 71.5,53.5 C 71.5,55.5 71.5,57.5 71.5,59.5C 69.8333,59.5 68.1667,59.5 66.5,59.5C 66.5,57.5 66.5,55.5 66.5,53.5C 68.1667,53.5 69.8333,53.5 71.5,53.5 Z"/></g>
<g><path style="opacity:0.271" fill="#d7bdee" d="M 97.5,28.5 C 98.1174,28.6107 98.6174,28.944 99,29.5C 99.4998,39.4944 99.6665,49.4944 99.5,59.5C 98.788,49.296 98.1214,38.9627 97.5,28.5 Z"/></g>
<g><path style="opacity:0.479" fill="#bf99e4" d="M 114.5,29.5 C 115.66,41.9933 115.827,54.6599 115,67.5C 114.617,68.056 114.117,68.3893 113.5,68.5C 114.443,55.5368 114.777,42.5368 114.5,29.5 Z"/></g>
<g><path style="opacity:0.511" fill="#bd98e4" d="M 56.5,34.5 C 57.2891,34.7828 57.9558,35.2828 58.5,36C 63.3514,36.1745 68.0181,36.6745 72.5,37.5C 72.1667,37.5 71.8333,37.5 71.5,37.5C 66.8215,37.6658 62.1548,37.4992 57.5,37C 56.7476,36.3292 56.4142,35.4959 56.5,34.5 Z"/></g>
<g><path style="opacity:0.013" fill="#ebd9f6" d="M 105.5,29.5 C 106.141,39.8893 105.474,49.8893 103.5,59.5C 103.334,50.1607 103.5,40.8274 104,31.5C 104.278,30.5842 104.778,29.9175 105.5,29.5 Z"/></g>
<g><path style="opacity:0.013" fill="#f7f3fc" d="M 71.5,37.5 C 71.8333,37.5 72.1667,37.5 72.5,37.5C 72.5,39.5 72.5,41.5 72.5,43.5C 68.1667,43.5 63.8333,43.5 59.5,43.5C 63.2984,42.5166 67.2984,42.1832 71.5,42.5C 71.5,40.8333 71.5,39.1667 71.5,37.5 Z"/></g>
<g><path style="opacity:0.725" fill="#b88de0" d="M 59.5,43.5 C 58.8333,44.8333 57.8333,45.8333 56.5,46.5C 56.5,44.5 57.5,43.5 59.5,43.5 Z"/></g>
<g><path style="opacity:1" fill="#0e2761" d="M 36.5,62.5 C 36.3335,71.8393 36.5002,81.1726 37,90.5C 37.2355,92.1193 38.0689,93.1193 39.5,93.5C 40.3382,93.8417 40.6716,94.5084 40.5,95.5C 43.2281,99.7372 46.5615,103.571 50.5,107C 52.1667,107.667 53.8333,107.667 55.5,107C 56.2524,106.329 56.5858,105.496 56.5,104.5C 57.5983,103.399 57.765,102.066 57,100.5C 53.6667,97.1667 50.3333,93.8333 47,90.5C 46.023,88.26 45.523,85.9267 45.5,83.5C 45.5,83.1667 45.5,82.8333 45.5,82.5C 48.5919,79.6451 52.2586,78.8118 56.5,80C 63.3685,87.0359 70.3685,93.8693 77.5,100.5C 79.2254,107.367 79.892,114.367 79.5,121.5C 67.5,121.5 55.5,121.5 43.5,121.5C 42.1667,120.833 41.1667,119.833 40.5,118.5C 38.9775,114.436 36.3109,111.436 32.5,109.5C 31.1667,107.833 29.8333,106.167 28.5,104.5C 25.7166,100.529 23.5499,96.1954 22,91.5C 21.3333,82.5 21.3333,73.5 22,64.5C 22.8498,60.8976 25.1832,59.2309 29,59.5C 31.7874,59.7888 34.2874,60.7888 36.5,62.5 Z"/></g>
<g><path style="opacity:0.782" fill="#a36fd8" d="M 71.5,53.5 C 72.6935,53.9704 73.3601,54.9704 73.5,56.5C 73.3333,57.5 73.1667,58.5 73,59.5C 70.7265,60.8112 68.5598,60.8112 66.5,59.5C 68.1667,59.5 69.8333,59.5 71.5,59.5C 71.5,57.5 71.5,55.5 71.5,53.5 Z"/></g>
<g><path style="opacity:0.776" fill="#ba8ce2" d="M 81.5,29.5 C 82.1174,29.6107 82.6174,29.944 83,30.5C 83.4998,40.1609 83.6665,49.8276 83.5,59.5C 84.8333,59.5 86.1667,59.5 87.5,59.5C 87.1729,49.6522 87.5062,39.9856 88.5,30.5C 88.8333,30.5 89.1667,30.5 89.5,30.5C 89.6665,40.1724 89.4998,49.8391 89,59.5C 86.6667,60.8333 84.3333,60.8333 82,59.5C 81.5002,49.5056 81.3335,39.5056 81.5,29.5 Z"/></g>
<g><path style="opacity:1" fill="#152a64" d="M 147.5,97.5 C 147.573,99.0269 146.906,100.027 145.5,100.5C 143.952,100.821 143.285,101.821 143.5,103.5C 141.167,103.833 139.833,105.167 139.5,107.5C 139.5,108.167 139.167,108.5 138.5,108.5C 136.738,109.262 135.738,110.596 135.5,112.5C 134.833,113.833 133.833,114.833 132.5,115.5C 131.094,115.973 130.427,116.973 130.5,118.5C 129.833,119.833 128.833,120.833 127.5,121.5C 115.5,121.5 103.5,121.5 91.5,121.5C 91.5,117.167 91.5,112.833 91.5,108.5C 91.5838,105.673 92.2504,103.006 93.5,100.5C 100.833,93.8333 107.833,86.8333 114.5,79.5C 122.328,78.4931 125.494,81.8265 124,89.5C 122.906,91.0779 122.072,92.7446 121.5,94.5C 120.167,95.1667 119.167,96.1667 118.5,97.5C 114.252,98.5882 112.752,101.255 114,105.5C 116.293,108.134 118.46,108.134 120.5,105.5C 120.5,104.833 120.833,104.5 121.5,104.5C 121.435,104.938 121.601,105.272 122,105.5C 125.112,102.899 127.612,99.8991 129.5,96.5C 131.539,95.089 132.539,93.089 132.5,90.5C 132.334,81.8269 132.5,73.1603 133,64.5C 133.278,63.5842 133.778,62.9175 134.5,62.5C 139.62,58.2682 144.454,58.6015 149,63.5C 150.02,74.9469 149.52,86.2803 147.5,97.5 Z"/></g>
<g><path style="opacity:0.755" fill="#b68ae0" d="M 36.5,62.5 C 34.2874,60.7888 31.7874,59.7888 29,59.5C 25.1832,59.2309 22.8498,60.8976 22,64.5C 21.3333,73.5 21.3333,82.5 22,91.5C 23.5499,96.1954 25.7166,100.529 28.5,104.5C 24.8051,102.131 22.3051,98.7973 21,94.5C 20.3333,83.8333 20.3333,73.1667 21,62.5C 22.6657,59.3336 25.3323,58.0003 29,58.5C 32.7056,57.9311 35.2056,59.2644 36.5,62.5 Z"/></g>
<g><path style="opacity:0.498" fill="#c19de5" d="M 56.5,67.5 C 58.0269,67.427 59.0269,68.0937 59.5,69.5C 57.9731,69.573 56.9731,68.9063 56.5,67.5 Z"/></g>
<g><path style="opacity:0.38" fill="#caaae8" d="M 147.5,97.5 C 149.52,86.2803 150.02,74.9469 149,63.5C 144.454,58.6015 139.62,58.2682 134.5,62.5C 135.654,59.4144 137.988,58.081 141.5,58.5C 145.035,58.3509 147.868,59.6842 150,62.5C 150.667,72.8333 150.667,83.1667 150,93.5C 149.392,95.0664 148.558,96.3998 147.5,97.5 Z"/></g>
<g><path style="opacity:0.047" fill="#d5bcee" d="M 77.5,100.5 C 70.3685,93.8693 63.3685,87.0359 56.5,80C 52.2586,78.8118 48.5919,79.6451 45.5,82.5C 45.9156,80.2475 47.249,78.7475 49.5,78C 52.3033,77.245 54.9699,77.5783 57.5,79C 64.7611,85.7558 71.4278,92.9225 77.5,100.5 Z"/></g>
<g><path style="opacity:0.173" fill="#cfb0eb" d="M 121.5,94.5 C 122.072,92.7446 122.906,91.0779 124,89.5C 125.494,81.8265 122.328,78.4931 114.5,79.5C 114.167,79.5 113.833,79.5 113.5,79.5C 117.775,76.5841 121.608,77.2508 125,81.5C 127.361,86.7798 126.194,91.1131 121.5,94.5 Z"/></g>
<g><path style="opacity:0.612" fill="#ad7edd" d="M 36.5,62.5 C 37.3296,70.9903 37.8296,79.657 38,88.5C 38.6077,90.1545 39.1077,91.8211 39.5,93.5C 38.0689,93.1193 37.2355,92.1193 37,90.5C 36.5002,81.1726 36.3335,71.8393 36.5,62.5 Z"/></g>
<g><path style="opacity:0.031" fill="#c7a3e8" d="M 45.5,83.5 C 45.523,85.9267 46.023,88.26 47,90.5C 50.3333,93.8333 53.6667,97.1667 57,100.5C 57.765,102.066 57.5983,103.399 56.5,104.5C 56.6495,103.448 56.4828,102.448 56,101.5C 52.6667,98.1667 49.3333,94.8333 46,91.5C 44.3643,88.7732 44.1976,86.1066 45.5,83.5 Z"/></g>
<g><path style="opacity:0.192" fill="#dcc8f2" d="M 132.5,90.5 C 132.539,93.089 131.539,95.089 129.5,96.5C 129.992,94.1815 130.992,92.1815 132.5,90.5 Z"/></g>
<g><path style="opacity:0.745" fill="#b98fe2" d="M 113.5,79.5 C 113.833,79.5 114.167,79.5 114.5,79.5C 107.833,86.8333 100.833,93.8333 93.5,100.5C 99.4427,92.8886 106.109,85.8886 113.5,79.5 Z"/></g>
<g><path style="opacity:0.753" fill="#c19be5" d="M 40.5,95.5 C 44.4986,99.3303 48.6653,102.997 53,106.5C 54.1127,105.695 55.2794,105.028 56.5,104.5C 56.5858,105.496 56.2524,106.329 55.5,107C 53.8333,107.667 52.1667,107.667 50.5,107C 46.5615,103.571 43.2281,99.7372 40.5,95.5 Z"/></g>
<g><path style="opacity:0.835" fill="#a26dd8" d="M 129.5,96.5 C 127.612,99.8991 125.112,102.899 122,105.5C 121.601,105.272 121.435,104.938 121.5,104.5C 123.833,101.5 126.5,98.8333 129.5,96.5 Z"/></g>
<g><path style="opacity:0.412" fill="#c9a9e8" d="M 145.5,100.5 C 145.068,101.71 144.401,102.71 143.5,103.5C 143.285,101.821 143.952,100.821 145.5,100.5 Z"/></g>
<g><path style="opacity:0.412" fill="#cdb0ea" d="M 118.5,97.5 C 116.984,99.1857 115.65,101.019 114.5,103C 115.819,105.835 117.819,106.668 120.5,105.5C 118.46,108.134 116.293,108.134 114,105.5C 112.752,101.255 114.252,98.5882 118.5,97.5 Z"/></g>
<g><path style="opacity:0.184" fill="#d0b2ed" d="M 143.5,103.5 C 142.5,105.167 141.167,106.5 139.5,107.5C 139.833,105.167 141.167,103.833 143.5,103.5 Z"/></g>
<g><path style="opacity:0.178" fill="#e0cdf2" d="M 93.5,100.5 C 92.2504,103.006 91.5838,105.673 91.5,108.5C 90.5151,112.634 90.1818,116.968 90.5,121.5C 89.3516,117.019 89.1849,112.352 90,107.5C 90.139,104.555 91.3057,102.221 93.5,100.5 Z"/></g>
<g><path style="opacity:0.031" fill="#e5cbf5" d="M 138.5,108.5 C 138.262,110.404 137.262,111.738 135.5,112.5C 135.738,110.596 136.738,109.262 138.5,108.5 Z"/></g>
<g><path style="opacity:0.424" fill="#c9a6e8" d="M 32.5,109.5 C 36.3109,111.436 38.9775,114.436 40.5,118.5C 37.1385,116.105 34.4719,113.105 32.5,109.5 Z"/></g>
<g><path style="opacity:0.027" fill="#e0b8f2" d="M 132.5,115.5 C 132.573,117.027 131.906,118.027 130.5,118.5C 130.427,116.973 131.094,115.973 132.5,115.5 Z"/></g>
<g><path style="opacity:0.714" fill="#be95e3" d="M 77.5,100.5 C 78.793,101.842 79.6264,103.509 80,105.5C 80.8072,111.416 80.6406,117.25 79.5,123C 67.9519,123.521 56.2852,123.521 44.5,123C 43.944,122.617 43.6107,122.117 43.5,121.5C 55.5,121.5 67.5,121.5 79.5,121.5C 79.892,114.367 79.2254,107.367 77.5,100.5 Z"/></g>
<g><path style="opacity:0.719" fill="#bb90e2" d="M 91.5,108.5 C 91.5,112.833 91.5,117.167 91.5,121.5C 103.5,121.5 115.5,121.5 127.5,121.5C 127.082,122.222 126.416,122.722 125.5,123C 114.167,123.667 102.833,123.667 91.5,123C 90.944,122.617 90.6107,122.117 90.5,121.5C 90.1818,116.968 90.5151,112.634 91.5,108.5 Z"/></g>
<g><path style="opacity:0.239" fill="#ffd3c8" d="M 89.5,130.5 C 102.167,130.5 114.833,130.5 127.5,130.5C 127.5,134.167 127.5,137.833 127.5,141.5C 114.833,141.5 102.167,141.5 89.5,141.5C 88.9167,137.75 88.9167,134.083 89.5,130.5 Z"/></g>
<g><path style="opacity:1" fill="#fe8667" d="M 80.5,131.5 C 80.5,134.5 80.5,137.5 80.5,140.5C 68.5,140.5 56.5,140.5 44.5,140.5C 44.5,137.5 44.5,134.5 44.5,131.5C 56.5,130.167 68.5,130.167 80.5,131.5 Z"/></g>
<g><path style="opacity:1" fill="#fd7d5c" d="M 90.5,131.5 C 102.5,131.5 114.5,131.5 126.5,131.5C 126.5,134.5 126.5,137.5 126.5,140.5C 114.5,140.5 102.5,140.5 90.5,140.5C 90.5,137.5 90.5,134.5 90.5,131.5 Z"/></g>
<g><path style="opacity:0.49" fill="#ffc3b4" d="M 44.5,131.5 C 44.5,134.5 44.5,137.5 44.5,140.5C 56.5,140.5 68.5,140.5 80.5,140.5C 80.5,137.5 80.5,134.5 80.5,131.5C 81.4794,134.625 81.8128,137.958 81.5,141.5C 68.8333,141.5 56.1667,141.5 43.5,141.5C 43.1872,137.958 43.5206,134.625 44.5,131.5 Z"/></g>
</svg>
