<?xml version="1.0" encoding="UTF-8"?>
<!DOCTYPE svg PUBLIC "-//W3C//DTD SVG 1.1//EN" "http://www.w3.org/Graphics/SVG/1.1/DTD/svg11.dtd">
<svg xmlns="http://www.w3.org/2000/svg" version="1.1" width="280px" height="345px" style="shape-rendering:geometricPrecision; text-rendering:geometricPrecision; image-rendering:optimizeQuality; fill-rule:evenodd; clip-rule:evenodd" xmlns:xlink="http://www.w3.org/1999/xlink">
<g><path style="opacity:1" fill="#fdfdfd" d="M -0.5,-0.5 C 92.8333,-0.5 186.167,-0.5 279.5,-0.5C 279.5,114.5 279.5,229.5 279.5,344.5C 186.167,344.5 92.8333,344.5 -0.5,344.5C -0.5,229.5 -0.5,114.5 -0.5,-0.5 Z"/></g>
<g><path style="opacity:1" fill="#12285e" d="M 155.5,121.5 C 154.505,133.655 154.171,145.989 154.5,158.5C 141.989,158.171 129.655,158.505 117.5,159.5C 109.625,168.56 101.292,177.227 92.5,185.5C 83.08,177.584 74.08,169.084 65.5,160C 53.1712,159.5 40.8378,159.333 28.5,159.5C 28.6666,146.829 28.4999,134.162 28,121.5C 19.3189,112.986 10.8189,104.319 2.5,95.5C 10.8735,86.6273 19.3735,77.9606 28,69.5C 28.4999,57.1712 28.6665,44.8378 28.5,32.5C 40.8378,32.6665 53.1712,32.4999 65.5,32C 74.0142,23.3189 82.6809,14.8189 91.5,6.5C 100.319,14.8189 108.986,23.3189 117.5,32C 129.829,32.4999 142.162,32.6665 154.5,32.5C 154.168,45.1842 154.501,57.8508 155.5,70.5C 164.167,78.5 172.5,86.8333 180.5,95.5C 172.145,104.187 163.812,112.854 155.5,121.5 Z"/></g>
<g><path style="opacity:1" fill="#0d275f" d="M 224.5,87.5 C 232.845,86.6769 238.011,90.3436 240,98.5C 240.5,125.165 240.667,151.831 240.5,178.5C 231.376,177.051 223.209,179.051 216,184.5C 215.333,156.5 215.333,128.5 216,100.5C 217.35,95.1158 220.184,90.7824 224.5,87.5 Z"/></g>
<g><path style="opacity:1" fill="#f1f1f1" d="M 90.5,22.5 C 91.552,22.3505 92.552,22.5172 93.5,23C 100.167,29.6667 106.833,36.3333 113.5,43C 123.167,43.3333 132.833,43.6667 142.5,44C 143.32,53.7562 143.82,63.5895 144,73.5C 151.211,80.3758 158.044,87.5425 164.5,95C 158.044,102.457 151.211,109.624 144,116.5C 143.821,126.744 143.321,136.91 142.5,147C 132.5,147.333 122.5,147.667 112.5,148C 105.924,155.081 98.9236,161.581 91.5,167.5C 84.0764,161.581 77.0764,155.081 70.5,148C 60.5,147.667 50.5,147.333 40.5,147C 39.6794,136.91 39.1794,126.744 39,116.5C 31.9191,109.924 25.4191,102.924 19.5,95.5C 25.4191,88.0764 31.9191,81.0764 39,74.5C 39.3333,64.5 39.6667,54.5 40,44.5C 50.0898,43.6794 60.2565,43.1794 70.5,43C 77.3693,36.2982 84.036,29.4649 90.5,22.5 Z"/></g>
<g><path style="opacity:1" fill="#10285f" d="M 90.5,30.5 C 97.4234,35.7534 103.757,41.7534 109.5,48.5C 118.81,49.4983 128.143,49.8316 137.5,49.5C 137.168,58.8571 137.502,68.1904 138.5,77.5C 144.833,83.1667 150.833,89.1667 156.5,95.5C 150.833,101.833 144.833,107.833 138.5,113.5C 137.502,122.81 137.168,132.143 137.5,141.5C 128.494,141.334 119.494,141.5 110.5,142C 104.319,148.348 97.9855,154.515 91.5,160.5C 85.0145,154.515 78.6811,148.348 72.5,142C 63.5062,141.5 54.5062,141.334 45.5,141.5C 45.6664,132.494 45.4998,123.494 45,114.5C 38.6519,108.319 32.4852,101.986 26.5,95.5C 32.4852,89.0145 38.6519,82.6811 45,76.5C 45.4998,67.5062 45.6664,58.5062 45.5,49.5C 54.5062,49.6664 63.5062,49.4998 72.5,49C 78.7028,42.9648 84.7028,36.7981 90.5,30.5 Z"/></g>
<g><path style="opacity:1" fill="#ececec" d="M 126.5,72.5 C 128.144,72.2865 129.644,72.6198 131,73.5C 131.667,88.1667 131.667,102.833 131,117.5C 129.333,118.833 127.667,118.833 126,117.5C 125.184,102.426 125.351,87.4255 126.5,72.5 Z"/></g>
<g><path style="opacity:1" fill="#f2f2f2" d="M 90.5,68.5 C 92.1439,68.2865 93.6439,68.6198 95,69.5C 95.3333,83.1667 95.6667,96.8333 96,110.5C 98.5414,115.069 102.375,116.569 107.5,115C 108.667,113.833 109.833,112.667 111,111.5C 112.272,99.5705 112.938,87.5705 113,75.5C 114.333,74.1667 115.667,74.1667 117,75.5C 117.667,86.5 117.667,97.5 117,108.5C 112.472,122.497 104.306,125.164 92.5,116.5C 85.4969,122.611 78.3303,122.944 71,117.5C 68.7132,114.928 67.5465,111.928 67.5,108.5C 63.8183,108.665 60.1516,108.499 56.5,108C 52.251,104.623 51.4177,100.457 54,95.5C 58.3034,88.8632 63.6368,83.1966 70,78.5C 70.772,78.6448 71.4387,78.9781 72,79.5C 72.0705,90.2389 72.7371,100.906 74,111.5C 78.3003,116.446 82.967,116.779 88,112.5C 89.15,97.8519 89.9833,83.1852 90.5,68.5 Z"/></g>
<g><path style="opacity:1" fill="#202c5b" d="M 66.5,88.5 C 67.4872,93.3054 67.8205,98.3054 67.5,103.5C 64.1667,103.5 60.8333,103.5 57.5,103.5C 57.3433,102.127 57.51,100.793 58,99.5C 60.8421,95.8033 63.6754,92.1366 66.5,88.5 Z"/></g>
<g><path style="opacity:1" fill="#6a6a6a" d="M 155.5,121.5 C 155.5,134.167 155.5,146.833 155.5,159.5C 142.833,159.5 130.167,159.5 117.5,159.5C 129.655,158.505 141.989,158.171 154.5,158.5C 154.171,145.989 154.505,133.655 155.5,121.5 Z"/></g>
<g><path style="opacity:1" fill="#0f275f" d="M 194.5,170.5 C 202.036,170.529 206.869,174.195 209,181.5C 209.667,198.167 209.667,214.833 209,231.5C 206.911,240.779 201.411,244.279 192.5,242C 188.619,239.072 186.119,235.239 185,230.5C 184.333,214.5 184.333,198.5 185,182.5C 186.92,177.424 190.086,173.424 194.5,170.5 Z"/></g>
<g><path style="opacity:1" fill="#0f275f" d="M 225.5,185.5 C 238.171,185.333 250.838,185.5 263.5,186C 268.573,187.406 272.073,190.572 274,195.5C 276.087,227.445 274.087,259.111 268,290.5C 265.609,296.949 262.942,303.282 260,309.5C 222.567,310.829 185.067,310.829 147.5,309.5C 140.069,294.794 135.569,279.127 134,262.5C 133.333,257.5 133.333,252.5 134,247.5C 141.402,251.128 147.735,249.795 153,243.5C 156.909,251.871 163.409,255.037 172.5,253C 177.704,250.629 181.371,246.796 183.5,241.5C 189.93,248.984 197.596,250.484 206.5,246C 211.285,241.931 214.119,236.764 215,230.5C 215.333,224.833 215.667,219.167 216,213.5C 218.408,215.956 221.241,217.789 224.5,219C 236.829,219.5 249.162,219.667 261.5,219.5C 261.5,217.833 261.5,216.167 261.5,214.5C 250.828,214.667 240.161,214.5 229.5,214C 218.682,211.852 214.182,205.352 216,194.5C 218.406,190.592 221.572,187.592 225.5,185.5 Z"/></g>
<g><path style="opacity:1" fill="#0f275f" d="M 164.5,190.5 C 171.231,189.448 175.731,192.114 178,198.5C 178.667,211.833 178.667,225.167 178,238.5C 175.985,246.565 171.152,249.398 163.5,247C 160.894,245.062 159.061,242.562 158,239.5C 157.333,226.167 157.333,212.833 158,199.5C 159.643,196.039 161.81,193.039 164.5,190.5 Z"/></g>
<g><path style="opacity:1" fill="#182a5e" d="M 140.5,201.5 C 146.208,201.789 149.708,204.789 151,210.5C 151.667,218.5 151.667,226.5 151,234.5C 149.607,240.919 145.774,243.752 139.5,243C 136.57,240.88 134.737,238.047 134,234.5C 133.333,226.5 133.333,218.5 134,210.5C 135.222,206.686 137.389,203.686 140.5,201.5 Z"/></g>
<g><path style="opacity:1" fill="#595959" d="M 257.5,316.5 C 222.167,316.5 186.833,316.5 151.5,316.5C 151.5,325.167 151.5,333.833 151.5,342.5C 150.507,333.682 150.173,324.682 150.5,315.5C 186.337,315.168 222.004,315.502 257.5,316.5 Z"/></g>
<g><path style="opacity:1" fill="#0b2660" d="M 257.5,316.5 C 257.5,325.167 257.5,333.833 257.5,342.5C 222.167,342.5 186.833,342.5 151.5,342.5C 151.5,333.833 151.5,325.167 151.5,316.5C 186.833,316.5 222.167,316.5 257.5,316.5 Z"/></g>
</svg>
