<?xml version="1.0" encoding="UTF-8"?>
<!DOCTYPE svg PUBLIC "-//W3C//DTD SVG 1.1//EN" "http://www.w3.org/Graphics/SVG/1.1/DTD/svg11.dtd">
<svg xmlns="http://www.w3.org/2000/svg" version="1.1" width="512px" height="512px" style="shape-rendering:geometricPrecision; text-rendering:geometricPrecision; image-rendering:optimizeQuality; fill-rule:evenodd; clip-rule:evenodd" xmlns:xlink="http://www.w3.org/1999/xlink">
<g><path style="opacity:1" fill="#30295e" d="M 107.5,26.5 C 107.973,27.9063 108.973,28.573 110.5,28.5C 111.5,28.8333 112.167,29.5 112.5,30.5C 113.262,32.2624 114.596,33.2624 116.5,33.5C 117.167,33.5 117.5,33.8333 117.5,34.5C 117.427,36.0269 118.094,37.0269 119.5,37.5C 130.515,49.1952 135.848,63.1952 135.5,79.5C 135.848,95.8048 130.515,109.805 119.5,121.5C 118.094,121.973 117.427,122.973 117.5,124.5C 117.5,125.167 117.167,125.5 116.5,125.5C 114.973,125.427 113.973,126.094 113.5,127.5C 101.805,138.515 87.8048,143.848 71.5,143.5C 55.1952,143.848 41.1952,138.515 29.5,127.5C 29.0269,126.094 28.0269,125.427 26.5,125.5C 25.8333,125.5 25.5,125.167 25.5,124.5C 25.573,122.973 24.9063,121.973 23.5,121.5C 15.1836,112.867 10.0169,102.534 8,90.5C 5.20892,73.272 8.70892,57.6054 18.5,43.5C 19.9063,43.0269 20.573,42.0269 20.5,40.5C 21.1667,39.1667 22.1667,38.1667 23.5,37.5C 24.9063,37.0269 25.573,36.0269 25.5,34.5C 25.5,33.8333 25.8333,33.5 26.5,33.5C 28.0269,33.573 29.0269,32.9063 29.5,31.5C 38.1222,23.1888 48.4555,18.0222 60.5,16C 77.728,13.2089 93.3946,16.7089 107.5,26.5 Z M 101.5,42.5 C 101.973,43.9063 102.973,44.573 104.5,44.5C 104.833,45.5 105.5,46.1667 106.5,46.5C 106.427,48.0269 107.094,49.0269 108.5,49.5C 122.698,69.61 122.698,89.61 108.5,109.5C 107.094,109.973 106.427,110.973 106.5,112.5C 105.5,112.833 104.833,113.5 104.5,114.5C 102.973,114.427 101.973,115.094 101.5,116.5C 88.3091,126.406 73.6424,129.24 57.5,125C 51.6955,122.933 46.3622,120.099 41.5,116.5C 41.0269,115.094 40.0269,114.427 38.5,114.5C 38.1667,113.5 37.5,112.833 36.5,112.5C 36.573,110.973 35.9063,109.973 34.5,109.5C 19.8333,89.5 19.8333,69.5 34.5,49.5C 35.9063,49.0269 36.573,48.0269 36.5,46.5C 37.5,46.1667 38.1667,45.5 38.5,44.5C 40.0269,44.573 41.0269,43.9063 41.5,42.5C 61.5,27.8333 81.5,27.8333 101.5,42.5 Z"/></g>
<g><path style="opacity:1" fill="#31295d" d="M 480.5,30.5 C 480.973,31.9063 481.973,32.573 483.5,32.5C 503.654,53.089 508.82,77.089 499,104.5C 496.133,110.925 492.3,116.591 487.5,121.5C 486.094,121.973 485.427,122.973 485.5,124.5C 464.97,143.84 441.304,148.673 414.5,139C 406.155,135.137 398.821,129.97 392.5,123.5C 392.573,121.973 391.906,120.973 390.5,120.5C 377.699,105.572 372.866,88.2387 376,68.5C 378.617,54.2562 385.117,42.2562 395.5,32.5C 397.027,32.573 398.027,31.9063 398.5,30.5C 409.945,19.7925 423.612,14.7925 439.5,15.5C 455.246,15.1892 468.912,20.1892 480.5,30.5 Z M 438.5,31.5 C 468.236,33.9022 484.236,49.9022 486.5,79.5C 484.375,108.626 468.708,124.626 439.5,127.5C 410.5,124.5 394.5,108.5 391.5,79.5C 394.467,50.8676 410.134,34.8676 438.5,31.5 Z"/></g>
<g><path style="opacity:0.063" fill="#f32f49" d="M 107.5,26.5 C 109.027,26.427 110.027,27.0937 110.5,28.5C 108.973,28.573 107.973,27.9063 107.5,26.5 Z"/></g>
<g><path style="opacity:0.063" fill="#ef2751" d="M 112.5,30.5 C 114.404,30.7376 115.738,31.7376 116.5,33.5C 114.596,33.2624 113.262,32.2624 112.5,30.5 Z"/></g>
<g><path style="opacity:0.063" fill="#f33939" d="M 480.5,30.5 C 482.027,30.427 483.027,31.0937 483.5,32.5C 481.973,32.573 480.973,31.9063 480.5,30.5 Z"/></g>
<g><path style="opacity:0.718" fill="#f53b39" d="M 398.5,30.5 C 398.027,31.9063 397.027,32.573 395.5,32.5C 395.973,31.0937 396.973,30.427 398.5,30.5 Z"/></g>
<g><path style="opacity:0.753" fill="#ef215b" d="M 29.5,31.5 C 29.0269,32.9063 28.0269,33.573 26.5,33.5C 26.9731,32.0937 27.9731,31.427 29.5,31.5 Z"/></g>
<g><path style="opacity:0.753" fill="#ef2258" d="M 25.5,34.5 C 25.573,36.0269 24.9063,37.0269 23.5,37.5C 23.427,35.9731 24.0937,34.9731 25.5,34.5 Z"/></g>
<g><path style="opacity:0.753" fill="#ef2258" d="M 117.5,34.5 C 118.906,34.9731 119.573,35.9731 119.5,37.5C 118.094,37.0269 117.427,36.0269 117.5,34.5 Z"/></g>
<g><path style="opacity:0.604" fill="#f42f4b" d="M 20.5,40.5 C 20.573,42.0269 19.9063,43.0269 18.5,43.5C 18.427,41.9731 19.0937,40.9731 20.5,40.5 Z"/></g>
<g><path style="opacity:0.753" fill="#ef2258" d="M 101.5,42.5 C 103.027,42.427 104.027,43.0937 104.5,44.5C 102.973,44.573 101.973,43.9063 101.5,42.5 Z"/></g>
<g><path style="opacity:0.063" fill="#ef294e" d="M 41.5,42.5 C 41.0269,43.9063 40.0269,44.573 38.5,44.5C 38.9731,43.0937 39.9731,42.427 41.5,42.5 Z"/></g>
<g><path style="opacity:0.063" fill="#ef2750" d="M 36.5,46.5 C 36.573,48.0269 35.9063,49.0269 34.5,49.5C 34.427,47.9731 35.0937,46.9731 36.5,46.5 Z"/></g>
<g><path style="opacity:0.063" fill="#ef2750" d="M 106.5,46.5 C 107.906,46.9731 108.573,47.9731 108.5,49.5C 107.094,49.0269 106.427,48.0269 106.5,46.5 Z"/></g>
<g><path style="opacity:1" fill="#2d295e" d="M 467.5,48.5 C 468.167,49.8333 469.167,50.8333 470.5,51.5C 471.851,54.7723 471.684,58.1056 470,61.5C 458.877,75.6252 447.377,89.4586 435.5,103C 432.833,103.667 430.167,103.667 427.5,103C 426.944,102.617 426.611,102.117 426.5,101.5C 421.167,95.5 415.5,89.8333 409.5,84.5C 406.434,79.8867 407.101,75.72 411.5,72C 414.167,71.3333 416.833,71.3333 419.5,72C 420.056,72.3826 420.389,72.8826 420.5,73.5C 421.262,75.2624 422.596,76.2624 424.5,76.5C 424.5,77.8333 425.167,78.5 426.5,78.5C 426.5,79.8333 427.167,80.5 428.5,80.5C 428.668,83.0514 429.668,83.7181 431.5,82.5C 439.484,71.8529 447.818,61.5195 456.5,51.5C 457.833,50.8333 458.833,49.8333 459.5,48.5C 462.167,47.1667 464.833,47.1667 467.5,48.5 Z"/></g>
<g><path style="opacity:0.604" fill="#f43540" d="M 459.5,48.5 C 458.833,49.8333 457.833,50.8333 456.5,51.5C 456.5,49.5 457.5,48.5 459.5,48.5 Z"/></g>
<g><path style="opacity:0.604" fill="#f43440" d="M 467.5,48.5 C 469.5,48.5 470.5,49.5 470.5,51.5C 469.167,50.8333 468.167,49.8333 467.5,48.5 Z"/></g>
<g><path style="opacity:1" fill="#20285f" d="M 59.5,56.5 C 63.1456,60.8123 67.1456,64.8123 71.5,68.5C 75.8544,64.8123 79.8544,60.8123 83.5,56.5C 88.1133,53.4339 92.28,54.1006 96,58.5C 96.6667,61.1667 96.6667,63.8333 96,66.5C 95.6174,67.056 95.1174,67.3893 94.5,67.5C 90.1877,71.1456 86.1877,75.1456 82.5,79.5C 86.1877,83.8544 90.1877,87.8544 94.5,91.5C 97.5661,96.1133 96.8994,100.28 92.5,104C 89.8333,104.667 87.1667,104.667 84.5,104C 83.944,103.617 83.6107,103.117 83.5,102.5C 79.8544,98.1877 75.8544,94.1877 71.5,90.5C 66.8123,94.521 62.479,98.8544 58.5,103.5C 49.4753,105.648 45.642,101.981 47,92.5C 47.3826,91.944 47.8826,91.6107 48.5,91.5C 52.8123,87.8544 56.8123,83.8544 60.5,79.5C 56.8123,75.1456 52.8123,71.1456 48.5,67.5C 45.4339,62.8867 46.1006,58.72 50.5,55C 53.1667,54.3333 55.8333,54.3333 58.5,55C 59.056,55.3826 59.3893,55.8826 59.5,56.5 Z"/></g>
<g><path style="opacity:0.753" fill="#ef2259" d="M 59.5,56.5 C 63.7535,59.4104 67.7535,62.7437 71.5,66.5C 75.2465,62.7437 79.2465,59.4104 83.5,56.5C 79.8544,60.8123 75.8544,64.8123 71.5,68.5C 67.1456,64.8123 63.1456,60.8123 59.5,56.5 Z"/></g>
<g><path style="opacity:0.063" fill="#f33a38" d="M 420.5,73.5 C 422.404,73.7376 423.738,74.7376 424.5,76.5C 422.596,76.2624 421.262,75.2624 420.5,73.5 Z"/></g>
<g><path style="opacity:0.718" fill="#f43b37" d="M 424.5,76.5 C 425.5,76.8333 426.167,77.5 426.5,78.5C 425.167,78.5 424.5,77.8333 424.5,76.5 Z"/></g>
<g><path style="opacity:0.063" fill="#ef2652" d="M 94.5,67.5 C 91.5896,71.7535 88.2563,75.7535 84.5,79.5C 88.2563,83.2465 91.5896,87.2465 94.5,91.5C 90.1877,87.8544 86.1877,83.8544 82.5,79.5C 86.1877,75.1456 90.1877,71.1456 94.5,67.5 Z"/></g>
<g><path style="opacity:1" fill="#21285f" d="M 403.5,166.5 C 403.973,167.906 404.973,168.573 406.5,168.5C 406.427,170.027 407.094,171.027 408.5,171.5C 416.195,179.22 421.029,188.553 423,199.5C 423.667,208.833 423.667,218.167 423,227.5C 421.833,228.667 420.667,229.833 419.5,231C 408.818,231.168 398.151,231.668 387.5,232.5C 394.833,253.167 402.167,273.833 409.5,294.5C 418.148,295.332 426.814,295.832 435.5,296C 436.667,297.167 437.833,298.333 439,299.5C 442.761,332.489 429.928,356.322 400.5,371C 366.966,381.933 340.132,373.099 320,344.5C 312.061,330.47 309.395,315.47 312,299.5C 313.167,298.333 314.333,297.167 315.5,296C 324.186,295.832 332.852,295.332 341.5,294.5C 348.833,273.833 356.167,253.167 363.5,232.5C 338.175,231.5 312.842,231.167 287.5,231.5C 287.5,282.167 287.5,332.833 287.5,383.5C 319.833,383.167 335.833,399.167 335.5,431.5C 362.749,431.871 383.583,443.538 398,466.5C 405.56,479.176 408.56,492.843 407,507.5C 405.624,508.705 404.458,510.038 403.5,511.5C 304.833,511.5 206.167,511.5 107.5,511.5C 107.5,511.167 107.5,510.833 107.5,510.5C 107.167,509.5 106.5,508.833 105.5,508.5C 102.478,475.566 116.145,451.733 146.5,437C 155.737,432.919 165.403,431.086 175.5,431.5C 175.167,399.167 191.167,383.167 223.5,383.5C 223.5,332.833 223.5,282.167 223.5,231.5C 198.158,231.167 172.825,231.5 147.5,232.5C 154.833,253.167 162.167,273.833 169.5,294.5C 178.148,295.332 186.814,295.832 195.5,296C 196.667,297.167 197.833,298.333 199,299.5C 201.605,315.47 198.939,330.47 191,344.5C 188.958,347.94 186.458,350.94 183.5,353.5C 182.094,353.973 181.427,354.973 181.5,356.5C 160.983,375.838 137.316,380.671 110.5,371C 104.075,368.133 98.4088,364.3 93.5,359.5C 93.0269,358.094 92.0269,357.427 90.5,357.5C 89.8333,357.5 89.5,357.167 89.5,356.5C 89.573,354.973 88.9063,353.973 87.5,353.5C 73.5548,337.996 68.5548,319.996 72.5,299.5C 73.8333,298.833 74.8333,297.833 75.5,296.5C 84.0093,295.833 92.6759,295.167 101.5,294.5C 108.833,273.833 116.167,253.167 123.5,232.5C 112.849,231.668 102.182,231.168 91.5,231C 90.3333,229.833 89.1667,228.667 88,227.5C 86.8612,215.369 87.5279,203.369 90,191.5C 92.4276,183.623 96.5943,176.957 102.5,171.5C 103.906,171.027 104.573,170.027 104.5,168.5C 116.656,156.718 131.323,150.885 148.5,151C 158.45,142.39 169.45,135.39 181.5,130C 192.696,127.709 204.03,126.876 215.5,127.5C 213.201,103.234 223.534,87.4004 246.5,80C 280.038,78.0372 296.371,93.8705 295.5,127.5C 311.326,125.51 326.326,128.01 340.5,135C 347.833,140.333 355.167,145.667 362.5,151C 378.414,150.639 392.081,155.806 403.5,166.5 Z M 392.5,178.5 C 392.973,179.906 393.973,180.573 395.5,180.5C 403.853,190.554 407.853,202.221 407.5,215.5C 306.167,215.5 204.833,215.5 103.5,215.5C 103.758,210.434 104.425,205.434 105.5,200.5C 156.83,199.667 208.163,199.167 259.5,199C 264.833,194 264.833,189 259.5,184C 210.998,183.833 162.665,183.333 114.5,182.5C 115.906,182.027 116.573,181.027 116.5,179.5C 127.82,170.577 140.82,166.411 155.5,167C 163.167,161.333 170.833,155.667 178.5,150C 181.382,148.392 184.382,147.059 187.5,146C 202.832,144.21 218.166,142.877 233.5,142C 234.905,140.023 235.905,137.857 236.5,135.5C 229.561,123.632 230.561,112.465 239.5,102C 247.507,95.8868 256.174,94.5535 265.5,98C 276.318,104.478 280.485,113.978 278,126.5C 273.9,131.656 273.733,136.822 277.5,142C 292.834,142.877 308.168,144.21 323.5,146C 326.618,147.059 329.618,148.392 332.5,150C 340.167,155.667 347.833,161.333 355.5,167C 369.357,166.374 381.69,170.207 392.5,178.5 Z M 239.5,231.5 C 250.167,231.5 260.833,231.5 271.5,231.5C 271.5,282.167 271.5,332.833 271.5,383.5C 260.833,383.5 250.167,383.5 239.5,383.5C 239.5,332.833 239.5,282.167 239.5,231.5 Z M 134.5,250.5 C 135.167,250.5 135.833,250.5 136.5,250.5C 141.094,265.281 146.094,279.947 151.5,294.5C 140.833,295.833 130.167,295.833 119.5,294.5C 124.906,279.947 129.906,265.281 134.5,250.5 Z M 374.5,250.5 C 375.167,250.5 375.833,250.5 376.5,250.5C 381.094,265.281 386.094,279.947 391.5,294.5C 380.833,295.833 370.167,295.833 359.5,294.5C 364.906,279.947 369.906,265.281 374.5,250.5 Z M 104.5,347.5 C 104.027,346.094 103.027,345.427 101.5,345.5C 93.1223,335.908 88.4557,324.741 87.5,312C 119.413,311.522 151.413,311.522 183.5,312C 180.289,340.711 164.289,356.544 135.5,359.5C 123.898,358.635 113.565,354.635 104.5,347.5 Z M 344.5,347.5 C 344.027,346.094 343.027,345.427 341.5,345.5C 333.23,335.863 328.564,324.696 327.5,312C 359.078,311.691 390.745,311.524 422.5,311.5C 420.378,340.623 404.712,356.623 375.5,359.5C 363.898,358.635 353.565,354.635 344.5,347.5 Z M 216.5,399.5 C 244.537,399.052 272.537,399.552 300.5,401C 314.259,406.319 320.592,416.486 319.5,431.5C 276.833,431.5 234.167,431.5 191.5,431.5C 190.817,413.445 199.15,402.778 216.5,399.5 Z M 174.5,447.5 C 231.855,447.041 289.188,447.541 346.5,449C 370.487,455.154 385.154,470.32 390.5,494.5C 300.5,495.833 210.5,495.833 120.5,494.5C 121.473,489.415 123.139,484.582 125.5,480C 170.167,479.667 214.833,479.333 259.5,479C 264.833,474 264.833,469 259.5,464C 218.833,463.667 178.167,463.333 137.5,463C 148.08,453.424 160.414,448.257 174.5,447.5 Z"/></g>
<g><path style="opacity:0.718" fill="#f43b37" d="M 426.5,78.5 C 427.5,78.8333 428.167,79.5 428.5,80.5C 427.167,80.5 426.5,79.8333 426.5,78.5 Z"/></g>
<g><path style="opacity:0.718" fill="#f53c37" d="M 428.5,80.5 C 429.5,81.1667 430.5,81.8333 431.5,82.5C 429.668,83.7181 428.668,83.0514 428.5,80.5 Z"/></g>
<g><path style="opacity:0.753" fill="#ef2259" d="M 48.5,67.5 C 52.8123,71.1456 56.8123,75.1456 60.5,79.5C 56.8123,83.8544 52.8123,87.8544 48.5,91.5C 51.4104,87.2465 54.7437,83.2465 58.5,79.5C 54.7437,75.7535 51.4104,71.7535 48.5,67.5 Z"/></g>
<g><path style="opacity:0.063" fill="#f43b37" d="M 409.5,84.5 C 415.5,89.8333 421.167,95.5 426.5,101.5C 419.833,96.8333 414.167,91.1667 409.5,84.5 Z"/></g>
<g><path style="opacity:0.063" fill="#ef2850" d="M 83.5,102.5 C 79.2465,99.5896 75.2465,96.2563 71.5,92.5C 67.4212,96.588 63.0878,100.255 58.5,103.5C 62.479,98.8544 66.8123,94.521 71.5,90.5C 75.8544,94.1877 79.8544,98.1877 83.5,102.5 Z"/></g>
<g><path style="opacity:0.753" fill="#ef2258" d="M 34.5,109.5 C 35.9063,109.973 36.573,110.973 36.5,112.5C 35.0937,112.027 34.427,111.027 34.5,109.5 Z"/></g>
<g><path style="opacity:0.753" fill="#ef2258" d="M 108.5,109.5 C 108.573,111.027 107.906,112.027 106.5,112.5C 106.427,110.973 107.094,109.973 108.5,109.5 Z"/></g>
<g><path style="opacity:1" fill="#3f2a5c" d="M 251.5,111.5 C 260.657,110.489 264.49,114.489 263,123.5C 258,128.833 253,128.833 248,123.5C 246.593,118.643 247.76,114.643 251.5,111.5 Z"/></g>
<g><path style="opacity:0.063" fill="#ef2750" d="M 38.5,114.5 C 40.0269,114.427 41.0269,115.094 41.5,116.5C 39.9731,116.573 38.9731,115.906 38.5,114.5 Z"/></g>
<g><path style="opacity:0.753" fill="#ef215b" d="M 104.5,114.5 C 104.027,115.906 103.027,116.573 101.5,116.5C 101.973,115.094 102.973,114.427 104.5,114.5 Z"/></g>
<g><path style="opacity:0.063" fill="#f2353d" d="M 390.5,120.5 C 391.906,120.973 392.573,121.973 392.5,123.5C 391.094,123.027 390.427,122.027 390.5,120.5 Z"/></g>
<g><path style="opacity:0.063" fill="#ef2750" d="M 23.5,121.5 C 24.9063,121.973 25.573,122.973 25.5,124.5C 24.0937,124.027 23.427,123.027 23.5,121.5 Z"/></g>
<g><path style="opacity:0.063" fill="#ef2750" d="M 119.5,121.5 C 119.573,123.027 118.906,124.027 117.5,124.5C 117.427,122.973 118.094,121.973 119.5,121.5 Z"/></g>
<g><path style="opacity:0.063" fill="#f33939" d="M 487.5,121.5 C 487.573,123.027 486.906,124.027 485.5,124.5C 485.427,122.973 486.094,121.973 487.5,121.5 Z"/></g>
<g><path style="opacity:0.753" fill="#ef2258" d="M 26.5,125.5 C 28.0269,125.427 29.0269,126.094 29.5,127.5C 27.9731,127.573 26.9731,126.906 26.5,125.5 Z"/></g>
<g><path style="opacity:0.063" fill="#ef294e" d="M 116.5,125.5 C 116.027,126.906 115.027,127.573 113.5,127.5C 113.973,126.094 114.973,125.427 116.5,125.5 Z"/></g>
<g><path style="opacity:0.063" fill="#f33939" d="M 403.5,166.5 C 405.027,166.427 406.027,167.094 406.5,168.5C 404.973,168.573 403.973,167.906 403.5,166.5 Z"/></g>
<g><path style="opacity:0.753" fill="#ef2258" d="M 104.5,168.5 C 104.573,170.027 103.906,171.027 102.5,171.5C 102.427,169.973 103.094,168.973 104.5,168.5 Z"/></g>
<g><path style="opacity:0.718" fill="#f53d35" d="M 406.5,168.5 C 407.906,168.973 408.573,169.973 408.5,171.5C 407.094,171.027 406.427,170.027 406.5,168.5 Z"/></g>
<g><path style="opacity:0.718" fill="#f53d35" d="M 392.5,178.5 C 394.027,178.427 395.027,179.094 395.5,180.5C 393.973,180.573 392.973,179.906 392.5,178.5 Z"/></g>
<g><path style="opacity:0.063" fill="#ef2750" d="M 116.5,179.5 C 116.573,181.027 115.906,182.027 114.5,182.5C 114.427,180.973 115.094,179.973 116.5,179.5 Z"/></g>
<g><path style="opacity:1" fill="#3f2a5c" d="M 299.5,183.5 C 308.657,182.489 312.49,186.489 311,195.5C 306,200.833 301,200.833 296,195.5C 294.593,190.643 295.76,186.643 299.5,183.5 Z"/></g>
<g><path style="opacity:0.157" fill="#f8383f" d="M 136.5,250.5 C 135.833,250.5 135.167,250.5 134.5,250.5C 135.167,247.833 135.833,247.833 136.5,250.5 Z"/></g>
<g><path style="opacity:0.206" fill="#f73a3e" d="M 376.5,250.5 C 375.833,250.5 375.167,250.5 374.5,250.5C 375.167,247.833 375.833,247.833 376.5,250.5 Z"/></g>
<g><path style="opacity:0.604" fill="#f43146" d="M 75.5,296.5 C 74.8333,297.833 73.8333,298.833 72.5,299.5C 72.5,297.5 73.5,296.5 75.5,296.5 Z"/></g>
<g><path style="opacity:0.063" fill="#f33939" d="M 101.5,345.5 C 103.027,345.427 104.027,346.094 104.5,347.5C 102.973,347.573 101.973,346.906 101.5,345.5 Z"/></g>
<g><path style="opacity:0.063" fill="#f33939" d="M 341.5,345.5 C 343.027,345.427 344.027,346.094 344.5,347.5C 342.973,347.573 341.973,346.906 341.5,345.5 Z"/></g>
<g><path style="opacity:0.063" fill="#f33939" d="M 87.5,353.5 C 88.9063,353.973 89.573,354.973 89.5,356.5C 88.0937,356.027 87.427,355.027 87.5,353.5 Z"/></g>
<g><path style="opacity:0.063" fill="#f33939" d="M 183.5,353.5 C 183.573,355.027 182.906,356.027 181.5,356.5C 181.427,354.973 182.094,353.973 183.5,353.5 Z"/></g>
<g><path style="opacity:0.718" fill="#f53d35" d="M 90.5,357.5 C 92.0269,357.427 93.0269,358.094 93.5,359.5C 91.9731,359.573 90.9731,358.906 90.5,357.5 Z"/></g>
<g><path style="opacity:1" fill="#3f2a5c" d="M 283.5,463.5 C 292.657,462.489 296.49,466.489 295,475.5C 290,480.833 285,480.833 280,475.5C 278.593,470.643 279.76,466.643 283.5,463.5 Z"/></g>
<g><path style="opacity:0.063" fill="#f3373c" d="M 105.5,508.5 C 106.5,508.833 107.167,509.5 107.5,510.5C 106.167,510.5 105.5,509.833 105.5,508.5 Z"/></g>
</svg>
