<?xml version="1.0" encoding="UTF-8"?>
<!DOCTYPE svg PUBLIC "-//W3C//DTD SVG 1.1//EN" "http://www.w3.org/Graphics/SVG/1.1/DTD/svg11.dtd">
<svg xmlns="http://www.w3.org/2000/svg" version="1.1" width="640px" height="640px" style="shape-rendering:geometricPrecision; text-rendering:geometricPrecision; image-rendering:optimizeQuality; fill-rule:evenodd; clip-rule:evenodd" xmlns:xlink="http://www.w3.org/1999/xlink">
<g><path style="opacity:1" fill="#0c2760" d="M 312.5,24.5 C 317.284,23.8392 321.618,24.8392 325.5,27.5C 351.629,53.4641 377.296,79.9641 402.5,107C 440.167,107.333 477.833,107.667 515.5,108C 521.447,109.613 524.947,113.447 526,119.5C 526.333,158.5 526.667,197.5 527,236.5C 554.058,263.89 580.725,291.556 607,319.5C 609.33,325.526 608.664,331.193 605,336.5C 579.234,361.721 553.234,386.721 527,411.5C 526.667,448.833 526.333,486.167 526,523.5C 524.932,528.235 522.099,531.402 517.5,533C 500.456,533.181 483.456,533.681 466.5,534.5C 444.559,533.49 422.225,533.323 399.5,534C 371.777,561.391 343.777,588.391 315.5,615C 309.131,618.249 303.131,617.582 297.5,613C 272.472,586.64 247.472,560.307 222.5,534C 190.467,533.34 158.967,533.507 128,534.5C 120.913,533.685 113.747,533.185 106.5,533C 102.763,531.719 100.263,529.219 99,525.5C 98.6667,485.5 98.3333,445.5 98,405.5C 75.0995,380.988 51.7662,356.988 28,333.5C 25.036,329.534 21.7026,325.867 18,322.5C 14.4063,316.485 14.9063,310.819 19.5,305.5C 45.8187,280.348 71.9853,255.015 98,229.5C 98.3333,191.833 98.6667,154.167 99,116.5C 100.598,111.901 103.765,109.068 108.5,108C 147.5,107.667 186.5,107.333 225.5,107C 254.422,79.2402 283.422,51.7402 312.5,24.5 Z M 315.5,55.5 C 319.737,58.2281 323.571,61.5615 327,65.5C 347.774,87.9432 368.941,110.11 390.5,132C 427.155,133.261 463.822,133.761 500.5,133.5C 500.792,171.211 500.959,208.878 501,246.5C 526.992,272.659 552.492,299.326 577.5,326.5C 552.208,350.624 527.041,374.957 502,399.5C 501.36,435.737 500.527,471.903 499.5,508C 464.262,508.829 429.095,508.662 394,507.5C 384.689,514.643 375.522,521.977 366.5,529.5C 347.524,548.475 328.19,567.142 308.5,585.5C 306.247,584.747 304.413,583.414 303,581.5C 279.531,556.363 255.698,531.53 231.5,507C 195.859,508.162 160.192,508.662 124.5,508.5C 123.937,472.457 123.77,436.123 124,399.5C 116.352,390.865 109.186,381.865 102.5,372.5C 83.858,353.857 65.5246,334.857 47.5,315.5C 72.1809,290.985 97.0142,266.652 122,242.5C 122.299,229.464 123.132,216.464 124.5,203.5C 123.541,180.183 123.207,156.849 123.5,133.5C 145.503,133.667 167.503,133.5 189.5,133C 206.262,132.495 222.928,131.161 239.5,129C 251.57,114.928 264.904,102.261 279.5,91C 291.395,78.9374 303.395,67.1041 315.5,55.5 Z M 314.5,110.5 C 315.239,110.369 315.906,110.536 316.5,111C 335.914,131.412 355.58,151.412 375.5,171C 404.498,171.5 433.498,171.667 462.5,171.5C 461.694,201.433 461.861,231.766 463,262.5C 483.167,283.333 503.333,304.167 523.5,325C 503.333,344.5 483.167,364 463,383.5C 462.108,412.158 461.608,440.658 461.5,469C 432.608,469.553 403.942,469.886 375.5,470C 352.644,489.416 330.477,509.916 309,531.5C 288.778,510.613 268.612,489.78 248.5,469C 219.84,469.227 191.174,469.393 162.5,469.5C 162.321,443.991 162.654,418.658 163.5,393.5C 163.472,389.764 162.972,386.097 162,382.5C 156.85,376.862 152.183,370.862 148,364.5C 132.163,348.663 116.663,332.496 101.5,316C 121.36,296.806 141.193,277.639 161,258.5C 162.313,229.516 162.813,200.516 162.5,171.5C 193.212,172.07 223.878,171.237 254.5,169C 263.511,157.656 273.844,147.656 285.5,139C 295.367,129.633 305.033,120.133 314.5,110.5 Z M 394.5,266.5 C 403.855,265.753 412.189,268.253 419.5,274C 411.824,275.769 404.157,277.602 396.5,279.5C 395.833,279.167 395.167,278.833 394.5,278.5C 392.971,275.246 391.638,271.913 390.5,268.5C 391.949,267.828 393.282,267.161 394.5,266.5 Z M 317.5,349.5 C 318.167,349.5 318.833,349.5 319.5,349.5C 338.907,351.379 358.24,353.879 377.5,357C 367.773,360.074 358.773,364.574 350.5,370.5C 348.476,372.69 346.643,375.023 345,377.5C 342.678,383.477 339.845,389.143 336.5,394.5C 325.197,381.558 317.863,366.558 314.5,349.5C 315.233,348.913 316.233,348.913 317.5,349.5 Z"/></g>
<g><path style="opacity:1" fill="#0c2760" d="M 314.5,84.5 C 317.311,84.8257 319.978,85.6591 322.5,87C 343.194,108.36 363.861,129.693 384.5,151C 414.833,151.333 445.167,151.667 475.5,152C 478.728,153.563 480.895,156.063 482,159.5C 482.333,190.833 482.667,222.167 483,253.5C 504.698,275.53 526.031,297.864 547,320.5C 547.837,324.295 547.504,327.961 546,331.5C 524.588,351.914 503.588,372.58 483,393.5C 482.667,423.167 482.333,452.833 482,482.5C 480.271,486.785 477.105,489.285 472.5,490C 442.167,490.333 411.833,490.667 381.5,491C 358.837,511.996 336.504,533.33 314.5,555C 310.053,556.813 305.72,556.48 301.5,554C 281.491,532.958 261.491,511.958 241.5,491C 239.722,490.296 237.888,489.796 236,489.5C 207.853,490.646 179.686,490.813 151.5,490C 148.262,489.768 145.762,488.268 144,485.5C 142.681,452.919 142.014,420.252 142,387.5C 120.667,365.5 99.3333,343.5 78,321.5C 75.7162,317.225 76.0495,313.225 79,309.5C 99.9734,289.194 120.973,268.861 142,248.5C 141.713,218.815 142.047,188.815 143,158.5C 143.346,156.152 144.513,154.319 146.5,153C 178.778,151.854 211.111,151.021 243.5,150.5C 265.652,129.515 287.652,108.349 309.5,87C 311.315,86.2432 312.981,85.4098 314.5,84.5 Z M 314.5,110.5 C 305.033,120.133 295.367,129.633 285.5,139C 273.844,147.656 263.511,157.656 254.5,169C 223.878,171.237 193.212,172.07 162.5,171.5C 162.813,200.516 162.313,229.516 161,258.5C 141.193,277.639 121.36,296.806 101.5,316C 116.663,332.496 132.163,348.663 148,364.5C 152.183,370.862 156.85,376.862 162,382.5C 162.972,386.097 163.472,389.764 163.5,393.5C 162.654,418.658 162.321,443.991 162.5,469.5C 191.174,469.393 219.84,469.227 248.5,469C 268.612,489.78 288.778,510.613 309,531.5C 330.477,509.916 352.644,489.416 375.5,470C 403.942,469.886 432.608,469.553 461.5,469C 461.608,440.658 462.108,412.158 463,383.5C 483.167,364 503.333,344.5 523.5,325C 503.333,304.167 483.167,283.333 463,262.5C 461.861,231.766 461.694,201.433 462.5,171.5C 433.498,171.667 404.498,171.5 375.5,171C 355.58,151.412 335.914,131.412 316.5,111C 315.906,110.536 315.239,110.369 314.5,110.5 Z M 394.5,266.5 C 393.282,267.161 391.949,267.828 390.5,268.5C 391.638,271.913 392.971,275.246 394.5,278.5C 395.167,278.833 395.833,279.167 396.5,279.5C 404.157,277.602 411.824,275.769 419.5,274C 412.189,268.253 403.855,265.753 394.5,266.5 Z M 317.5,349.5 C 318.167,349.5 318.833,349.5 319.5,349.5C 338.907,351.379 358.24,353.879 377.5,357C 367.773,360.074 358.773,364.574 350.5,370.5C 348.476,372.69 346.643,375.023 345,377.5C 342.678,383.477 339.845,389.143 336.5,394.5C 325.197,381.558 317.863,366.558 314.5,349.5C 315.233,348.913 316.233,348.913 317.5,349.5 Z"/></g>
<g><path style="opacity:1" fill="#192a61" d="M 351.5,193.5 C 349.381,193.468 348.048,194.468 347.5,196.5C 335.151,202.672 323.151,209.338 311.5,216.5C 310.833,215.833 310.167,215.167 309.5,214.5C 311.154,209.692 313.488,205.192 316.5,201C 329.181,192.997 342.347,185.83 356,179.5C 356.5,180 357,180.5 357.5,181C 355.401,185.136 353.401,189.303 351.5,193.5 Z"/></g>
<g><path style="opacity:1" fill="#132960" d="M 382.5,248.5 C 382.158,247.662 381.492,247.328 380.5,247.5C 380.841,242.808 382.341,238.474 385,234.5C 392.795,228.373 400.295,221.873 407.5,215C 404.216,213.604 402.549,211.104 402.5,207.5C 403.57,200.79 405.737,194.457 409,188.5C 414.495,182.586 420.161,182.252 426,187.5C 425.581,197.097 422.914,206.097 418,214.5C 407.26,227.075 395.427,238.409 382.5,248.5 Z"/></g>
<g><path style="opacity:1" fill="#9f7542" d="M 351.5,193.5 C 350.738,195.262 349.404,196.262 347.5,196.5C 348.048,194.468 349.381,193.468 351.5,193.5 Z"/></g>
<g><path style="opacity:1" fill="#d2c48b" d="M 280.5,199.5 C 281.623,198.243 282.289,198.576 282.5,200.5C 281.833,200.167 281.167,199.833 280.5,199.5 Z"/></g>
<g><path style="opacity:1" fill="#112860" d="M 280.5,199.5 C 281.167,199.833 281.833,200.167 282.5,200.5C 295.9,239.159 305.233,278.826 310.5,319.5C 312.577,316.626 315.244,314.459 318.5,313C 337.5,304.167 356.5,295.333 375.5,286.5C 377.655,271.698 382.989,258.198 391.5,246C 408.115,237.019 422.948,239.519 436,253.5C 438,256.833 440,260.167 442,263.5C 442.577,267.888 442.244,272.221 441,276.5C 437.727,282.712 434.727,289.046 432,295.5C 430.59,296.787 429.09,297.954 427.5,299C 420.163,300.9 412.829,302.733 405.5,304.5C 406.428,305.768 406.595,307.101 406,308.5C 402.59,316.319 398.923,323.986 395,331.5C 391.263,323.457 387.43,315.457 383.5,307.5C 368.678,311.413 354.678,317.246 341.5,325C 383.321,329.582 424.488,337.416 465,348.5C 462.7,357.376 459.2,365.876 454.5,374C 426.171,374.099 398.171,377.099 370.5,383C 363.266,385.078 356.266,387.744 349.5,391C 347.376,393.408 347.543,395.908 350,398.5C 353.083,403.588 356.917,408.088 361.5,412C 370.346,415.924 379.012,420.091 387.5,424.5C 386.167,425.5 386.167,426.5 387.5,427.5C 387.34,429.153 386.674,430.486 385.5,431.5C 383.895,432.006 383.561,432.673 384.5,433.5C 382.346,438.479 380.179,443.479 378,448.5C 377.107,449.081 376.107,449.415 375,449.5C 369.62,448.262 364.453,446.429 359.5,444C 350.669,438.083 341.669,432.417 332.5,427C 315.823,411.818 305.823,392.985 302.5,370.5C 304.981,369.14 304.648,368.14 301.5,367.5C 301.728,365.645 301.061,364.812 299.5,365C 277.819,388.511 251.153,403.178 219.5,409C 211.833,409.667 204.167,409.667 196.5,409C 192.578,408.526 188.912,407.359 185.5,405.5C 186.504,403.323 185.838,402.989 183.5,404.5C 181.566,403.89 179.899,402.89 178.5,401.5C 178.5,400.167 177.833,399.5 176.5,399.5C 175.5,399.167 174.833,398.5 174.5,397.5C 174.5,396.167 173.833,395.5 172.5,395.5C 167.993,390.464 165.659,384.464 165.5,377.5C 171.406,342.658 189.073,315.658 218.5,296.5C 218.833,297.5 219.5,298.167 220.5,298.5C 217.164,305.838 213.831,313.171 210.5,320.5C 209.5,320.833 208.833,321.5 208.5,322.5C 203.858,326.136 199.191,329.803 194.5,333.5C 192.5,333.5 191.5,334.5 191.5,336.5C 186.77,341.617 182.27,346.95 178,352.5C 178.979,369.822 188.146,379.989 205.5,383C 237.488,384.671 265.822,375.337 290.5,355C 293.716,352.415 296.383,349.415 298.5,346C 294.943,316.048 289.276,286.548 281.5,257.5C 283.031,256.075 282.698,255.409 280.5,255.5C 277.5,245.499 274.5,235.499 271.5,225.5C 271.758,223.19 271.758,221.19 271.5,219.5C 274.006,212.497 277.006,205.83 280.5,199.5 Z M 394.5,266.5 C 393.282,267.161 391.949,267.828 390.5,268.5C 391.638,271.913 392.971,275.246 394.5,278.5C 395.167,278.833 395.833,279.167 396.5,279.5C 404.157,277.602 411.824,275.769 419.5,274C 412.189,268.253 403.855,265.753 394.5,266.5 Z M 317.5,349.5 C 318.167,349.5 318.833,349.5 319.5,349.5C 338.907,351.379 358.24,353.879 377.5,357C 367.773,360.074 358.773,364.574 350.5,370.5C 348.476,372.69 346.643,375.023 345,377.5C 342.678,383.477 339.845,389.143 336.5,394.5C 325.197,381.558 317.863,366.558 314.5,349.5C 315.233,348.913 316.233,348.913 317.5,349.5 Z"/></g>
<g><path style="opacity:1" fill="#162960" d="M 325.5,231.5 C 327.698,231.591 328.031,230.925 326.5,229.5C 327.146,225.203 328.646,221.203 331,217.5C 332.498,220.967 333.498,224.634 334,228.5C 334.697,230.584 335.864,232.251 337.5,233.5C 337.326,231.139 336.993,228.806 336.5,226.5C 337.833,225.5 337.833,224.5 336.5,223.5C 338.048,219.402 339.881,215.402 342,211.5C 343.718,215.319 345.051,219.319 346,223.5C 346.513,222.473 347.013,221.473 347.5,220.5C 349.677,221.504 350.011,220.838 348.5,218.5C 348.953,214.973 350.453,211.973 353,209.5C 360.773,222.141 359.939,234.307 350.5,246C 347.503,246.755 345.003,245.922 343,243.5C 341.143,249.178 337.309,251.345 331.5,250C 327.425,244.54 325.425,238.373 325.5,231.5 Z"/></g>
<g><path style="opacity:1" fill="#947b5a" d="M 309.5,214.5 C 310.167,215.167 310.833,215.833 311.5,216.5C 310.791,217.404 309.791,217.737 308.5,217.5C 308.263,216.209 308.596,215.209 309.5,214.5 Z"/></g>
<g><path style="opacity:1" fill="#a1712e" d="M 348.5,218.5 C 350.011,220.838 349.677,221.504 347.5,220.5C 347.328,219.508 347.662,218.842 348.5,218.5 Z"/></g>
<g><path style="opacity:1" fill="#9d8257" d="M 271.5,219.5 C 271.758,221.19 271.758,223.19 271.5,225.5C 269.269,223.358 269.269,221.358 271.5,219.5 Z"/></g>
<g><path style="opacity:1" fill="#c69b6e" d="M 336.5,223.5 C 337.833,224.5 337.833,225.5 336.5,226.5C 335.167,225.5 335.167,224.5 336.5,223.5 Z"/></g>
<g><path style="opacity:1" fill="#b4985d" d="M 326.5,229.5 C 328.031,230.925 327.698,231.591 325.5,231.5C 325.328,230.508 325.662,229.842 326.5,229.5 Z"/></g>
<g><path style="opacity:1" fill="#b2a28b" d="M 380.5,247.5 C 381.492,247.328 382.158,247.662 382.5,248.5C 379.811,251.374 379.144,251.041 380.5,247.5 Z"/></g>
<g><path style="opacity:1" fill="#c8a579" d="M 280.5,255.5 C 282.698,255.409 283.031,256.075 281.5,257.5C 280.662,257.158 280.328,256.492 280.5,255.5 Z"/></g>
<g><path style="opacity:1" fill="#b4a070" d="M 218.5,296.5 C 219.833,296.5 220.5,297.167 220.5,298.5C 219.5,298.167 218.833,297.5 218.5,296.5 Z"/></g>
<g><path style="opacity:1" fill="#182a61" d="M 220.5,360.5 C 218.784,360.629 217.117,360.962 215.5,361.5C 216.839,356.992 218.672,352.658 221,348.5C 230.951,341.551 240.617,334.217 250,326.5C 249.422,323.749 248.589,320.916 247.5,318C 248.645,310.386 251.645,303.72 256.5,298C 262.761,296.922 266.094,299.589 266.5,306C 265.997,309.009 264.997,311.842 263.5,314.5C 265.453,315.761 267.453,316.927 269.5,318C 267.638,323.102 265.304,327.935 262.5,332.5C 260.669,331.071 258.669,330.571 256.5,331C 245.804,342.502 233.804,352.336 220.5,360.5 Z"/></g>
<g><path style="opacity:1" fill="#d7b88a" d="M 210.5,320.5 C 210.5,321.833 209.833,322.5 208.5,322.5C 208.833,321.5 209.5,320.833 210.5,320.5 Z"/></g>
<g><path style="opacity:1" fill="#9e775f" d="M 194.5,333.5 C 193.833,334.833 192.833,335.833 191.5,336.5C 191.5,334.5 192.5,333.5 194.5,333.5 Z"/></g>
<g><path style="opacity:1" fill="#be9b68" d="M 319.5,349.5 C 318.833,349.5 318.167,349.5 317.5,349.5C 318.548,347.067 319.214,347.067 319.5,349.5 Z"/></g>
<g><path style="opacity:1" fill="#846545" d="M 220.5,360.5 C 219.594,361.965 218.261,362.965 216.5,363.5C 215.702,363.043 215.369,362.376 215.5,361.5C 217.117,360.962 218.784,360.629 220.5,360.5 Z"/></g>
<g><path style="opacity:1" fill="#a87541" d="M 301.5,367.5 C 304.648,368.14 304.981,369.14 302.5,370.5C 301.89,369.609 301.557,368.609 301.5,367.5 Z"/></g>
<g><path style="opacity:1" fill="#a27946" d="M 172.5,395.5 C 173.833,395.5 174.5,396.167 174.5,397.5C 173.5,397.167 172.833,396.5 172.5,395.5 Z"/></g>
<g><path style="opacity:1" fill="#a88048" d="M 176.5,399.5 C 177.833,399.5 178.5,400.167 178.5,401.5C 177.5,401.167 176.833,400.5 176.5,399.5 Z"/></g>
<g><path style="opacity:1" fill="#b78855" d="M 185.5,405.5 C 184.508,405.672 183.842,405.338 183.5,404.5C 185.838,402.989 186.504,403.323 185.5,405.5 Z"/></g>
<g><path style="opacity:1" fill="#b3956b" d="M 387.5,424.5 C 388.833,425.5 388.833,426.5 387.5,427.5C 386.167,426.5 386.167,425.5 387.5,424.5 Z"/></g>
<g><path style="opacity:1" fill="#ad966a" d="M 385.5,431.5 C 385.672,432.492 385.338,433.158 384.5,433.5C 383.561,432.673 383.895,432.006 385.5,431.5 Z"/></g>
<g><path style="opacity:1" fill="#c9ccca" d="M 128.5,541.5 C 129.833,542.167 129.833,542.167 128.5,541.5 Z"/></g>
<g><path style="opacity:1" fill="#c9ccca" d="M 448.5,541.5 C 449.833,542.167 449.833,542.167 448.5,541.5 Z"/></g>
<g><path style="opacity:1" fill="#c8c9c8" d="M 122.5,552.5 C 123.833,553.167 123.833,553.167 122.5,552.5 Z"/></g>
<g><path style="opacity:1" fill="#c8c9c8" d="M 442.5,552.5 C 443.833,553.167 443.833,553.167 442.5,552.5 Z"/></g>
</svg>
