<?xml version="1.0" encoding="UTF-8"?>
<!DOCTYPE svg PUBLIC "-//W3C//DTD SVG 1.1//EN" "http://www.w3.org/Graphics/SVG/1.1/DTD/svg11.dtd">
<svg xmlns="http://www.w3.org/2000/svg" version="1.1" width="174px" height="155px" style="shape-rendering:geometricPrecision; text-rendering:geometricPrecision; image-rendering:optimizeQuality; fill-rule:evenodd; clip-rule:evenodd" xmlns:xlink="http://www.w3.org/1999/xlink">
<g><path style="opacity:1" fill="#fefefd" d="M -0.5,-0.5 C 57.5,-0.5 115.5,-0.5 173.5,-0.5C 173.5,51.1667 173.5,102.833 173.5,154.5C 115.5,154.5 57.5,154.5 -0.5,154.5C -0.5,102.833 -0.5,51.1667 -0.5,-0.5 Z"/></g>
<g><path style="opacity:1" fill="#706771" d="M 96.5,10.5 C 95.157,13.6729 93.157,14.1729 90.5,12C 91.056,11.6174 91.3893,11.1174 91.5,10.5C 93.0992,9.43795 94.7659,9.43795 96.5,10.5 Z"/></g>
<g><path style="opacity:1" fill="#1f1827" d="M 80.5,13.5 C 87.1466,17.5957 93.1466,21.0957 98.5,24C 99.9308,24.4652 101.097,25.2986 102,26.5C 102.333,26.1667 102.667,25.8333 103,25.5C 104.209,27.1835 105.709,28.5168 107.5,29.5C 107.167,30.5 106.5,31.1667 105.5,31.5C 103.771,30.8825 102.271,29.8825 101,28.5C 99.4931,29.5348 97.9931,29.3681 96.5,28C 96.8333,27.6667 97.1667,27.3333 97.5,27C 96.0692,26.5348 94.9025,25.7014 94,24.5C 93.0228,25.7736 92.1894,25.7736 91.5,24.5C 90.6082,21.7079 88.6082,20.3746 85.5,20.5C 84.603,19.4019 83.7697,19.4019 83,20.5C 82.3005,18.968 81.1338,17.968 79.5,17.5C 78.6143,16.675 78.281,15.675 78.5,14.5C 78.8417,13.6618 79.5084,13.3284 80.5,13.5 Z"/></g>
<g><path style="opacity:1" fill="#0b2660" d="M 85.5,20.5 C 88.6082,20.3746 90.6082,21.7079 91.5,24.5C 90.8333,24.5 90.1667,24.5 89.5,24.5C 88.6304,22.7263 87.297,21.393 85.5,20.5 Z"/></g>
<g><path style="opacity:1" fill="#9d8d73" d="M 87.5,9.5 C 88.1667,12.1667 88.8333,12.1667 89.5,9.5C 90.1667,9.83333 90.8333,10.1667 91.5,10.5C 91.3893,11.1174 91.056,11.6174 90.5,12C 93.157,14.1729 95.157,13.6729 96.5,10.5C 100.063,12.2914 103.23,14.6247 106,17.5C 107.266,21.3951 107.766,25.3951 107.5,29.5C 105.709,28.5168 104.209,27.1835 103,25.5C 102.667,25.8333 102.333,26.1667 102,26.5C 101.097,25.2986 99.9308,24.4652 98.5,24C 93.1466,21.0957 87.1466,17.5957 80.5,13.5C 82.3904,11.4224 84.7238,10.0891 87.5,9.5 Z"/></g>
<g><path style="opacity:1" fill="#0b2660" d="M 87.5,9.5 C 88.1667,9.5 88.8333,9.5 89.5,9.5C 88.8333,12.1667 88.1667,12.1667 87.5,9.5 Z"/></g>
<g><path style="opacity:1" fill="#282032" d="M 103.5,35.5 C 102.833,35.5 102.5,35.8333 102.5,36.5C 101.778,36.0825 101.278,35.4158 101,34.5C 98.2656,37.2926 97.2656,36.9593 98,33.5C 97.586,33.9574 97.086,34.2907 96.5,34.5C 95.147,33.3147 93.9803,31.9814 93,30.5C 91.6081,32.8418 90.7748,32.8418 90.5,30.5C 91.4734,30.0133 92.4734,29.5133 93.5,29C 92.3044,28.3457 92.3044,27.8457 93.5,27.5C 97.1622,29.8367 100.495,32.5033 103.5,35.5 Z"/></g>
<g><path style="opacity:1" fill="#ab916e" d="M 78.5,14.5 C 78.281,15.675 78.6143,16.675 79.5,17.5C 81.1338,17.968 82.3005,18.968 83,20.5C 83.7697,19.4019 84.603,19.4019 85.5,20.5C 87.297,21.393 88.6304,22.7263 89.5,24.5C 90.1667,24.5 90.8333,24.5 91.5,24.5C 92.1894,25.7736 93.0228,25.7736 94,24.5C 94.9025,25.7014 96.0692,26.5348 97.5,27C 97.1667,27.3333 96.8333,27.6667 96.5,28C 97.9931,29.3681 99.4931,29.5348 101,28.5C 102.271,29.8825 103.771,30.8825 105.5,31.5C 105.011,32.9952 104.345,34.3285 103.5,35.5C 100.495,32.5033 97.1622,29.8367 93.5,27.5C 92.3044,27.8457 92.3044,28.3457 93.5,29C 92.4734,29.5133 91.4734,30.0133 90.5,30.5C 88.8762,30.6399 87.7096,29.9733 87,28.5C 83.9821,29.0278 81.1488,30.0278 78.5,31.5C 77.914,31.2907 77.414,30.9574 77,30.5C 75.9805,31.6872 74.8139,32.6872 73.5,33.5C 72.7025,33.0431 72.3691,32.3764 72.5,31.5C 71.6857,29.7274 70.3524,29.2274 68.5,30C 70.4812,30.6054 70.8146,31.6054 69.5,33C 70.0944,33.4643 70.7611,33.631 71.5,33.5C 71.5,33.8333 71.5,34.1667 71.5,34.5C 69.9731,34.427 68.9731,35.0937 68.5,36.5C 67.1779,36.33 66.0113,36.6634 65,37.5C 64.1881,41.6888 64.3547,45.6888 65.5,49.5C 61.3904,57.396 57.0571,65.0627 52.5,72.5C 51.325,72.281 50.325,72.6143 49.5,73.5C 48.9851,75.2251 48.3184,76.8917 47.5,78.5C 44.7852,76.7357 41.7852,75.7357 38.5,75.5C 38.3398,77.1992 38.5065,78.8659 39,80.5C 41.5308,82.9646 43.0308,85.9646 43.5,89.5C 43.5938,87.7612 43.7605,85.7612 44,83.5C 44.9745,85.8776 45.6411,85.5443 46,82.5C 47.0437,83.6226 47.7104,84.9559 48,86.5C 48.3333,84.5 48.6667,82.5 49,80.5C 49.8447,82.6115 50.678,84.6115 51.5,86.5C 52.4487,94.4747 53.1153,102.475 53.5,110.5C 53.5,110.833 53.5,111.167 53.5,111.5C 52.6618,111.842 52.3284,112.508 52.5,113.5C 48.3487,114.647 46.0154,117.314 45.5,121.5C 44.596,120.791 44.2627,119.791 44.5,118.5C 43.1667,118.5 41.8333,118.5 40.5,118.5C 37.1194,118.54 33.7861,118.207 30.5,117.5C 30.573,115.973 29.9063,114.973 28.5,114.5C 27.1667,113.167 25.8333,111.833 24.5,110.5C 24.1667,110.5 23.8333,110.5 23.5,110.5C 21.8304,107.998 19.6637,105.998 17,104.5C 16.0523,85.7811 16.3857,67.1144 18,48.5C 23.1512,37.4824 31.3178,30.4824 42.5,27.5C 43.086,27.7093 43.586,28.0426 44,28.5C 47.983,26.8968 52.1496,26.2302 56.5,26.5C 55.537,27.3635 55.537,28.0302 56.5,28.5C 57.2975,28.0431 57.6309,27.3764 57.5,26.5C 66.4015,25.9524 73.4015,21.9524 78.5,14.5 Z"/></g>
<g><path style="opacity:1" fill="#0b2660" d="M 35.5,32.5 C 36.7733,33.0768 36.7733,33.7435 35.5,34.5C 34.537,34.0302 34.537,33.3635 35.5,32.5 Z"/></g>
<g><path style="opacity:1" fill="#6c5b5c" d="M 72.5,31.5 C 71.6618,31.8417 71.3284,32.5084 71.5,33.5C 70.7611,33.631 70.0944,33.4643 69.5,33C 70.8146,31.6054 70.4812,30.6054 68.5,30C 70.3524,29.2274 71.6857,29.7274 72.5,31.5 Z"/></g>
<g><path style="opacity:1" fill="#0b2660" d="M 56.5,26.5 C 56.8333,26.5 57.1667,26.5 57.5,26.5C 57.6309,27.3764 57.2975,28.0431 56.5,28.5C 55.537,28.0302 55.537,27.3635 56.5,26.5 Z"/></g>
<g><path style="opacity:1" fill="#292039" d="M 89.5,24.5 C 89.6309,25.3764 89.2975,26.0431 88.5,26.5C 81.5343,25.4758 74.5343,25.3092 67.5,26C 70.7852,24.3704 74.1185,23.8704 77.5,24.5C 79.572,22.567 81.9053,22.567 84.5,24.5C 86.0026,23.9478 87.6693,23.9478 89.5,24.5 Z"/></g>
<g><path style="opacity:1" fill="#0b2660" d="M 68.5,36.5 C 68.6655,40.5138 68.4988,44.5138 68,48.5C 67.3292,49.2524 66.4959,49.5858 65.5,49.5C 64.3547,45.6888 64.1881,41.6888 65,37.5C 66.0113,36.6634 67.1779,36.33 68.5,36.5 Z"/></g>
<g><path style="opacity:1" fill="#f7cbba" d="M 90.5,30.5 C 90.7748,32.8418 91.6081,32.8418 93,30.5C 93.9803,31.9814 95.147,33.3147 96.5,34.5C 97.086,34.2907 97.586,33.9574 98,33.5C 97.2656,36.9593 98.2656,37.2926 101,34.5C 101.278,35.4158 101.778,36.0825 102.5,36.5C 96.9306,40.1269 91.9306,44.4602 87.5,49.5C 84.4337,50.7998 81.2671,51.7998 78,52.5C 74.8569,51.4307 72.5236,49.4307 71,46.5C 70.845,42.5846 71.345,38.7512 72.5,35C 72.2716,34.6012 71.9382,34.4346 71.5,34.5C 71.5,34.1667 71.5,33.8333 71.5,33.5C 71.3284,32.5084 71.6618,31.8417 72.5,31.5C 72.3691,32.3764 72.7025,33.0431 73.5,33.5C 74.8139,32.6872 75.9805,31.6872 77,30.5C 77.414,30.9574 77.914,31.2907 78.5,31.5C 81.1488,30.0278 83.9821,29.0278 87,28.5C 87.7096,29.9733 88.8762,30.6399 90.5,30.5 Z"/></g>
<g><path style="opacity:1" fill="#0b2660" d="M 61.5,47.5 C 62.7122,49.2637 62.3788,50.9303 60.5,52.5C 60.1667,52.3333 59.8333,52.1667 59.5,52C 60.5822,50.6703 61.2488,49.1703 61.5,47.5 Z"/></g>
<g><path style="opacity:1" fill="#0b2660" d="M 48.5,50.5 C 49.7733,51.0768 49.7733,51.7435 48.5,52.5C 47.537,52.0302 47.537,51.3635 48.5,50.5 Z"/></g>
<g><path style="opacity:1" fill="#0b2660" d="M 23.5,53.5 C 25.0179,55.6807 26.0179,58.1807 26.5,61C 26.1667,61.5 25.8333,62 25.5,62.5C 24.0678,59.6727 23.4012,56.6727 23.5,53.5 Z"/></g>
<g><path style="opacity:1" fill="#493944" d="M 55.5,60.5 C 56.0621,56.9723 57.7287,54.9723 60.5,54.5C 59.1936,55.9122 58.3603,57.5789 58,59.5C 57.3292,60.2524 56.4959,60.5858 55.5,60.5 Z"/></g>
<g><path style="opacity:1" fill="#0b2660" d="M 45.5,59.5 C 44.537,58.6365 44.537,57.9698 45.5,57.5C 46.7733,58.2565 46.7733,58.9232 45.5,59.5 Z"/></g>
<g><path style="opacity:1" fill="#0b2660" d="M 18.5,58.5 C 19.3875,61.4833 20.0542,64.6499 20.5,68C 20.1667,68.8333 19.8333,69.6667 19.5,70.5C 18.5091,66.5546 18.1758,62.5546 18.5,58.5 Z"/></g>
<g><path style="opacity:1" fill="#1c2452" d="M 45.5,59.5 C 45.4894,61.6859 44.4894,62.5192 42.5,62C 43.0779,60.583 44.0779,59.7496 45.5,59.5 Z"/></g>
<g><path style="opacity:1" fill="#0b2660" d="M 55.5,60.5 C 56.5009,61.7887 56.3342,63.1221 55,64.5C 53.4658,63.1195 53.6325,61.7861 55.5,60.5 Z"/></g>
<g><path style="opacity:1" fill="#0b2660" d="M 25.5,63.5 C 27.337,63.6395 27.6704,64.3061 26.5,65.5C 25.7025,65.0431 25.3691,64.3764 25.5,63.5 Z"/></g>
<g><path style="opacity:1" fill="#0b2660" d="M 40.5,65.5 C 41.2389,65.369 41.9056,65.5357 42.5,66C 41.2921,68.2503 39.9587,70.417 38.5,72.5C 38.1667,72.3333 37.8333,72.1667 37.5,72C 38.914,70.0065 39.914,67.8398 40.5,65.5 Z"/></g>
<g><path style="opacity:1" fill="#2c2239" d="M 26.5,66.5 C 27.3764,66.3691 28.0431,66.7025 28.5,67.5C 29.0736,69.0589 29.7402,70.5589 30.5,72C 28.1559,71.235 26.8225,69.4017 26.5,66.5 Z"/></g>
<g><path style="opacity:1" fill="#0b2660" d="M 20.5,73.5 C 21.844,75.1849 21.6773,76.8516 20,78.5C 19.3603,76.735 19.5269,75.0683 20.5,73.5 Z"/></g>
<g><path style="opacity:1" fill="#0b2660" d="M 30.5,76.5 C 31.0768,75.2267 31.7435,75.2267 32.5,76.5C 33.3256,77.451 33.4922,78.451 33,79.5C 32.1482,78.4293 31.3149,77.4293 30.5,76.5 Z"/></g>
<g><path style="opacity:1" fill="#f0c8b1" d="M 52.5,72.5 C 52.5628,77.2029 52.2295,81.8696 51.5,86.5C 50.678,84.6115 49.8447,82.6115 49,80.5C 48.6667,82.5 48.3333,84.5 48,86.5C 47.7104,84.9559 47.0437,83.6226 46,82.5C 45.6411,85.5443 44.9745,85.8776 44,83.5C 43.7605,85.7612 43.5938,87.7612 43.5,89.5C 43.0308,85.9646 41.5308,82.9646 39,80.5C 38.5065,78.8659 38.3398,77.1992 38.5,75.5C 41.7852,75.7357 44.7852,76.7357 47.5,78.5C 48.3184,76.8917 48.9851,75.2251 49.5,73.5C 50.325,72.6143 51.325,72.281 52.5,72.5 Z"/></g>
<g><path style="opacity:1" fill="#0b2660" d="M 20.5,80.5 C 21.5862,80.62 22.2528,81.2867 22.5,82.5C 22.1667,83.1667 21.8333,83.8333 21.5,84.5C 20.5713,83.3112 20.238,81.9778 20.5,80.5 Z"/></g>
<g><path style="opacity:1" fill="#0b2660" d="M 21.5,86.5 C 22.3764,86.3691 23.0431,86.7025 23.5,87.5C 21.9929,91.3548 21.3262,91.0214 21.5,86.5 Z"/></g>
<g><path style="opacity:1" fill="#0b2660" d="M 22.5,91.5 C 23.6491,91.7911 24.3158,92.6244 24.5,94C 25.3319,96.4783 25.4986,98.9783 25,101.5C 23.8497,98.2321 23.0164,94.8988 22.5,91.5 Z"/></g>
<g><path style="opacity:1" fill="#0b2660" d="M 53.5,111.5 C 83.5074,111.167 113.507,111.5 143.5,112.5C 146.657,122.796 149.657,133.129 152.5,143.5C 107.167,144.833 61.8333,144.833 16.5,143.5C 16.5,143.167 16.5,142.833 16.5,142.5C 21.0117,133.467 25.0117,124.134 28.5,114.5C 29.9063,114.973 30.573,115.973 30.5,117.5C 29.9003,120.999 29.2337,124.499 28.5,128C 28.6251,129.627 29.1251,131.127 30,132.5C 34.4084,135.91 39.0751,138.91 44,141.5C 48.2701,139.719 51.1034,137.052 52.5,133.5C 49.086,131.043 45.586,128.709 42,126.5C 40.7475,123.986 40.2475,121.32 40.5,118.5C 41.8333,118.5 43.1667,118.5 44.5,118.5C 44.2627,119.791 44.596,120.791 45.5,121.5C 45.9528,122.458 46.6195,123.292 47.5,124C 53.518,124.988 59.3514,124.488 65,122.5C 65.1805,120.512 65.0138,118.512 64.5,116.5C 61.1501,116.665 57.8168,116.498 54.5,116C 53.6195,115.292 52.9528,114.458 52.5,113.5C 52.3284,112.508 52.6618,111.842 53.5,111.5 Z"/></g>
<g><path style="opacity:1" fill="#e7dec7" d="M 23.5,110.5 C 23.8333,110.5 24.1667,110.5 24.5,110.5C 24.2381,112.564 23.0714,113.897 21,114.5C 19.4593,120.288 17.9593,125.788 16.5,131C 17.1667,132.333 18.1667,133.333 19.5,134C 18.0325,135.098 17.1992,136.598 17,138.5C 14.1697,135.778 12.3363,136.445 11.5,140.5C 12.1301,143.647 13.7968,144.313 16.5,142.5C 16.5,142.833 16.5,143.167 16.5,143.5C 15.6618,143.842 15.3284,144.508 15.5,145.5C 12.7531,145.813 10.0865,145.48 7.5,144.5C 10.2735,133.175 14.6068,122.508 20.5,112.5C 21.6016,111.824 22.6016,111.158 23.5,110.5 Z"/></g>
<g><path style="opacity:1" fill="#eec4ae" d="M 30.5,117.5 C 33.7861,118.207 37.1194,118.54 40.5,118.5C 40.2475,121.32 40.7475,123.986 42,126.5C 45.586,128.709 49.086,131.043 52.5,133.5C 51.1034,137.052 48.2701,139.719 44,141.5C 39.0751,138.91 34.4084,135.91 30,132.5C 29.1251,131.127 28.6251,129.627 28.5,128C 29.2337,124.499 29.9003,120.999 30.5,117.5 Z"/></g>
<g><path style="opacity:1" fill="#f0c5ae" d="M 52.5,113.5 C 52.9528,114.458 53.6195,115.292 54.5,116C 57.8168,116.498 61.1501,116.665 64.5,116.5C 65.0138,118.512 65.1805,120.512 65,122.5C 59.3514,124.488 53.518,124.988 47.5,124C 46.6195,123.292 45.9528,122.458 45.5,121.5C 46.0154,117.314 48.3487,114.647 52.5,113.5 Z"/></g>
<g><path style="opacity:1" fill="#e5d7b1" d="M 24.5,110.5 C 25.8333,111.833 27.1667,113.167 28.5,114.5C 25.0117,124.134 21.0117,133.467 16.5,142.5C 13.7968,144.313 12.1301,143.647 11.5,140.5C 12.3363,136.445 14.1697,135.778 17,138.5C 17.1992,136.598 18.0325,135.098 19.5,134C 18.1667,133.333 17.1667,132.333 16.5,131C 17.9593,125.788 19.4593,120.288 21,114.5C 23.0714,113.897 24.2381,112.564 24.5,110.5 Z"/></g>
<g><path style="opacity:1" fill="#e4dabf" d="M 53.5,111.5 C 53.5,111.167 53.5,110.833 53.5,110.5C 86.1824,110.218 118.849,110.551 151.5,111.5C 151.435,114.486 152.602,116.82 155,118.5C 156.991,127.307 159.491,135.974 162.5,144.5C 159.572,145.484 156.572,145.817 153.5,145.5C 153.672,144.508 153.338,143.842 152.5,143.5C 149.657,133.129 146.657,122.796 143.5,112.5C 113.507,111.5 83.5074,111.167 53.5,111.5 Z"/></g>
<g><path style="opacity:1" fill="#a59c86" d="M 16.5,143.5 C 61.8333,144.833 107.167,144.833 152.5,143.5C 153.338,143.842 153.672,144.508 153.5,145.5C 107.5,145.5 61.5,145.5 15.5,145.5C 15.3284,144.508 15.6618,143.842 16.5,143.5 Z"/></g>
</svg>
