<?xml version="1.0" encoding="UTF-8"?>
<!DOCTYPE svg PUBLIC "-//W3C//DTD SVG 1.1//EN" "http://www.w3.org/Graphics/SVG/1.1/DTD/svg11.dtd">
<svg xmlns="http://www.w3.org/2000/svg" version="1.1" width="904px" height="800px" style="shape-rendering:geometricPrecision; text-rendering:geometricPrecision; image-rendering:optimizeQuality; fill-rule:evenodd; clip-rule:evenodd" xmlns:xlink="http://www.w3.org/1999/xlink">
<g><path style="opacity:1" fill="#fdfdf9" d="M -0.5,-0.5 C 300.833,-0.5 602.167,-0.5 903.5,-0.5C 903.5,266.167 903.5,532.833 903.5,799.5C 801.167,799.5 698.833,799.5 596.5,799.5C 591.684,798.674 586.684,798.174 581.5,798C 636.002,797.833 690.335,797.333 744.5,796.5C 754.176,792.808 757.01,786.142 753,776.5C 750.559,774.031 747.726,772.198 744.5,771C 722.836,770.5 701.169,770.333 679.5,770.5C 679.667,700.166 679.5,629.833 679,559.5C 677.839,553.874 677.006,548.207 676.5,542.5C 676.889,539.447 676.223,536.78 674.5,534.5C 665.915,485.711 657.248,437.044 648.5,388.5C 648.192,384.64 647.525,380.974 646.5,377.5C 646.035,371.706 645.035,366.039 643.5,360.5C 643.58,357.219 642.913,354.219 641.5,351.5C 641.741,349.102 641.074,347.102 639.5,345.5C 636.65,336.119 631.817,327.785 625,320.5C 618.731,314.301 611.898,308.968 604.5,304.5C 603.313,302.025 601.313,301.025 598.5,301.5C 596.847,301.34 595.514,300.674 594.5,299.5C 594.027,298.094 593.027,297.427 591.5,297.5C 587.167,295.5 582.833,293.5 578.5,291.5C 578.027,290.094 577.027,289.427 575.5,289.5C 545.117,275.143 514.783,260.476 484.5,245.5C 485.754,242.907 487.42,240.573 489.5,238.5C 495.587,231.403 500.921,223.737 505.5,215.5C 509.514,215.666 513.514,215.499 517.5,215C 518.737,214.768 519.737,214.268 520.5,213.5C 547.033,204.483 559.033,185.816 556.5,157.5C 556.59,154.848 555.924,152.515 554.5,150.5C 549.607,138.941 541.607,130.275 530.5,124.5C 530.666,117.159 530.5,109.826 530,102.5C 529.943,99.1489 529.109,96.1489 527.5,93.5C 519.391,58.5663 499.057,33.7329 466.5,19C 455.694,14.7195 444.694,11.5528 433.5,9.5C 429.681,8.83443 425.681,8.5011 421.5,8.5C 415.902,8.27624 410.569,8.94291 405.5,10.5C 369.436,16.3877 342.603,35.3877 325,67.5C 321.996,74.3454 319.496,81.3454 317.5,88.5C 316.883,88.6107 316.383,88.944 316,89.5C 315.505,91.4727 315.338,93.4727 315.5,95.5C 314.631,97.717 314.298,100.05 314.5,102.5C 313.732,103.263 313.232,104.263 313,105.5C 312.5,112.158 312.334,118.825 312.5,125.5C 302.78,130.553 295.447,137.886 290.5,147.5C 289.326,148.514 288.66,149.847 288.5,151.5C 288.5,151.833 288.5,152.167 288.5,152.5C 287.076,154.515 286.41,156.848 286.5,159.5C 285.192,178.059 291.525,193.559 305.5,206C 310.699,209.6 316.365,212.1 322.5,213.5C 327.141,215.215 332.141,216.215 337.5,216.5C 343.573,226.617 351.073,235.617 360,243.5C 360.667,244.167 360.667,244.833 360,245.5C 329.897,260.472 299.73,275.139 269.5,289.5C 267.973,289.427 266.973,290.094 266.5,291.5C 251.161,297.333 237.161,305.499 224.5,316C 215.521,324.142 209.188,333.976 205.5,345.5C 203.095,350.112 201.762,355.112 201.5,360.5C 200.407,364.394 199.74,368.394 199.5,372.5C 198.419,375.627 197.753,378.96 197.5,382.5C 195.677,391.461 194.01,400.461 192.5,409.5C 190.956,414.606 189.956,419.939 189.5,425.5C 185.022,449.836 180.355,474.169 175.5,498.5C 174.778,498.918 174.278,499.584 174,500.5C 172.841,506.466 172.007,512.466 171.5,518.5C 171.5,519.5 171.5,520.5 171.5,521.5C 170.778,521.918 170.278,522.584 170,523.5C 168.636,530.485 167.469,537.485 166.5,544.5C 165.448,548.652 164.614,552.985 164,557.5C 163.5,628.499 163.333,699.499 163.5,770.5C 140.994,770.169 118.66,770.503 96.5,771.5C 88.5219,775.657 86.3553,781.991 90,790.5C 92.1057,793.118 94.6057,795.118 97.5,796.5C 148.998,797.333 200.665,797.833 252.5,798C 249.305,798.181 246.305,798.681 243.5,799.5C 162.167,799.5 80.8333,799.5 -0.5,799.5C -0.5,532.833 -0.5,266.167 -0.5,-0.5 Z"/></g>
<g><path style="opacity:1" fill="#c6c7c5" d="M 433.5,9.5 C 424.139,9.31288 414.805,9.64621 405.5,10.5C 410.569,8.94291 415.902,8.27624 421.5,8.5C 425.681,8.5011 429.681,8.83443 433.5,9.5 Z"/></g>
<g><path style="opacity:1" fill="#030303" d="M 433.5,9.5 C 444.694,11.5528 455.694,14.7195 466.5,19C 499.057,33.7329 519.391,58.5663 527.5,93.5C 528.847,103.937 529.847,114.27 530.5,124.5C 541.607,130.275 549.607,138.941 554.5,150.5C 554.41,153.152 555.076,155.485 556.5,157.5C 559.033,185.816 547.033,204.483 520.5,213.5C 515.332,213.934 510.332,214.6 505.5,215.5C 500.921,223.737 495.587,231.403 489.5,238.5C 486.755,239.738 484.421,241.571 482.5,244C 482.836,245.03 483.503,245.53 484.5,245.5C 514.783,260.476 545.117,275.143 575.5,289.5C 575.973,290.906 576.973,291.573 578.5,291.5C 582.833,293.5 587.167,295.5 591.5,297.5C 591.973,298.906 592.973,299.573 594.5,299.5C 595.514,300.674 596.847,301.34 598.5,301.5C 600.456,302.492 602.456,303.492 604.5,304.5C 611.898,308.968 618.731,314.301 625,320.5C 631.817,327.785 636.65,336.119 639.5,345.5C 639.259,347.898 639.926,349.898 641.5,351.5C 641.42,354.781 642.087,357.781 643.5,360.5C 645.035,366.039 646.035,371.706 646.5,377.5C 646.335,380.518 646.502,383.518 647,386.5C 647.278,387.416 647.778,388.082 648.5,388.5C 657.248,437.044 665.915,485.711 674.5,534.5C 674.802,537.373 675.469,540.039 676.5,542.5C 677.006,548.207 677.839,553.874 679,559.5C 679.5,629.833 679.667,700.166 679.5,770.5C 701.169,770.333 722.836,770.5 744.5,771C 747.726,772.198 750.559,774.031 753,776.5C 757.01,786.142 754.176,792.808 744.5,796.5C 528.833,796.5 313.167,796.5 97.5,796.5C 94.6057,795.118 92.1057,793.118 90,790.5C 86.3553,781.991 88.5219,775.657 96.5,771.5C 119.167,771.5 141.833,771.5 164.5,771.5C 164.333,701.499 164.5,631.499 165,561.5C 165.757,555.851 166.257,550.184 166.5,544.5C 168.785,537.086 170.451,529.419 171.5,521.5C 171.5,520.5 171.5,519.5 171.5,518.5C 173.451,512.076 174.785,505.409 175.5,498.5C 180.355,474.169 185.022,449.836 189.5,425.5C 191.76,420.527 192.76,415.194 192.5,409.5C 194.01,400.461 195.677,391.461 197.5,382.5C 199.175,379.493 199.841,376.16 199.5,372.5C 199.74,368.394 200.407,364.394 201.5,360.5C 203.279,355.722 204.613,350.722 205.5,345.5C 209.188,333.976 215.521,324.142 224.5,316C 237.161,305.499 251.161,297.333 266.5,291.5C 268.027,291.573 269.027,290.906 269.5,289.5C 299.73,275.139 329.897,260.472 360,245.5C 360.667,244.833 360.667,244.167 360,243.5C 351.073,235.617 343.573,226.617 337.5,216.5C 332.897,214.732 327.897,213.732 322.5,213.5C 316.365,212.1 310.699,209.6 305.5,206C 291.525,193.559 285.192,178.059 286.5,159.5C 287.924,157.485 288.59,155.152 288.5,152.5C 288.5,152.167 288.5,151.833 288.5,151.5C 290.104,150.713 290.771,149.38 290.5,147.5C 295.447,137.886 302.78,130.553 312.5,125.5C 313.513,118.011 314.18,110.344 314.5,102.5C 314.298,100.05 314.631,97.717 315.5,95.5C 316.407,93.3432 317.073,91.0098 317.5,88.5C 319.496,81.3454 321.996,74.3454 325,67.5C 342.603,35.3877 369.436,16.3877 405.5,10.5C 414.805,9.64621 424.139,9.31288 433.5,9.5 Z"/></g>
<g><path style="opacity:1" fill="#050505" d="M 291.5,31.5 C 290.64,27.5662 290.307,23.5662 290.5,19.5C 293.495,13.3352 298.495,10.8352 305.5,12C 314.665,16.4971 316.831,23.3304 312,32.5C 304.698,39.4065 297.865,39.0732 291.5,31.5 Z"/></g>
<g><path style="opacity:1" fill="#060606" d="M 530.5,29.5 C 530.307,25.4338 530.64,21.4338 531.5,17.5C 539.164,9.2328 546.664,9.56614 554,18.5C 556.155,31.6729 550.655,37.8396 537.5,37C 534.254,35.2576 531.921,32.7576 530.5,29.5 Z"/></g>
<g><path style="opacity:1" fill="#666766" d="M 290.5,19.5 C 290.307,23.5662 290.64,27.5662 291.5,31.5C 290.883,31.3893 290.383,31.056 290,30.5C 289.19,26.6425 289.357,22.9758 290.5,19.5 Z"/></g>
<g><path style="opacity:1" fill="#565856" d="M 531.5,17.5 C 530.64,21.4338 530.307,25.4338 530.5,29.5C 529.357,26.0242 529.19,22.3575 530,18.5C 530.383,17.944 530.883,17.6107 531.5,17.5 Z"/></g>
<g><path style="opacity:1" fill="#010101" d="M 582.5,193.5 C 581.174,142.961 581.174,92.294 582.5,41.5C 588.496,34.671 594.996,28.3377 602,22.5C 602.667,73.5 602.667,124.5 602,175.5C 595.278,181.394 588.778,187.394 582.5,193.5 Z"/></g>
<g><path style="opacity:1" fill="#0a0a0a" d="M 279.5,87.5 C 280.653,81.6812 280.819,75.6812 280,69.5C 279.623,68.0577 278.79,67.0577 277.5,66.5C 268.113,56.3192 257.113,54.1525 244.5,60C 243.23,62.6264 243.896,64.7931 246.5,66.5C 249.644,68.4087 252.977,69.742 256.5,70.5C 259.718,71.9542 263.218,72.6209 267,72.5C 269.361,72.4961 271.527,72.1627 273.5,71.5C 274.71,71.0679 275.71,70.4013 276.5,69.5C 277.167,69.5 277.5,69.8333 277.5,70.5C 275.936,81.0514 271.602,90.218 264.5,98C 258.565,101.465 252.565,104.632 246.5,107.5C 244.033,107.755 242.033,108.755 240.5,110.5C 214.331,121.621 187.831,132.288 161,142.5C 160.833,142 160.667,141.5 160.5,141C 163.802,138.342 167.135,135.675 170.5,133C 193.121,118.856 216.455,106.023 240.5,94.5C 242.153,94.3404 243.486,93.6737 244.5,92.5C 246.305,91.7629 247.971,90.7629 249.5,89.5C 248.099,88.4793 246.765,87.4793 245.5,86.5C 245.027,85.0937 244.027,84.427 242.5,84.5C 235.298,77.7181 232.798,69.3847 235,59.5C 236.009,57.9751 236.509,56.3084 236.5,54.5C 237.674,53.4863 238.34,52.153 238.5,50.5C 244.697,38.1407 254.697,33.3074 268.5,36C 279.117,40.6391 285.283,48.8058 287,60.5C 288.906,79.2692 284.406,96.2692 273.5,111.5C 273.167,111 272.833,110.5 272.5,110C 275.945,102.832 278.279,95.3316 279.5,87.5 Z"/></g>
<g><path style="opacity:1" fill="#f4f4f1" d="M 436.5,48.5 C 431.678,47.834 426.678,47.5007 421.5,47.5C 414.264,47.2984 407.264,47.9651 400.5,49.5C 399.833,49.5 399.167,49.5 398.5,49.5C 393.223,49.7751 388.223,50.7751 383.5,52.5C 383.167,52.5 382.833,52.5 382.5,52.5C 379.848,52.4095 377.515,53.0762 375.5,54.5C 371.789,55.3443 368.123,56.3443 364.5,57.5C 363.833,57.5 363.5,57.1667 363.5,56.5C 391.483,33.962 422.483,29.1287 456.5,42C 465.509,45.4985 473.509,50.4985 480.5,57C 471.021,54.4324 461.354,52.099 451.5,50C 446.536,49.0878 441.536,48.5878 436.5,48.5 Z"/></g>
<g><path style="opacity:1" fill="#454544" d="M 436.5,48.5 C 424.484,48.3895 412.484,48.7229 400.5,49.5C 407.264,47.9651 414.264,47.2984 421.5,47.5C 426.678,47.5007 431.678,47.834 436.5,48.5 Z"/></g>
<g><path style="opacity:1" fill="#5d5e5d" d="M 398.5,49.5 C 393.777,51.2249 388.777,52.2249 383.5,52.5C 388.223,50.7751 393.223,49.7751 398.5,49.5 Z"/></g>
<g><path style="opacity:1" fill="#868685" d="M 238.5,50.5 C 238.34,52.153 237.674,53.4863 236.5,54.5C 236.229,52.6203 236.896,51.287 238.5,50.5 Z"/></g>
<g><path style="opacity:1" fill="#5d5e5c" d="M 382.5,52.5 C 380.485,53.9238 378.152,54.5905 375.5,54.5C 377.515,53.0762 379.848,52.4095 382.5,52.5 Z"/></g>
<g><path style="opacity:1" fill="#090a09" d="M 558.5,56.5 C 559.899,57.8897 561.566,58.8897 563.5,59.5C 563.5,59.8333 563.5,60.1667 563.5,60.5C 564.299,63.4299 564.632,66.4299 564.5,69.5C 562.124,73.0372 558.958,75.7038 555,77.5C 547.505,74.1745 544.505,68.5078 546,60.5C 549.29,55.838 553.457,54.5047 558.5,56.5 Z"/></g>
<g><path style="opacity:1" fill="#a5a7a5" d="M 558.5,56.5 C 560.989,56.2407 562.656,57.2407 563.5,59.5C 561.566,58.8897 559.899,57.8897 558.5,56.5 Z"/></g>
<g><path style="opacity:1" fill="#f4f4f1" d="M 277.5,66.5 C 277.443,67.609 277.11,68.609 276.5,69.5C 275.71,70.4013 274.71,71.0679 273.5,71.5C 267.828,71.2401 262.161,70.9068 256.5,70.5C 252.977,69.742 249.644,68.4087 246.5,66.5C 243.896,64.7931 243.23,62.6264 244.5,60C 257.113,54.1525 268.113,56.3192 277.5,66.5 Z"/></g>
<g><path style="opacity:1" fill="#868887" d="M 363.5,56.5 C 363.5,57.1667 363.833,57.5 364.5,57.5C 363.594,59.9137 361.928,60.747 359.5,60C 360.705,58.6244 362.038,57.4577 363.5,56.5 Z"/></g>
<g><path style="opacity:1" fill="#050504" d="M 660.5,59.5 C 684.457,77.6179 708.291,95.9512 732,114.5C 732.667,115.5 732.667,116.5 732,117.5C 728.412,123.01 724.578,128.343 720.5,133.5C 707.534,124.528 694.867,115.195 682.5,105.5C 682.44,104.957 682.107,104.624 681.5,104.5C 680.5,131.825 680.167,159.159 680.5,186.5C 694.344,186.829 708.01,186.496 721.5,185.5C 725.182,185.409 728.349,184.076 731,181.5C 729.782,193.935 723.948,203.601 713.5,210.5C 694.833,210.5 676.167,210.5 657.5,210.5C 657.5,211.833 657.5,213.167 657.5,214.5C 651.911,236.422 638.244,250.422 616.5,256.5C 610.87,257.292 605.203,257.625 599.5,257.5C 597.901,257.768 596.568,257.434 595.5,256.5C 594.486,255.326 593.153,254.66 591.5,254.5C 581.22,248.575 577.553,239.908 580.5,228.5C 581.924,226.485 582.59,224.152 582.5,221.5C 585.021,216.134 588.188,211.134 592,206.5C 595.145,203.266 598.478,200.266 602,197.5C 601.458,204.921 598.458,211.254 593,216.5C 589.831,224.495 592.331,229.829 600.5,232.5C 602.201,233.734 604.201,234.401 606.5,234.5C 611.116,234.138 615.449,233.138 619.5,231.5C 630.953,226.895 640.953,220.062 649.5,211C 640.03,211.586 631.03,209.92 622.5,206C 614.485,199.288 611.652,190.788 614,180.5C 615.667,177.167 617.333,173.833 619,170.5C 626.725,162.938 634.892,155.938 643.5,149.5C 643.833,149.833 644.167,150.167 644.5,150.5C 643.366,153.07 642.532,155.736 642,158.5C 638.812,163.556 635.645,168.556 632.5,173.5C 631.007,174.312 630.34,175.645 630.5,177.5C 630.52,178.726 630.853,179.726 631.5,180.5C 633.578,183.051 636.244,184.884 639.5,186C 645.825,186.5 652.158,186.666 658.5,186.5C 659.167,144.167 659.833,101.833 660.5,59.5 Z"/></g>
<g><path style="opacity:1" fill="#0b0b0a" d="M 207.5,63.5 C 208.239,63.369 208.906,63.5357 209.5,64C 212.964,69.63 217.298,74.4634 222.5,78.5C 217.559,81.9374 213.059,85.9374 209,90.5C 204.664,85.9972 200.164,81.6639 195.5,77.5C 200.64,73.7021 204.64,69.0354 207.5,63.5 Z"/></g>
<g><path style="opacity:1" fill="#575857" d="M 563.5,60.5 C 564.117,60.6107 564.617,60.944 565,61.5C 565.801,64.367 565.634,67.0336 564.5,69.5C 564.632,66.4299 564.299,63.4299 563.5,60.5 Z"/></g>
<g><path style="opacity:1" fill="#0a0a0a" d="M 627.5,64.5 C 632.433,69.0952 637.433,73.7618 642.5,78.5C 637.206,82.1266 632.539,86.46 628.5,91.5C 624.411,86.0753 619.411,81.7419 613.5,78.5C 619.06,74.7213 623.727,70.0546 627.5,64.5 Z"/></g>
<g><path style="opacity:1" fill="#a8a9a7" d="M 256.5,70.5 C 262.161,70.9068 267.828,71.2401 273.5,71.5C 271.527,72.1627 269.361,72.4961 267,72.5C 263.218,72.6209 259.718,71.9542 256.5,70.5 Z"/></g>
<g><path style="opacity:1" fill="#070707" d="M 180.5,72.5 C 182.47,80.7688 183.136,89.4355 182.5,98.5C 182.167,98.5 181.833,98.5 181.5,98.5C 178.843,98.9348 176.509,99.9348 174.5,101.5C 172.033,101.755 170.033,102.755 168.5,104.5C 146.427,113.724 128.76,128.391 115.5,148.5C 115.167,147 114.833,145.5 114.5,144C 119.296,116.544 133.963,96.3776 158.5,83.5C 160.027,83.573 161.027,82.9063 161.5,81.5C 165.448,78.7558 169.782,76.7558 174.5,75.5C 176.153,75.3404 177.486,74.6737 178.5,73.5C 178.842,72.6618 179.508,72.3284 180.5,72.5 Z"/></g>
<g><path style="opacity:1" fill="#fafaf7" d="M 437.5,73.5 C 442.616,74.8063 447.949,75.473 453.5,75.5C 471.68,78.8821 488.347,85.5487 503.5,95.5C 504.134,103.903 503.467,111.903 501.5,119.5C 485.939,109.197 468.939,102.197 450.5,98.5C 448.524,96.9891 446.191,96.1558 443.5,96C 440.183,95.5017 436.85,95.335 433.5,95.5C 425.344,94.3434 417.01,94.1768 408.5,95C 404.821,95.0265 401.488,95.8598 398.5,97.5C 377.578,101.25 358.245,108.917 340.5,120.5C 339.508,112.684 339.174,104.684 339.5,96.5C 340.659,94.7497 342.326,93.7497 344.5,93.5C 346.086,92.5868 347.586,92.5868 349,93.5C 349.333,92.8333 349.667,92.1667 350,91.5C 350.427,94.4927 351.594,94.9927 353.5,93C 351.729,92.4646 351.396,91.6313 352.5,90.5C 357.752,88.0443 362.752,85.3777 367.5,82.5C 373.166,81.6096 378.5,79.943 383.5,77.5C 390.521,75.0834 397.854,73.5834 405.5,73C 416.341,72.1745 427.008,72.3412 437.5,73.5 Z"/></g>
<g><path style="opacity:1" fill="#6a6a69" d="M 178.5,73.5 C 177.486,74.6737 176.153,75.3404 174.5,75.5C 175.287,73.8958 176.62,73.2291 178.5,73.5 Z"/></g>
<g><path style="opacity:1" fill="#b0b2b0" d="M 437.5,73.5 C 443.098,73.1557 448.432,73.8224 453.5,75.5C 447.949,75.473 442.616,74.8063 437.5,73.5 Z"/></g>
<g><path style="opacity:1" fill="#494a49" d="M 180.5,72.5 C 180.5,71.8333 180.833,71.5 181.5,71.5C 183.471,80.1045 184.138,89.1045 183.5,98.5C 183.167,98.5 182.833,98.5 182.5,98.5C 183.136,89.4355 182.47,80.7688 180.5,72.5 Z"/></g>
<g><path style="opacity:1" fill="#c6c6c4" d="M 181.5,71.5 C 182.209,70.596 183.209,70.2627 184.5,70.5C 184.827,80.015 184.494,89.3483 183.5,98.5C 184.138,89.1045 183.471,80.1045 181.5,71.5 Z"/></g>
<g><path style="opacity:1" fill="#949593" d="M 277.5,66.5 C 278.79,67.0577 279.623,68.0577 280,69.5C 280.819,75.6812 280.653,81.6812 279.5,87.5C 280.117,81.4018 279.45,75.7351 277.5,70.5C 277.5,69.8333 277.167,69.5 276.5,69.5C 277.11,68.609 277.443,67.609 277.5,66.5 Z"/></g>
<g><path style="opacity:1" fill="#a4a5a3" d="M 383.5,77.5 C 378.5,79.943 373.166,81.6096 367.5,82.5C 372.5,80.057 377.834,78.3904 383.5,77.5 Z"/></g>
<g><path style="opacity:1" fill="#7c7e7c" d="M 161.5,81.5 C 161.027,82.9063 160.027,83.573 158.5,83.5C 158.973,82.0937 159.973,81.427 161.5,81.5 Z"/></g>
<g><path style="opacity:1" fill="#727372" d="M 242.5,84.5 C 244.027,84.427 245.027,85.0937 245.5,86.5C 243.973,86.573 242.973,85.9063 242.5,84.5 Z"/></g>
<g><path style="opacity:1" fill="#adafad" d="M 659.5,58.5 C 658.505,69.988 658.172,81.6547 658.5,93.5C 657.175,81.6602 657.175,69.6602 658.5,57.5C 659.107,57.6236 659.44,57.9569 659.5,58.5 Z"/></g>
<g><path style="opacity:1" fill="#a6a7a5" d="M 317.5,88.5 C 317.073,91.0098 316.407,93.3432 315.5,95.5C 315.338,93.4727 315.505,91.4727 316,89.5C 316.383,88.944 316.883,88.6107 317.5,88.5 Z"/></g>
<g><path style="opacity:1" fill="#d1d2cf" d="M 367.5,82.5 C 362.752,85.3777 357.752,88.0443 352.5,90.5C 351.396,91.6313 351.729,92.4646 353.5,93C 351.594,94.9927 350.427,94.4927 350,91.5C 349.667,92.1667 349.333,92.8333 349,93.5C 347.586,92.5868 346.086,92.5868 344.5,93.5C 351.458,88.5223 359.125,84.8557 367.5,82.5 Z"/></g>
<g><path style="opacity:1" fill="#7f807e" d="M 244.5,92.5 C 243.486,93.6737 242.153,94.3404 240.5,94.5C 241.287,92.8958 242.62,92.2291 244.5,92.5 Z"/></g>
<g><path style="opacity:1" fill="#484947" d="M 659.5,58.5 C 660.167,58.5 660.5,58.8333 660.5,59.5C 659.833,101.833 659.167,144.167 658.5,186.5C 658.5,155.5 658.5,124.5 658.5,93.5C 658.172,81.6547 658.505,69.988 659.5,58.5 Z"/></g>
<g><path style="opacity:1" fill="#c0c1bf" d="M 433.5,95.5 C 421.767,95.2808 410.101,95.9474 398.5,97.5C 401.488,95.8598 404.821,95.0265 408.5,95C 417.01,94.1768 425.344,94.3434 433.5,95.5 Z"/></g>
<g><path style="opacity:1" fill="#adafac" d="M 433.5,95.5 C 436.85,95.335 440.183,95.5017 443.5,96C 446.191,96.1558 448.524,96.9891 450.5,98.5C 444.651,97.8041 438.984,96.8041 433.5,95.5 Z"/></g>
<g><path style="opacity:1" fill="#9c9d9b" d="M 181.5,98.5 C 179.824,100.834 177.491,101.834 174.5,101.5C 176.509,99.9348 178.843,98.9348 181.5,98.5 Z"/></g>
<g><path style="opacity:1" fill="#8a8b89" d="M 174.5,101.5 C 172.967,103.245 170.967,104.245 168.5,104.5C 170.033,102.755 172.033,101.755 174.5,101.5 Z"/></g>
<g><path style="opacity:1" fill="#0a0b0a" d="M 627.5,104.5 C 632.098,109.764 637.098,114.764 642.5,119.5C 637.411,123.378 632.745,127.711 628.5,132.5C 624.461,127.46 619.794,123.127 614.5,119.5C 617.808,116.529 621.141,113.529 624.5,110.5C 626.038,108.757 627.038,106.757 627.5,104.5 Z"/></g>
<g><path style="opacity:1" fill="#373836" d="M 338.5,102.5 C 337.877,109.255 338.544,115.588 340.5,121.5C 339.791,122.404 338.791,122.737 337.5,122.5C 337.176,115.646 337.509,108.979 338.5,102.5 Z"/></g>
<g><path style="opacity:1" fill="#a0a19f" d="M 339.5,96.5 C 339.174,104.684 339.508,112.684 340.5,120.5C 340.5,120.833 340.5,121.167 340.5,121.5C 338.544,115.588 337.877,109.255 338.5,102.5C 338.205,100.265 338.539,98.2646 339.5,96.5 Z"/></g>
<g><path style="opacity:1" fill="#979897" d="M 246.5,107.5 C 244.967,109.245 242.967,110.245 240.5,110.5C 242.033,108.755 244.033,107.755 246.5,107.5 Z"/></g>
<g><path style="opacity:1" fill="#b0b1af" d="M 527.5,93.5 C 529.109,96.1489 529.943,99.1489 530,102.5C 530.5,109.826 530.666,117.159 530.5,124.5C 529.847,114.27 528.847,103.937 527.5,93.5 Z"/></g>
<g><path style="opacity:1" fill="#aeafae" d="M 314.5,102.5 C 314.18,110.344 313.513,118.011 312.5,125.5C 312.334,118.825 312.5,112.158 313,105.5C 313.232,104.263 313.732,103.263 314.5,102.5 Z"/></g>
<g><path style="opacity:1" fill="#bfc1bf" d="M 503.5,95.5 C 504.821,104.009 504.821,112.675 503.5,121.5C 502.478,121.145 501.811,120.478 501.5,119.5C 503.467,111.903 504.134,103.903 503.5,95.5 Z"/></g>
<g><path style="opacity:1" fill="#dddedb" d="M 442.5,122.5 C 426.007,120.84 409.673,121.173 393.5,123.5C 395.74,122.736 398.073,121.902 400.5,121C 406.333,120.833 412.167,120.667 418,120.5C 426.392,120.298 434.559,120.965 442.5,122.5 Z"/></g>
<g><path style="opacity:1" fill="#fdfdf9" d="M 442.5,122.5 C 457.062,124.943 470.729,129.943 483.5,137.5C 499.322,169.896 494.322,198.73 468.5,224C 462.613,228.104 456.613,231.938 450.5,235.5C 447.458,235.733 444.792,236.733 442.5,238.5C 439.772,238.171 437.438,238.837 435.5,240.5C 434.5,240.5 433.5,240.5 432.5,240.5C 419.896,241.315 407.563,239.981 395.5,236.5C 367.022,223.778 352.022,201.611 350.5,170C 350.451,158.358 353.285,147.525 359,137.5C 369.662,130.752 381.162,126.085 393.5,123.5C 409.673,121.173 426.007,120.84 442.5,122.5 Z"/></g>
<g><path style="opacity:1" fill="#0d0d0c" d="M 256.5,143.5 C 254.935,145.509 253.935,147.843 253.5,150.5C 250.721,157.392 247.387,164.059 243.5,170.5C 239.311,164.144 233.977,158.977 227.5,155C 225.19,154.503 222.857,154.337 220.5,154.5C 220.343,153.127 220.51,151.793 221,150.5C 225.512,140.642 230.679,131.142 236.5,122C 237.5,121.333 238.5,121.333 239.5,122C 244.467,125.966 249.134,130.299 253.5,135C 255.025,136.009 256.692,136.509 258.5,136.5C 258.59,139.152 257.924,141.485 256.5,143.5 Z"/></g>
<g><path style="opacity:1" fill="#e7e7e5" d="M 232.5,135.5 C 239.419,138.237 245.419,142.404 250.5,148C 249.971,149.559 249.304,151.059 248.5,152.5C 247.635,153.583 246.635,153.749 245.5,153C 241.534,150.036 237.867,146.703 234.5,143C 232.744,142.798 231.078,142.298 229.5,141.5C 230.513,139.473 231.513,137.473 232.5,135.5 Z"/></g>
<g><path style="opacity:1" fill="#484b4a" d="M 582.5,41.5 C 581.174,92.294 581.174,142.961 582.5,193.5C 582.44,194.043 582.107,194.376 581.5,194.5C 580.333,143.837 580.167,93.17 581,42.5C 581.383,41.944 581.883,41.6107 582.5,41.5 Z"/></g>
<g><path style="opacity:1" fill="#070707" d="M 757.5,135.5 C 758.499,188.664 758.832,241.997 758.5,295.5C 750.907,300.424 744.24,306.424 738.5,313.5C 737.333,260.836 737.167,208.17 738,155.5C 744.757,148.911 751.257,142.245 757.5,135.5 Z"/></g>
<g><path style="opacity:1" fill="#0a0a0a" d="M 710.5,168.5 C 709.542,168.953 708.708,169.619 708,170.5C 706.281,167.712 704.115,165.379 701.5,163.5C 699.186,161.523 696.853,159.523 694.5,157.5C 698.822,152.339 703.489,147.839 708.5,144C 712.703,148.779 717.37,153.113 722.5,157C 717.998,160.336 713.998,164.169 710.5,168.5 Z"/></g>
<g><path style="opacity:1" fill="#818281" d="M 179.5,145.5 C 172.449,145.728 165.449,146.395 158.5,147.5C 161.488,145.86 164.821,145.026 168.5,145C 172.358,144.19 176.024,144.357 179.5,145.5 Z"/></g>
<g><path style="opacity:1" fill="#060606" d="M 179.5,145.5 C 189.731,145.248 198.231,148.915 205,156.5C 210.336,166.683 208.836,175.85 200.5,184C 198.182,185.993 195.516,187.159 192.5,187.5C 192.343,186.127 192.51,184.793 193,183.5C 196.004,181.326 198.837,178.992 201.5,176.5C 199.636,174.4 197.303,173.067 194.5,172.5C 193.22,171.069 191.553,170.402 189.5,170.5C 187.194,170.007 184.861,169.674 182.5,169.5C 176.347,168.347 170.014,168.18 163.5,169C 160.543,169.279 157.877,170.113 155.5,171.5C 153.102,171.259 151.102,171.926 149.5,173.5C 147.102,173.259 145.102,173.926 143.5,175.5C 141.033,175.755 139.033,176.755 137.5,178.5C 125.215,183.604 114.715,191.271 106,201.5C 104.223,204.059 102.723,206.726 101.5,209.5C 100.094,209.973 99.427,210.973 99.5,212.5C 97.3987,215.797 96.0653,219.463 95.5,223.5C 91.0673,239.708 95.0673,253.542 107.5,265C 114.57,270.522 122.57,272.689 131.5,271.5C 127.495,280.315 120.828,282.815 111.5,279C 106.036,277.186 101.536,274.02 98,269.5C 93.6761,263.182 90.1761,256.516 87.5,249.5C 86.0378,240.567 85.3711,231.567 85.5,222.5C 86.4339,219.344 87.1006,216.011 87.5,212.5C 95.3171,186.488 111.317,167.488 135.5,155.5C 137.553,155.598 139.22,154.931 140.5,153.5C 140.842,152.662 141.508,152.328 142.5,152.5C 145.542,152.267 148.208,151.267 150.5,149.5C 153.267,149.142 155.933,148.475 158.5,147.5C 165.449,146.395 172.449,145.728 179.5,145.5 Z"/></g>
<g><path style="opacity:1" fill="#9d9e9c" d="M 256.5,143.5 C 256.834,146.491 255.834,148.824 253.5,150.5C 253.935,147.843 254.935,145.509 256.5,143.5 Z"/></g>
<g><path style="opacity:1" fill="#929392" d="M 150.5,149.5 C 148.208,151.267 145.542,152.267 142.5,152.5C 144.792,150.733 147.458,149.733 150.5,149.5 Z"/></g>
<g><path style="opacity:1" fill="#757674" d="M 290.5,147.5 C 290.771,149.38 290.104,150.713 288.5,151.5C 288.66,149.847 289.326,148.514 290.5,147.5 Z"/></g>
<g><path style="opacity:1" fill="#8b8c8a" d="M 140.5,153.5 C 139.22,154.931 137.553,155.598 135.5,155.5C 136.78,154.069 138.447,153.402 140.5,153.5 Z"/></g>
<g><path style="opacity:1" fill="#f2f2ef" d="M 324.5,159.5 C 324.403,163.349 324.069,167.183 323.5,171C 323.489,174.116 324.155,176.949 325.5,179.5C 326.1,182.332 326.767,185.165 327.5,188C 327.167,188.5 326.833,189 326.5,189.5C 318.754,186.628 313.754,181.295 311.5,173.5C 310.248,168.509 310.248,163.509 311.5,158.5C 313.707,150.657 317.541,149.657 323,155.5C 323.791,156.745 324.291,158.078 324.5,159.5 Z"/></g>
<g><path style="opacity:1" fill="#f5f5f2" d="M 532.5,159.5 C 532.5,163.833 532.5,168.167 532.5,172.5C 529.833,181.167 524.167,186.833 515.5,189.5C 517.94,179.678 519.107,169.678 519,159.5C 523.705,148.858 528.205,148.858 532.5,159.5 Z"/></g>
<g><path style="opacity:1" fill="#797a79" d="M 554.5,150.5 C 555.924,152.515 556.59,154.848 556.5,157.5C 555.076,155.485 554.41,153.152 554.5,150.5 Z"/></g>
<g><path style="opacity:1" fill="#656665" d="M 288.5,152.5 C 288.59,155.152 287.924,157.485 286.5,159.5C 286.41,156.848 287.076,154.515 288.5,152.5 Z"/></g>
<g><path style="opacity:1" fill="#afb0ae" d="M 311.5,158.5 C 310.248,163.509 310.248,168.509 311.5,173.5C 309.967,171.366 309.3,168.866 309.5,166C 309.3,163.134 309.967,160.634 311.5,158.5 Z"/></g>
<g><path style="opacity:1" fill="#818381" d="M 182.5,169.5 C 173.41,169.171 164.41,169.838 155.5,171.5C 157.877,170.113 160.543,169.279 163.5,169C 170.014,168.18 176.347,168.347 182.5,169.5 Z"/></g>
<g><path style="opacity:1" fill="#9fa09e" d="M 532.5,159.5 C 535.167,163.833 535.167,168.167 532.5,172.5C 532.5,168.167 532.5,163.833 532.5,159.5 Z"/></g>
<g><path style="opacity:1" fill="#c4c5c2" d="M 701.5,163.5 C 704.115,165.379 706.281,167.712 708,170.5C 708.708,169.619 709.542,168.953 710.5,168.5C 710.288,170.384 709.288,171.717 707.5,172.5C 705.056,169.736 703.056,166.736 701.5,163.5 Z"/></g>
<g><path style="opacity:1" fill="#babbb9" d="M 324.5,159.5 C 325.491,165.979 325.824,172.646 325.5,179.5C 324.155,176.949 323.489,174.116 323.5,171C 324.069,167.183 324.403,163.349 324.5,159.5 Z"/></g>
<g><path style="opacity:1" fill="#848583" d="M 189.5,170.5 C 191.553,170.402 193.22,171.069 194.5,172.5C 192.447,172.598 190.78,171.931 189.5,170.5 Z"/></g>
<g><path style="opacity:1" fill="#9b9c9b" d="M 149.5,173.5 C 147.898,175.074 145.898,175.741 143.5,175.5C 145.102,173.926 147.102,173.259 149.5,173.5 Z"/></g>
<g><path style="opacity:1" fill="#838483" d="M 143.5,175.5 C 141.967,177.245 139.967,178.245 137.5,178.5C 139.033,176.755 141.033,175.755 143.5,175.5 Z"/></g>
<g><path style="opacity:1" fill="#a6a7a6" d="M 632.5,173.5 C 631.781,175.764 631.448,178.097 631.5,180.5C 630.853,179.726 630.52,178.726 630.5,177.5C 630.34,175.645 631.007,174.312 632.5,173.5 Z"/></g>
<g><path style="opacity:1" fill="#080808" d="M 246.5,189.5 C 247.354,195.121 247.687,200.788 247.5,206.5C 244.747,216.784 239.581,225.784 232,233.5C 219.996,245.35 206.496,255.017 191.5,262.5C 187.376,263.399 183.709,265.066 180.5,267.5C 176.186,268.275 171.853,268.941 167.5,269.5C 163.167,269.5 158.833,269.5 154.5,269.5C 154.371,271.216 154.038,272.883 153.5,274.5C 148.101,285.401 140.101,293.901 129.5,300C 127.655,301.128 125.655,301.628 123.5,301.5C 123.351,300.448 123.517,299.448 124,298.5C 135.516,288.098 144.016,275.765 149.5,261.5C 151.245,259.967 152.245,257.967 152.5,255.5C 153.664,252.186 154.83,248.852 156,245.5C 156.671,244.748 157.504,244.414 158.5,244.5C 158.918,245.222 159.584,245.722 160.5,246C 167.877,247.146 174.877,246.313 181.5,243.5C 203.267,235.697 222.434,223.697 239,207.5C 239.667,206.833 239.667,206.167 239,205.5C 233.771,201.081 227.937,199.581 221.5,201C 218.688,202.977 216.022,205.144 213.5,207.5C 212.895,201.248 213.895,195.248 216.5,189.5C 217.906,189.027 218.573,188.027 218.5,186.5C 224.365,176.627 232.031,175.127 241.5,182C 244.2,183.857 245.866,186.357 246.5,189.5 Z"/></g>
<g><path style="opacity:1" fill="#c6c7c5" d="M 682.5,105.5 C 681.502,131.995 681.169,158.661 681.5,185.5C 694.833,185.5 708.167,185.5 721.5,185.5C 708.01,186.496 694.344,186.829 680.5,186.5C 680.167,159.159 680.5,131.825 681.5,104.5C 682.107,104.624 682.44,104.957 682.5,105.5 Z"/></g>
<g><path style="opacity:1" fill="#787978" d="M 218.5,186.5 C 218.573,188.027 217.906,189.027 216.5,189.5C 216.427,187.973 217.094,186.973 218.5,186.5 Z"/></g>
<g><path style="opacity:1" fill="#0a0a0a" d="M 170.5,188.5 C 174.523,198.854 181.857,205.854 192.5,209.5C 182.109,213.724 174.943,221.057 171,231.5C 167.454,220.783 160.288,214.116 149.5,211.5C 149.5,210.5 149.5,209.5 149.5,208.5C 160.39,205.944 167.39,199.277 170.5,188.5 Z"/></g>
<g><path style="opacity:1" fill="#828381" d="M 246.5,189.5 C 247.222,189.918 247.722,190.584 248,191.5C 248.816,196.684 248.65,201.684 247.5,206.5C 247.687,200.788 247.354,195.121 246.5,189.5 Z"/></g>
<g><path style="opacity:1" fill="#0d0d0c" d="M 119.5,206.5 C 123.403,212.403 128.403,217.403 134.5,221.5C 129.46,225.385 124.627,229.385 120,233.5C 115.967,228.966 111.467,224.966 106.5,221.5C 109.187,217.979 112.353,214.979 116,212.5C 117.394,210.612 118.56,208.612 119.5,206.5 Z"/></g>
<g><path style="opacity:1" fill="#bebfbd" d="M 713.5,210.5 C 695.341,211.497 677.008,211.83 658.5,211.5C 658.737,212.791 658.404,213.791 657.5,214.5C 657.5,213.167 657.5,211.833 657.5,210.5C 676.167,210.5 694.833,210.5 713.5,210.5 Z"/></g>
<g><path style="opacity:1" fill="#777877" d="M 101.5,209.5 C 101.573,211.027 100.906,212.027 99.5,212.5C 99.427,210.973 100.094,209.973 101.5,209.5 Z"/></g>
<g><path style="opacity:1" fill="#080808" d="M 776.5,248.5 C 776.259,250.898 776.926,252.898 778.5,254.5C 778.42,257.781 779.087,260.781 780.5,263.5C 780.325,265.621 780.659,267.621 781.5,269.5C 783.037,283.882 782.704,298.215 780.5,312.5C 778.088,331.411 768.421,345.244 751.5,354C 748.232,355.15 744.899,355.984 741.5,356.5C 735.788,356.687 730.121,356.354 724.5,355.5C 715.173,351.184 711.34,343.85 713,333.5C 714.954,323.882 719.787,316.048 727.5,310C 728.448,309.517 729.448,309.351 730.5,309.5C 729.498,314.676 726.998,319.009 723,322.5C 721.664,326.562 722.831,329.562 726.5,331.5C 729.356,333.006 732.523,333.672 736,333.5C 738.361,333.496 740.527,333.163 742.5,332.5C 755.677,329.922 765.677,322.922 772.5,311.5C 774.101,299.722 773.434,288.055 770.5,276.5C 769.314,267.861 768.314,259.195 767.5,250.5C 767.835,245.828 768.168,241.161 768.5,236.5C 770.477,230.208 773.31,224.208 777,218.5C 779.423,215.568 782.257,213.235 785.5,211.5C 796.532,218.544 803.365,228.544 806,241.5C 806.667,296.167 806.667,350.833 806,405.5C 805.247,426.833 797.08,444.666 781.5,459C 774.976,464.358 768.31,469.525 761.5,474.5C 759.065,466.698 756.565,459.031 754,451.5C 766.199,443.304 775.532,432.637 782,419.5C 783.408,415.943 784.408,412.276 785,408.5C 785.667,354.167 785.667,299.833 785,245.5C 782.759,237.888 779.759,237.555 776,244.5C 775.235,246.066 775.402,247.399 776.5,248.5 Z"/></g>
<g><path style="opacity:1" fill="#a7a8a6" d="M 87.5,212.5 C 87.1006,216.011 86.4339,219.344 85.5,222.5C 85.3354,219.482 85.502,216.482 86,213.5C 86.3826,212.944 86.8826,212.611 87.5,212.5 Z"/></g>
<g><path style="opacity:1" fill="#babbba" d="M 322.5,213.5 C 327.897,213.732 332.897,214.732 337.5,216.5C 332.141,216.215 327.141,215.215 322.5,213.5 Z"/></g>
<g><path style="opacity:1" fill="#b2b3b1" d="M 520.5,213.5 C 519.737,214.268 518.737,214.768 517.5,215C 513.514,215.499 509.514,215.666 505.5,215.5C 510.332,214.6 515.332,213.934 520.5,213.5 Z"/></g>
<g><path style="opacity:1" fill="#a5a6a4" d="M 99.5,212.5 C 98.9751,216.533 97.6418,220.2 95.5,223.5C 96.0653,219.463 97.3987,215.797 99.5,212.5 Z"/></g>
<g><path style="opacity:1" fill="#0c0d0c" d="M 250.5,251.5 C 248.326,251.75 246.659,252.75 245.5,254.5C 245.167,254.5 244.833,254.5 244.5,254.5C 241.314,255.597 238.314,256.93 235.5,258.5C 233.033,258.755 231.033,259.755 229.5,261.5C 224.839,262.497 220.173,263.497 215.5,264.5C 213.265,264.795 211.265,264.461 209.5,263.5C 227.177,253.661 243.844,242.327 259.5,229.5C 263.21,225.792 266.543,221.792 269.5,217.5C 270.325,216.614 271.325,216.281 272.5,216.5C 269.944,231.302 262.61,242.968 250.5,251.5 Z"/></g>
<g><path style="opacity:1" fill="#070707" d="M 64.5,229.5 C 62.4435,239.284 63.7768,248.617 68.5,257.5C 75.5911,274.763 86.9244,288.596 102.5,299C 104.407,300.122 106.407,300.955 108.5,301.5C 110.509,303.065 112.843,304.065 115.5,304.5C 116.043,304.56 116.376,304.893 116.5,305.5C 110.021,312.323 102.854,318.323 95,323.5C 78.1175,312.284 65.1175,297.617 56,279.5C 49.577,259.021 51.9103,239.688 63,221.5C 64.1707,219.384 65.6707,218.718 67.5,219.5C 65.8789,222.652 64.8789,225.985 64.5,229.5 Z"/></g>
<g><path style="opacity:1" fill="#4b4b4a" d="M 582.5,221.5 C 582.59,224.152 581.924,226.485 580.5,228.5C 580.41,225.848 581.076,223.515 582.5,221.5 Z"/></g>
<g><path style="opacity:1" fill="#090909" d="M 717.5,227.5 C 718.497,227.47 719.164,227.97 719.5,229C 718.964,231.24 717.797,233.073 716,234.5C 715.333,235.833 715.333,237.167 716,238.5C 721.047,243.547 724.38,249.547 726,256.5C 729.798,288.437 715.964,307.271 684.5,313C 674.151,313.832 663.817,313.666 653.5,312.5C 657.792,308.71 661.958,304.71 666,300.5C 672.047,292.908 678.214,285.408 684.5,278C 685.332,277.312 685.998,277.479 686.5,278.5C 684.594,281.64 683.26,284.973 682.5,288.5C 695.562,288.386 706.728,283.72 716,274.5C 716.667,273.833 716.667,273.167 716,272.5C 712.5,269 709,265.5 705.5,262C 700.895,261.582 697.395,263.415 695,267.5C 693.505,258.319 695.505,249.986 701,242.5C 706.289,237.133 711.789,232.133 717.5,227.5 Z"/></g>
<g><path style="opacity:1" fill="#090909" d="M 672.5,228.5 C 676.682,233.846 681.682,238.346 687.5,242C 682.985,246.348 678.651,250.848 674.5,255.5C 670.298,250.132 665.298,245.632 659.5,242C 664.71,238.291 669.043,233.791 672.5,228.5 Z"/></g>
<g><path style="opacity:1" fill="#9d9f9d" d="M 85.5,222.5 C 85.3711,231.567 86.0378,240.567 87.5,249.5C 86.1127,247.123 85.2794,244.457 85,241.5C 84.18,234.986 84.3467,228.653 85.5,222.5 Z"/></g>
<g><path style="opacity:1" fill="#b4b5b3" d="M 619.5,231.5 C 615.449,233.138 611.116,234.138 606.5,234.5C 604.201,234.401 602.201,233.734 600.5,232.5C 606.869,232.653 613.203,232.32 619.5,231.5 Z"/></g>
<g><path style="opacity:1" fill="#d3d4d1" d="M 64.5,229.5 C 64.2479,232.244 64.9145,234.744 66.5,237C 65.438,240.789 65.2713,244.623 66,248.5C 67.1449,251.432 67.9782,254.432 68.5,257.5C 63.7768,248.617 62.4435,239.284 64.5,229.5 Z"/></g>
<g><path style="opacity:1" fill="#848684" d="M 450.5,235.5 C 448.208,237.267 445.542,238.267 442.5,238.5C 444.792,236.733 447.458,235.733 450.5,235.5 Z"/></g>
<g><path style="opacity:1" fill="#929392" d="M 442.5,238.5 C 440.401,239.612 438.067,240.279 435.5,240.5C 437.438,238.837 439.772,238.171 442.5,238.5 Z"/></g>
<g><path style="opacity:1" fill="#b7b8b6" d="M 395.5,236.5 C 407.563,239.981 419.896,241.315 432.5,240.5C 425.011,241.656 417.345,241.822 409.5,241C 404.508,240.168 399.841,238.668 395.5,236.5 Z"/></g>
<g><path style="opacity:1" fill="#b0b1af" d="M 489.5,238.5 C 487.42,240.573 485.754,242.907 484.5,245.5C 483.503,245.53 482.836,245.03 482.5,244C 484.421,241.571 486.755,239.738 489.5,238.5 Z"/></g>
<g><path style="opacity:1" fill="#cecfcd" d="M 181.5,243.5 C 174.877,246.313 167.877,247.146 160.5,246C 159.584,245.722 158.918,245.222 158.5,244.5C 166.201,244.691 173.868,244.358 181.5,243.5 Z"/></g>
<g><path style="opacity:1" fill="#a9aaa8" d="M 250.5,251.5 C 249.514,253.408 247.848,254.408 245.5,254.5C 246.659,252.75 248.326,251.75 250.5,251.5 Z"/></g>
<g><path style="opacity:1" fill="#6c6d6b" d="M 776.5,248.5 C 778.074,250.102 778.741,252.102 778.5,254.5C 776.926,252.898 776.259,250.898 776.5,248.5 Z"/></g>
<g><path style="opacity:1" fill="#767776" d="M 591.5,254.5 C 593.153,254.66 594.486,255.326 595.5,256.5C 593.62,256.771 592.287,256.104 591.5,254.5 Z"/></g>
<g><path style="opacity:1" fill="#848584" d="M 152.5,255.5 C 152.245,257.967 151.245,259.967 149.5,261.5C 149.755,259.033 150.755,257.033 152.5,255.5 Z"/></g>
<g><path style="opacity:1" fill="#c2c3c1" d="M 244.5,254.5 C 242.657,258.009 239.657,259.343 235.5,258.5C 238.314,256.93 241.314,255.597 244.5,254.5 Z"/></g>
<g><path style="opacity:1" fill="#707170" d="M 616.5,256.5 C 613.474,258.019 610.141,258.685 606.5,258.5C 603.975,258.497 601.641,258.163 599.5,257.5C 605.203,257.625 610.87,257.292 616.5,256.5 Z"/></g>
<g><path style="opacity:1" fill="#7c7d7b" d="M 778.5,254.5 C 779.913,257.219 780.58,260.219 780.5,263.5C 779.087,260.781 778.42,257.781 778.5,254.5 Z"/></g>
<g><path style="opacity:1" fill="#979896" d="M 235.5,258.5 C 233.967,260.245 231.967,261.245 229.5,261.5C 231.033,259.755 233.033,258.755 235.5,258.5 Z"/></g>
<g><path style="opacity:1" fill="#f9f9f6" d="M 453.5,260.5 C 455.436,264.715 456.103,269.381 455.5,274.5C 453.136,281.034 448.802,285.868 442.5,289C 438.071,290.318 433.738,291.484 429.5,292.5C 425.833,292.5 422.167,292.5 418.5,292.5C 422.578,285.346 426.411,278.013 430,270.5C 430.49,269.207 430.657,267.873 430.5,266.5C 433.33,266.037 435.997,265.371 438.5,264.5C 441.829,264.785 444.829,264.118 447.5,262.5C 449.579,262.029 451.579,261.363 453.5,260.5 Z"/></g>
<g><path style="opacity:1" fill="#707170" d="M 453.5,260.5 C 454.209,259.596 455.209,259.263 456.5,259.5C 456.821,264.695 456.487,269.695 455.5,274.5C 456.103,269.381 455.436,264.715 453.5,260.5 Z"/></g>
<g><path style="opacity:1" fill="#0d0d0d" d="M 647.5,259.5 C 652.459,264.123 657.459,268.79 662.5,273.5C 657.5,277.833 652.833,282.5 648.5,287.5C 646.476,285.31 644.643,282.977 643,280.5C 639.996,278.326 637.163,275.992 634.5,273.5C 639.534,269.467 643.867,264.8 647.5,259.5 Z"/></g>
<g><path style="opacity:1" fill="#9ba0a0" d="M 389.5,260.5 C 395.406,262.161 401.406,263.828 407.5,265.5C 414.982,266.492 422.648,266.825 430.5,266.5C 430.657,267.873 430.49,269.207 430,270.5C 426.411,278.013 422.578,285.346 418.5,292.5C 414.881,291.756 411.215,291.423 407.5,291.5C 400.818,289.733 395.318,286.067 391,280.5C 390.209,279.255 389.709,277.922 389.5,276.5C 388.298,271.023 388.298,265.689 389.5,260.5 Z"/></g>
<g><path style="opacity:1" fill="#6d6e6c" d="M 447.5,262.5 C 444.829,264.118 441.829,264.785 438.5,264.5C 441.273,263.343 444.273,262.676 447.5,262.5 Z"/></g>
<g><path style="opacity:1" fill="#595a58" d="M 209.5,263.5 C 211.265,264.461 213.265,264.795 215.5,264.5C 213.307,265.797 210.973,265.797 208.5,264.5C 208.624,263.893 208.957,263.56 209.5,263.5 Z"/></g>
<g><path style="opacity:1" fill="#aeafad" d="M 191.5,262.5 C 188.668,265.755 185.001,267.422 180.5,267.5C 183.709,265.066 187.376,263.399 191.5,262.5 Z"/></g>
<g><path style="opacity:1" fill="#353635" d="M 438.5,264.5 C 435.997,265.371 433.33,266.037 430.5,266.5C 422.648,266.825 414.982,266.492 407.5,265.5C 417.854,265.638 428.188,265.305 438.5,264.5 Z"/></g>
<g><path style="opacity:1" fill="#b3b5b4" d="M 167.5,269.5 C 163.702,270.483 159.702,270.817 155.5,270.5C 155.771,272.38 155.104,273.713 153.5,274.5C 154.038,272.883 154.371,271.216 154.5,269.5C 158.833,269.5 163.167,269.5 167.5,269.5 Z"/></g>
<g><path style="opacity:1" fill="#656664" d="M 389.5,260.5 C 388.298,265.689 388.298,271.023 389.5,276.5C 388.778,276.082 388.278,275.416 388,274.5C 387.171,269.467 387.338,264.467 388.5,259.5C 389.107,259.624 389.44,259.957 389.5,260.5 Z"/></g>
<g><path style="opacity:1" fill="#929493" d="M 757.5,135.5 C 757.56,134.957 757.893,134.624 758.5,134.5C 759.831,188.332 759.831,241.998 758.5,295.5C 758.832,241.997 758.499,188.664 757.5,135.5 Z"/></g>
<g><path style="opacity:1" fill="#b1b2b0" d="M 768.5,236.5 C 768.168,241.161 767.835,245.828 767.5,250.5C 768.314,259.195 769.314,267.861 770.5,276.5C 769.732,275.737 769.232,274.737 769,273.5C 767.675,265.716 766.841,257.882 766.5,250C 766.308,245.228 766.975,240.728 768.5,236.5 Z"/></g>
<g><path style="opacity:1" fill="#0b0b0b" d="M 169.5,282.5 C 173.936,287.438 178.603,292.271 183.5,297C 178.333,300.833 173.833,305.333 170,310.5C 166.145,305.311 161.645,300.811 156.5,297C 159.306,293.866 162.472,291.033 166,288.5C 167.421,286.595 168.588,284.595 169.5,282.5 Z"/></g>
<g><path style="opacity:1" fill="#fcfcf9" d="M 614.5,352.5 C 615.457,357.032 616.79,361.365 618.5,365.5C 618.125,370.911 619.125,375.911 621.5,380.5C 621.5,381.5 621.5,382.5 621.5,383.5C 621.294,386.495 621.96,389.162 623.5,391.5C 633.392,446.516 643.392,501.516 653.5,556.5C 654.446,578.811 654.779,601.144 654.5,623.5C 654.5,644.833 654.5,666.167 654.5,687.5C 652.167,687.5 649.833,687.5 647.5,687.5C 629.816,665.812 612.483,643.812 595.5,621.5C 594.64,619.712 593.64,618.045 592.5,616.5C 587.489,611.651 582.989,606.317 579,600.5C 578.044,599.106 576.711,598.439 575,598.5C 556.98,601.545 539.48,606.212 522.5,612.5C 519.215,612.928 516.215,613.928 513.5,615.5C 511.447,615.402 509.78,616.069 508.5,617.5C 505.052,616.901 502.386,617.901 500.5,620.5C 497.057,621.059 494.057,622.393 491.5,624.5C 488.686,626.07 485.686,627.403 482.5,628.5C 480.62,628.229 479.287,628.896 478.5,630.5C 463.847,637.799 450.513,647.133 438.5,658.5C 425.01,632.677 405.01,613.677 378.5,601.5C 378.027,600.094 377.027,599.427 375.5,599.5C 340.763,583.888 304.43,578.221 266.5,582.5C 269.296,590.091 272.629,597.424 276.5,604.5C 287.998,605.429 299.665,606.096 311.5,606.5C 352.402,610.962 386.235,628.629 413,659.5C 417.001,664.832 420.501,670.498 423.5,676.5C 418.485,684.529 415.151,693.196 413.5,702.5C 412.325,702.719 411.325,702.386 410.5,701.5C 398.929,688.418 385.263,678.251 369.5,671C 330.045,654.511 290.545,638.011 251,621.5C 247.688,624.728 244.354,628.062 241,631.5C 226.284,649.882 211.95,668.548 198,687.5C 195.063,688.817 192.23,688.817 189.5,687.5C 189.5,644.167 189.5,600.833 189.5,557.5C 190.461,555.735 190.795,553.735 190.5,551.5C 191.785,548.411 192.451,545.078 192.5,541.5C 196.413,519.022 201.08,496.689 206.5,474.5C 198.139,445.352 202.972,418.685 221,394.5C 222.718,380.3 225.385,366.3 229,352.5C 234.247,341.423 242.081,332.756 252.5,326.5C 254.848,326.408 256.514,325.408 257.5,323.5C 284.378,310.396 311.378,297.229 338.5,284C 340.134,283.506 341.801,283.34 343.5,283.5C 349.998,309.001 356.998,334.335 364.5,359.5C 364.32,363.286 365.32,366.619 367.5,369.5C 367.32,373.286 368.32,376.619 370.5,379.5C 370.232,381.099 370.566,382.432 371.5,383.5C 371.41,386.152 372.076,388.485 373.5,390.5C 373.41,393.152 374.076,395.485 375.5,397.5C 375.41,400.152 376.076,402.485 377.5,404.5C 377.41,407.152 378.076,409.485 379.5,411.5C 379.171,414.228 379.837,416.562 381.5,418.5C 381.41,421.152 382.076,423.485 383.5,425.5C 383.41,428.152 384.076,430.485 385.5,432.5C 385.171,435.228 385.837,437.562 387.5,439.5C 389.408,443.903 390.741,448.57 391.5,453.5C 391.41,456.152 392.076,458.485 393.5,460.5C 393.59,464.214 394.59,467.548 396.5,470.5C 398.149,475.052 399.816,479.719 401.5,484.5C 415.15,485.499 428.817,485.833 442.5,485.5C 447.261,467.227 452.594,449.227 458.5,431.5C 460.277,428.495 461.277,425.162 461.5,421.5C 462.924,419.485 463.59,417.152 463.5,414.5C 465.41,411.548 466.41,408.214 466.5,404.5C 468.277,401.495 469.277,398.162 469.5,394.5C 469.232,392.901 469.566,391.568 470.5,390.5C 471.924,388.485 472.59,386.152 472.5,383.5C 474.61,379.498 475.943,375.165 476.5,370.5C 477.924,368.485 478.59,366.152 478.5,363.5C 480.483,360.201 481.483,356.534 481.5,352.5C 483.163,350.562 483.829,348.228 483.5,345.5C 484.807,342.275 485.807,338.941 486.5,335.5C 488.04,333.162 488.706,330.495 488.5,327.5C 492.84,312.478 497.34,297.478 502,282.5C 530.31,296.073 558.477,309.74 586.5,323.5C 590.101,326.594 594.101,329.094 598.5,331C 605.924,336.71 611.257,343.877 614.5,352.5 Z"/></g>
<g><path style="opacity:1" fill="#878887" d="M 781.5,269.5 C 783.014,275.595 783.68,281.928 783.5,288.5C 783.333,292.833 783.167,297.167 783,301.5C 782.892,305.465 782.059,309.132 780.5,312.5C 782.704,298.215 783.037,283.882 781.5,269.5 Z"/></g>
<g><path style="opacity:1" fill="#616160" d="M 269.5,289.5 C 269.027,290.906 268.027,291.573 266.5,291.5C 266.973,290.094 267.973,289.427 269.5,289.5 Z"/></g>
<g><path style="opacity:1" fill="#6a6b69" d="M 575.5,289.5 C 577.027,289.427 578.027,290.094 578.5,291.5C 576.973,291.573 575.973,290.906 575.5,289.5 Z"/></g>
<g><path style="opacity:1" fill="#5f605f" d="M 407.5,291.5 C 411.215,291.423 414.881,291.756 418.5,292.5C 422.167,292.5 425.833,292.5 429.5,292.5C 426.686,293.165 423.686,293.498 420.5,293.5C 415.893,293.684 411.56,293.017 407.5,291.5 Z"/></g>
<g><path style="opacity:1" fill="#a4a4a3" d="M 471.5,299.5 C 471.737,298.209 471.404,297.209 470.5,296.5C 471.075,293.985 472.075,293.485 473.5,295C 473.101,296.728 472.434,298.228 471.5,299.5 Z"/></g>
<g><path style="opacity:1" fill="#fcfcf9" d="M 470.5,296.5 C 471.404,297.209 471.737,298.209 471.5,299.5C 467.615,314.721 463.281,329.721 458.5,344.5C 455.899,350.884 453.899,357.551 452.5,364.5C 452.5,364.833 452.5,365.167 452.5,365.5C 450.192,369.497 448.859,373.83 448.5,378.5C 447.883,378.611 447.383,378.944 447,379.5C 446.39,382.827 445.89,386.161 445.5,389.5C 443.517,392.799 442.517,396.466 442.5,400.5C 440.926,402.102 440.259,404.102 440.5,406.5C 439.262,408.214 438.595,410.214 438.5,412.5C 437.076,414.515 436.41,416.848 436.5,419.5C 436.737,420.791 436.404,421.791 435.5,422.5C 434.076,424.515 433.41,426.848 433.5,429.5C 431.742,432.854 430.742,436.521 430.5,440.5C 427.259,447.439 424.925,454.773 423.5,462.5C 422.5,462.5 421.5,462.5 420.5,462.5C 418.924,453.852 416.591,445.519 413.5,437.5C 413.59,434.848 412.924,432.515 411.5,430.5C 411.073,427.99 410.407,425.657 409.5,423.5C 409.277,419.838 408.277,416.505 406.5,413.5C 405.769,408.562 404.435,403.895 402.5,399.5C 402.59,396.848 401.924,394.515 400.5,392.5C 400.253,389.146 399.253,386.146 397.5,383.5C 396.901,377.42 395.234,371.753 392.5,366.5C 391.434,364.299 390.767,361.965 390.5,359.5C 390.554,356.008 389.554,353.008 387.5,350.5C 386.071,347.692 385.405,344.692 385.5,341.5C 385.5,340.5 385.5,339.5 385.5,338.5C 390.179,339.893 394.846,341.393 399.5,343C 403.34,345.421 407.34,347.588 411.5,349.5C 412.207,336.756 417.207,326.089 426.5,317.5C 428.833,317.5 431.167,317.5 433.5,317.5C 439.444,317.355 444.778,315.688 449.5,312.5C 452.967,310.264 456.634,308.264 460.5,306.5C 464.833,304.167 468.167,300.833 470.5,296.5 Z"/></g>
<g><path style="opacity:1" fill="#737472" d="M 591.5,297.5 C 593.027,297.427 594.027,298.094 594.5,299.5C 592.973,299.573 591.973,298.906 591.5,297.5 Z"/></g>
<g><path style="opacity:1" fill="#b6b7b5" d="M 470.5,296.5 C 468.167,300.833 464.833,304.167 460.5,306.5C 463.5,302.833 466.833,299.5 470.5,296.5 Z"/></g>
<g><path style="opacity:1" fill="#060606" d="M 68.5,336.5 C 71.7769,337.633 75.2769,338.299 79,338.5C 86.8179,338.141 94.3179,336.807 101.5,334.5C 115.68,331.33 127.847,324.663 138,314.5C 138.5,314.833 139,315.167 139.5,315.5C 130.646,341.031 112.979,356.031 86.5,360.5C 80.4632,360.171 74.4632,360.504 68.5,361.5C 68.6236,362.107 68.9569,362.44 69.5,362.5C 78.0825,375.251 88.5825,386.251 101,395.5C 101.667,396.5 101.667,397.5 101,398.5C 96.14,403.579 92.3067,409.245 89.5,415.5C 87.2166,415.392 85.2166,414.559 83.5,413C 72.8908,403.396 63.3908,392.896 55,381.5C 47.9316,369.795 43.7649,357.128 42.5,343.5C 42.464,334.815 42.7974,326.149 43.5,317.5C 45.0937,309.642 48.7604,302.975 54.5,297.5C 54.9037,301.807 53.737,305.807 51,309.5C 49.297,323.435 55.1304,332.435 68.5,336.5 Z"/></g>
<g><path style="opacity:1" fill="#a8a9a7" d="M 108.5,301.5 C 111.491,301.166 113.824,302.166 115.5,304.5C 112.843,304.065 110.509,303.065 108.5,301.5 Z"/></g>
<g><path style="opacity:1" fill="#a8a9a7" d="M 598.5,301.5 C 601.313,301.025 603.313,302.025 604.5,304.5C 602.456,303.492 600.456,302.492 598.5,301.5 Z"/></g>
<g><path style="opacity:1" fill="#c9cac8" d="M 770.5,276.5 C 773.434,288.055 774.101,299.722 772.5,311.5C 772.315,299.803 771.649,288.137 770.5,276.5 Z"/></g>
<g><path style="opacity:1" fill="#a9aaa8" d="M 449.5,312.5 C 444.778,315.688 439.444,317.355 433.5,317.5C 438.726,315.843 444.059,314.177 449.5,312.5 Z"/></g>
<g><path style="opacity:1" fill="#9ca1a1" d="M 426.5,317.5 C 417.207,326.089 412.207,336.756 411.5,349.5C 407.34,347.588 403.34,345.421 399.5,343C 394.846,341.393 390.179,339.893 385.5,338.5C 385.5,339.5 385.5,340.5 385.5,341.5C 381.363,326.909 376.863,312.242 372,297.5C 371.219,296.056 371.386,294.723 372.5,293.5C 380.409,306.797 392.076,314.631 407.5,317C 413.825,317.5 420.158,317.666 426.5,317.5 Z"/></g>
<g><path style="opacity:1" fill="#a9aaa8" d="M 257.5,323.5 C 256.514,325.408 254.848,326.408 252.5,326.5C 253.659,324.75 255.326,323.75 257.5,323.5 Z"/></g>
<g><path style="opacity:1" fill="#353534" d="M 43.5,317.5 C 42.7974,326.149 42.464,334.815 42.5,343.5C 41.8351,340.518 41.5018,337.352 41.5,334C 41.4149,328.266 42.0816,322.766 43.5,317.5 Z"/></g>
<g><path style="opacity:1" fill="#8b8c8a" d="M 488.5,327.5 C 488.706,330.495 488.04,333.162 486.5,335.5C 486.565,332.572 487.232,329.905 488.5,327.5 Z"/></g>
<g><path style="opacity:1" fill="#060606" d="M 148.5,347.5 C 148.342,344.098 148.676,340.764 149.5,337.5C 152.463,331.855 157.13,330.022 163.5,332C 171.018,336.548 172.851,342.715 169,350.5C 160.824,357.928 153.991,356.928 148.5,347.5 Z"/></g>
<g><path style="opacity:1" fill="#090909" d="M 675.5,353.5 C 673.71,351.728 672.377,349.728 671.5,347.5C 669.742,335.485 675.075,330.319 687.5,332C 693.871,335.796 695.871,341.296 693.5,348.5C 689.109,355.746 683.109,357.413 675.5,353.5 Z"/></g>
<g><path style="opacity:1" fill="#a7a8a6" d="M 726.5,331.5 C 731.797,332.275 737.13,332.608 742.5,332.5C 740.527,333.163 738.361,333.496 736,333.5C 732.523,333.672 729.356,333.006 726.5,331.5 Z"/></g>
<g><path style="opacity:1" fill="#c1c2c0" d="M 101.5,334.5 C 94.3179,336.807 86.8179,338.141 79,338.5C 75.2769,338.299 71.7769,337.633 68.5,336.5C 79.5815,336.874 90.5815,336.207 101.5,334.5 Z"/></g>
<g><path style="opacity:1" fill="#7e807e" d="M 149.5,337.5 C 148.676,340.764 148.342,344.098 148.5,347.5C 147.362,344.696 147.195,341.696 148,338.5C 148.383,337.944 148.883,337.611 149.5,337.5 Z"/></g>
<g><path style="opacity:1" fill="#515251" d="M 205.5,345.5 C 204.613,350.722 203.279,355.722 201.5,360.5C 201.762,355.112 203.095,350.112 205.5,345.5 Z"/></g>
<g><path style="opacity:1" fill="#989997" d="M 458.5,344.5 C 457.41,351.546 455.41,358.213 452.5,364.5C 453.899,357.551 455.899,350.884 458.5,344.5 Z"/></g>
<g><path style="opacity:1" fill="#535452" d="M 639.5,345.5 C 641.074,347.102 641.741,349.102 641.5,351.5C 639.926,349.898 639.259,347.898 639.5,345.5 Z"/></g>
<g><path style="opacity:1" fill="#a1a2a0" d="M 671.5,347.5 C 672.377,349.728 673.71,351.728 675.5,353.5C 672.224,352.878 670.891,350.878 671.5,347.5 Z"/></g>
<g><path style="opacity:1" fill="#878987" d="M 483.5,345.5 C 483.829,348.228 483.163,350.562 481.5,352.5C 481.41,349.848 482.076,347.515 483.5,345.5 Z"/></g>
<g><path style="opacity:1" fill="#535452" d="M 641.5,351.5 C 642.913,354.219 643.58,357.219 643.5,360.5C 642.087,357.781 641.42,354.781 641.5,351.5 Z"/></g>
<g><path style="opacity:1" fill="#a1a2a0" d="M 387.5,350.5 C 389.554,353.008 390.554,356.008 390.5,359.5C 389.054,356.746 388.054,353.746 387.5,350.5 Z"/></g>
<g><path style="opacity:1" fill="#3d3d3c" d="M 724.5,355.5 C 730.121,356.354 735.788,356.687 741.5,356.5C 736.684,357.65 731.684,357.816 726.5,357C 725.584,356.722 724.918,356.222 724.5,355.5 Z"/></g>
<g><path style="opacity:1" fill="#bdbfbc" d="M 614.5,352.5 C 617.013,356.378 618.346,360.711 618.5,365.5C 616.79,361.365 615.457,357.032 614.5,352.5 Z"/></g>
<g><path style="opacity:1" fill="#8c8d8b" d="M 481.5,352.5 C 481.483,356.534 480.483,360.201 478.5,363.5C 478.742,359.521 479.742,355.854 481.5,352.5 Z"/></g>
<g><path style="opacity:1" fill="#6c6d6b" d="M 86.5,360.5 C 80.8333,361.167 75.1667,361.833 69.5,362.5C 68.9569,362.44 68.6236,362.107 68.5,361.5C 74.4632,360.504 80.4632,360.171 86.5,360.5 Z"/></g>
<g><path style="opacity:1" fill="#040404" d="M 578.5,361.5 C 579.499,431.665 579.833,501.998 579.5,572.5C 578.209,572.263 577.209,572.596 576.5,573.5C 570.513,574.409 564.847,576.076 559.5,578.5C 523.143,589.164 486.81,600.164 450.5,611.5C 448.509,586.856 447.843,561.856 448.5,536.5C 446.5,536.5 444.5,536.5 442.5,536.5C 442.232,538.099 442.566,539.432 443.5,540.5C 448.537,560.113 441.204,571.78 421.5,575.5C 416.821,574.442 412.154,573.276 407.5,572C 396.108,565.52 384.441,559.52 372.5,554C 364.667,550.167 358.833,544.333 355,536.5C 354.51,535.207 354.343,533.873 354.5,532.5C 354.505,528.466 354.838,524.466 355.5,520.5C 355.877,518.742 356.544,517.075 357.5,515.5C 351.855,512.094 346.021,509.094 340,506.5C 330.377,514.427 319.544,520.261 307.5,524C 274.214,531.69 248.048,521.523 229,493.5C 226.546,488.927 224.379,484.261 222.5,479.5C 221.538,475.605 220.204,471.939 218.5,468.5C 218.5,468.167 218.5,467.833 218.5,467.5C 217.882,460.183 217.549,452.849 217.5,445.5C 217.993,443.194 218.326,440.861 218.5,438.5C 220.405,434.784 221.739,430.784 222.5,426.5C 229.499,408.333 242.165,395.5 260.5,388C 265.165,386.389 269.832,384.889 274.5,383.5C 282.138,382.687 289.804,382.354 297.5,382.5C 299.265,383.461 301.265,383.795 303.5,383.5C 307.733,384.797 312.067,386.131 316.5,387.5C 334.862,395.529 347.862,408.862 355.5,427.5C 356.231,432.438 357.565,437.105 359.5,441.5C 360.655,448.655 360.822,455.988 360,463.5C 358.569,471.434 356.569,479.101 354,486.5C 375.485,497.492 396.985,508.325 418.5,519C 446.874,510.403 475.541,502.403 504.5,495C 506.157,464.05 507.157,432.883 507.5,401.5C 514.833,396.159 521.833,390.492 528.5,384.5C 530.495,426.82 531.161,469.487 530.5,512.5C 514.5,517.167 498.5,521.833 482.5,526.5C 479.123,526.959 475.789,527.626 472.5,528.5C 472.167,545.513 472.501,562.513 473.5,579.5C 474.739,579.058 475.739,578.391 476.5,577.5C 481.529,577.08 486.195,575.746 490.5,573.5C 510.689,567.791 530.689,561.791 550.5,555.5C 552.262,555.643 553.929,555.309 555.5,554.5C 556.5,495.837 556.833,437.17 556.5,378.5C 563.833,372.833 571.167,367.167 578.5,361.5 Z"/></g>
<g><path style="opacity:1" fill="#929391" d="M 364.5,359.5 C 366.277,362.505 367.277,365.838 367.5,369.5C 365.32,366.619 364.32,363.286 364.5,359.5 Z"/></g>
<g><path style="opacity:1" fill="#696a68" d="M 134.5,366.5 C 133.222,366.782 132.222,367.449 131.5,368.5C 131.5,367.5 131.5,366.5 131.5,365.5C 132.791,365.263 133.791,365.596 134.5,366.5 Z"/></g>
<g><path style="opacity:1" fill="#0a0a0a" d="M 134.5,366.5 C 136.063,371.646 139.063,375.646 143.5,378.5C 144.585,380.587 146.251,381.92 148.5,382.5C 149.842,383.793 151.509,384.626 153.5,385C 144.869,387.963 138.369,393.463 134,401.5C 128.856,394.184 122.356,388.517 114.5,384.5C 122.039,381.218 127.706,375.884 131.5,368.5C 132.222,367.449 133.222,366.782 134.5,366.5 Z"/></g>
<g><path style="opacity:1" fill="#848583" d="M 478.5,363.5 C 478.59,366.152 477.924,368.485 476.5,370.5C 476.41,367.848 477.076,365.515 478.5,363.5 Z"/></g>
<g><path style="opacity:1" fill="#090909" d="M 722.5,381.5 C 722.973,382.906 723.973,383.573 725.5,383.5C 726.167,384.167 726.833,384.833 727.5,385.5C 720.012,387.991 714.345,392.658 710.5,399.5C 709.21,400.058 708.377,401.058 708,402.5C 707.617,401.944 707.117,401.611 706.5,401.5C 704.503,396.988 701.503,393.155 697.5,390C 693.616,388.453 690.616,386.62 688.5,384.5C 690.153,384.34 691.486,383.674 692.5,382.5C 699.228,378.434 704.228,372.767 707.5,365.5C 710.567,369.287 713.4,373.287 716,377.5C 718.069,379.085 720.236,380.419 722.5,381.5 Z"/></g>
<g><path style="opacity:1" fill="#90918f" d="M 392.5,366.5 C 395.234,371.753 396.901,377.42 397.5,383.5C 395.388,378.068 393.721,372.402 392.5,366.5 Z"/></g>
<g><path style="opacity:1" fill="#050505" d="M 763.5,366.5 C 764.726,375.019 764.726,383.685 763.5,392.5C 757.439,413.735 744.105,428.568 723.5,437C 714.391,441.458 704.725,443.958 694.5,444.5C 693.167,444.5 691.833,444.5 690.5,444.5C 690.5,436.5 690.5,428.5 690.5,420.5C 724.403,415.616 748.736,397.616 763.5,366.5 Z"/></g>
<g><path style="opacity:1" fill="#717271" d="M 763.5,366.5 C 763.56,365.957 763.893,365.624 764.5,365.5C 765.665,373.479 765.832,381.479 765,389.5C 764.768,390.737 764.268,391.737 763.5,392.5C 764.726,383.685 764.726,375.019 763.5,366.5 Z"/></g>
<g><path style="opacity:1" fill="#a6a7a5" d="M 452.5,365.5 C 452.231,370.264 450.898,374.597 448.5,378.5C 448.859,373.83 450.192,369.497 452.5,365.5 Z"/></g>
<g><path style="opacity:1" fill="#bcbdbb" d="M 618.5,365.5 C 620.022,370.273 621.022,375.273 621.5,380.5C 619.125,375.911 618.125,370.911 618.5,365.5 Z"/></g>
<g><path style="opacity:1" fill="#959694" d="M 367.5,369.5 C 368.87,372.619 369.87,375.952 370.5,379.5C 368.32,376.619 367.32,373.286 367.5,369.5 Z"/></g>
<g><path style="opacity:1" fill="#8e8f8e" d="M 476.5,370.5 C 475.943,375.165 474.61,379.498 472.5,383.5C 473.057,378.835 474.39,374.502 476.5,370.5 Z"/></g>
<g><path style="opacity:1" fill="#474746" d="M 199.5,372.5 C 199.841,376.16 199.175,379.493 197.5,382.5C 197.753,378.96 198.419,375.627 199.5,372.5 Z"/></g>
<g><path style="opacity:1" fill="#abacaa" d="M 143.5,378.5 C 145.749,379.08 147.415,380.413 148.5,382.5C 146.251,381.92 144.585,380.587 143.5,378.5 Z"/></g>
<g><path style="opacity:1" fill="#aaaba9" d="M 448.5,378.5 C 448.483,382.534 447.483,386.201 445.5,389.5C 445.89,386.161 446.39,382.827 447,379.5C 447.383,378.944 447.883,378.611 448.5,378.5 Z"/></g>
<g><path style="opacity:1" fill="#818280" d="M 297.5,382.5 C 289.804,382.354 282.138,382.687 274.5,383.5C 275.263,382.732 276.263,382.232 277.5,382C 284.346,381.179 291.013,381.346 297.5,382.5 Z"/></g>
<g><path style="opacity:1" fill="#090909" d="M 88.5,449.5 C 89.355,450.531 90.0217,451.697 90.5,453C 89.0944,454.978 88.0944,457.145 87.5,459.5C 85.9348,461.509 84.9348,463.843 84.5,466.5C 82.9605,468.838 82.2938,471.505 82.5,474.5C 68.2549,465.756 56.4215,454.423 47,440.5C 36.3391,420.903 34.1724,400.569 40.5,379.5C 48.0919,408.71 64.0919,432.044 88.5,449.5 Z"/></g>
<g><path style="opacity:1" fill="#868786" d="M 722.5,381.5 C 724.027,381.427 725.027,382.094 725.5,383.5C 723.973,383.573 722.973,382.906 722.5,381.5 Z"/></g>
<g><path style="opacity:1" fill="#777876" d="M 692.5,382.5 C 691.486,383.674 690.153,384.34 688.5,384.5C 689.287,382.896 690.62,382.229 692.5,382.5 Z"/></g>
<g><path style="opacity:1" fill="#b4b5b3" d="M 303.5,383.5 C 308.636,382.663 312.969,383.997 316.5,387.5C 312.067,386.131 307.733,384.797 303.5,383.5 Z"/></g>
<g><path style="opacity:1" fill="#8a8b89" d="M 725.5,383.5 C 726.675,383.281 727.675,383.614 728.5,384.5C 728.376,385.107 728.043,385.44 727.5,385.5C 726.833,384.833 726.167,384.167 725.5,383.5 Z"/></g>
<g><path style="opacity:1" fill="#454645" d="M 646.5,377.5 C 647.525,380.974 648.192,384.64 648.5,388.5C 647.778,388.082 647.278,387.416 647,386.5C 646.502,383.518 646.335,380.518 646.5,377.5 Z"/></g>
<g><path style="opacity:1" fill="#828382" d="M 371.5,383.5 C 372.924,385.515 373.59,387.848 373.5,390.5C 372.076,388.485 371.41,386.152 371.5,383.5 Z"/></g>
<g><path style="opacity:1" fill="#838583" d="M 472.5,383.5 C 472.59,386.152 471.924,388.485 470.5,390.5C 470.41,387.848 471.076,385.515 472.5,383.5 Z"/></g>
<g><path style="opacity:1" fill="#8b8c8b" d="M 397.5,383.5 C 399.253,386.146 400.253,389.146 400.5,392.5C 398.747,389.854 397.747,386.854 397.5,383.5 Z"/></g>
<g><path style="opacity:1" fill="#a5a6a5" d="M 621.5,383.5 C 622.768,385.905 623.435,388.572 623.5,391.5C 621.96,389.162 621.294,386.495 621.5,383.5 Z"/></g>
<g><path style="opacity:1" fill="#616261" d="M 445.5,389.5 C 445.074,393.427 444.074,397.093 442.5,400.5C 442.517,396.466 443.517,392.799 445.5,389.5 Z"/></g>
<g><path style="opacity:1" fill="#191918" d="M 578.5,361.5 C 578.5,361.167 578.5,360.833 578.5,360.5C 580.497,430.825 581.163,501.492 580.5,572.5C 580.167,572.5 579.833,572.5 579.5,572.5C 579.833,501.998 579.499,431.665 578.5,361.5 Z"/></g>
<g><path style="opacity:1" fill="#929392" d="M 373.5,390.5 C 374.924,392.515 375.59,394.848 375.5,397.5C 374.076,395.485 373.41,393.152 373.5,390.5 Z"/></g>
<g><path style="opacity:1" fill="#818281" d="M 400.5,392.5 C 401.924,394.515 402.59,396.848 402.5,399.5C 401.076,397.485 400.41,395.152 400.5,392.5 Z"/></g>
<g><path style="opacity:1" fill="#9fa09f" d="M 469.5,394.5 C 469.277,398.162 468.277,401.495 466.5,404.5C 466.723,400.838 467.723,397.505 469.5,394.5 Z"/></g>
<g><path style="opacity:1" fill="#747574" d="M 402.5,399.5 C 404.435,403.895 405.769,408.562 406.5,413.5C 404.254,409.195 402.92,404.529 402.5,399.5 Z"/></g>
<g><path style="opacity:1" fill="#949594" d="M 710.5,399.5 C 710.428,401.311 709.595,402.644 708,403.5C 706.97,403.164 706.47,402.497 706.5,401.5C 707.117,401.611 707.617,401.944 708,402.5C 708.377,401.058 709.21,400.058 710.5,399.5 Z"/></g>
<g><path style="opacity:1" fill="#919290" d="M 375.5,397.5 C 376.924,399.515 377.59,401.848 377.5,404.5C 376.076,402.485 375.41,400.152 375.5,397.5 Z"/></g>
<g><path style="opacity:1" fill="#757775" d="M 442.5,400.5 C 442.405,402.786 441.738,404.786 440.5,406.5C 440.259,404.102 440.926,402.102 442.5,400.5 Z"/></g>
<g><path style="opacity:1" fill="#fafbf7" d="M 297.5,407.5 C 321.71,412.887 334.71,428.054 336.5,453C 333.849,486.987 315.515,503.32 281.5,502C 263.118,498.492 250.785,487.992 244.5,470.5C 244.435,467.572 243.768,464.905 242.5,462.5C 241.555,457.595 241.221,452.595 241.5,447.5C 243.408,443.097 244.741,438.43 245.5,433.5C 246.906,433.027 247.573,432.027 247.5,430.5C 252.551,421.782 259.551,415.115 268.5,410.5C 277.953,407.86 287.62,406.86 297.5,407.5 Z"/></g>
<g><path style="opacity:1" fill="#8d8f8d" d="M 377.5,404.5 C 378.924,406.515 379.59,408.848 379.5,411.5C 378.076,409.485 377.41,407.152 377.5,404.5 Z"/></g>
<g><path style="opacity:1" fill="#a0a19f" d="M 466.5,404.5 C 466.41,408.214 465.41,411.548 463.5,414.5C 463.723,410.838 464.723,407.505 466.5,404.5 Z"/></g>
<g><path style="opacity:1" fill="#969795" d="M 297.5,407.5 C 287.62,406.86 277.953,407.86 268.5,410.5C 277.857,405.658 287.524,404.658 297.5,407.5 Z"/></g>
<g><path style="opacity:1" fill="#050505" d="M 151.5,420.5 C 151.5,428.167 151.5,435.833 151.5,443.5C 146.518,442.947 141.518,442.613 136.5,442.5C 133.402,442.244 130.402,441.578 127.5,440.5C 118.959,437.48 110.792,433.48 103,428.5C 102.251,427.365 102.417,426.365 103.5,425.5C 108.685,421.149 113.351,416.316 117.5,411C 128.153,416.001 139.487,419.168 151.5,420.5 Z"/></g>
<g><path style="opacity:1" fill="#323231" d="M 192.5,409.5 C 192.76,415.194 191.76,420.527 189.5,425.5C 189.956,419.939 190.956,414.606 192.5,409.5 Z"/></g>
<g><path style="opacity:1" fill="#6d6e6d" d="M 406.5,413.5 C 408.277,416.505 409.277,419.838 409.5,423.5C 407.723,420.495 406.723,417.162 406.5,413.5 Z"/></g>
<g><path style="opacity:1" fill="#a7a8a6" d="M 379.5,411.5 C 380.924,413.515 381.59,415.848 381.5,418.5C 379.837,416.562 379.171,414.228 379.5,411.5 Z"/></g>
<g><path style="opacity:1" fill="#989897" d="M 463.5,414.5 C 463.59,417.152 462.924,419.485 461.5,421.5C 461.41,418.848 462.076,416.515 463.5,414.5 Z"/></g>
<g><path style="opacity:1" fill="#494948" d="M 438.5,412.5 C 438.829,415.228 438.163,417.562 436.5,419.5C 436.41,416.848 437.076,414.515 438.5,412.5 Z"/></g>
<g><path style="opacity:1" fill="#0c0c0c" d="M 282.5,418.5 C 286.514,418.334 290.514,418.501 294.5,419C 299.368,421.477 299.701,424.477 295.5,428C 276.457,429.282 265.957,439.449 264,458.5C 261.142,461.35 257.975,461.85 254.5,460C 253.288,439.047 262.621,425.213 282.5,418.5 Z"/></g>
<g><path style="opacity:1" fill="#a7a8a6" d="M 381.5,418.5 C 382.924,420.515 383.59,422.848 383.5,425.5C 382.076,423.485 381.41,421.152 381.5,418.5 Z"/></g>
<g><path style="opacity:1" fill="#8f908e" d="M 690.5,420.5 C 690.5,428.5 690.5,436.5 690.5,444.5C 691.833,444.5 693.167,444.5 694.5,444.5C 693.081,445.451 691.415,445.784 689.5,445.5C 689.174,436.983 689.507,428.65 690.5,420.5 Z"/></g>
<g><path style="opacity:1" fill="#9fa19f" d="M 461.5,421.5 C 461.277,425.162 460.277,428.495 458.5,431.5C 458.723,427.838 459.723,424.505 461.5,421.5 Z"/></g>
<g><path style="opacity:1" fill="#a5a6a5" d="M 528.5,384.5 C 529.209,383.596 530.209,383.263 531.5,383.5C 531.832,426.67 531.499,469.67 530.5,512.5C 531.161,469.487 530.495,426.82 528.5,384.5 Z"/></g>
<g><path style="opacity:1" fill="#a6a7a5" d="M 383.5,425.5 C 384.924,427.515 385.59,429.848 385.5,432.5C 384.076,430.485 383.41,428.152 383.5,425.5 Z"/></g>
<g><path style="opacity:1" fill="#5d5e5c" d="M 435.5,422.5 C 435.59,425.152 434.924,427.485 433.5,429.5C 433.41,426.848 434.076,424.515 435.5,422.5 Z"/></g>
<g><path style="opacity:1" fill="#7b7c7b" d="M 222.5,426.5 C 221.739,430.784 220.405,434.784 218.5,438.5C 218.861,434.085 220.194,430.085 222.5,426.5 Z"/></g>
<g><path style="opacity:1" fill="#383837" d="M 355.5,427.5 C 357.746,431.805 359.08,436.471 359.5,441.5C 357.565,437.105 356.231,432.438 355.5,427.5 Z"/></g>
<g><path style="opacity:1" fill="#848583" d="M 247.5,430.5 C 247.573,432.027 246.906,433.027 245.5,433.5C 245.427,431.973 246.094,430.973 247.5,430.5 Z"/></g>
<g><path style="opacity:1" fill="#515251" d="M 433.5,429.5 C 433.258,433.479 432.258,437.146 430.5,440.5C 430.742,436.521 431.742,432.854 433.5,429.5 Z"/></g>
<g><path style="opacity:1" fill="#60605f" d="M 411.5,430.5 C 412.924,432.515 413.59,434.848 413.5,437.5C 412.076,435.485 411.41,433.152 411.5,430.5 Z"/></g>
<g><path style="opacity:1" fill="#767876" d="M 578.5,360.5 C 579.209,359.596 580.209,359.263 581.5,359.5C 581.833,430.669 581.499,501.669 580.5,572.5C 581.163,501.492 580.497,430.825 578.5,360.5 Z"/></g>
<g><path style="opacity:1" fill="#898a89" d="M 245.5,433.5 C 244.741,438.43 243.408,443.097 241.5,447.5C 241.85,442.46 243.184,437.794 245.5,433.5 Z"/></g>
<g><path style="opacity:1" fill="#9e9f9e" d="M 385.5,432.5 C 386.924,434.515 387.59,436.848 387.5,439.5C 385.837,437.562 385.171,435.228 385.5,432.5 Z"/></g>
<g><path style="opacity:1" fill="#d2d3d0" d="M 127.5,440.5 C 130.402,441.578 133.402,442.244 136.5,442.5C 141.616,443.806 146.949,444.473 152.5,444.5C 151.207,445.158 149.707,445.492 148,445.5C 143.828,445.041 139.662,444.541 135.5,444C 132.334,443.678 129.667,442.511 127.5,440.5 Z"/></g>
<g><path style="opacity:1" fill="#2e2f2e" d="M 151.5,420.5 C 152.492,428.316 152.826,436.316 152.5,444.5C 146.949,444.473 141.616,443.806 136.5,442.5C 141.518,442.613 146.518,442.947 151.5,443.5C 151.5,435.833 151.5,428.167 151.5,420.5 Z"/></g>
<g><path style="opacity:1" fill="#b9bab8" d="M 88.5,449.5 C 90.3841,449.712 91.7174,450.712 92.5,452.5C 91.0985,455.202 89.4318,457.535 87.5,459.5C 88.0944,457.145 89.0944,454.978 90.5,453C 90.0217,451.697 89.355,450.531 88.5,449.5 Z"/></g>
<g><path style="opacity:1" fill="#868785" d="M 217.5,445.5 C 217.549,452.849 217.882,460.183 218.5,467.5C 217.032,463.258 216.366,458.758 216.5,454C 216.502,450.979 216.836,448.146 217.5,445.5 Z"/></g>
<g><path style="opacity:1" fill="#a5a6a4" d="M 391.5,453.5 C 392.924,455.515 393.59,457.848 393.5,460.5C 392.076,458.485 391.41,456.152 391.5,453.5 Z"/></g>
<g><path style="opacity:1" fill="#acadab" d="M 393.5,460.5 C 395.277,463.505 396.277,466.838 396.5,470.5C 394.59,467.548 393.59,464.214 393.5,460.5 Z"/></g>
<g><path style="opacity:1" fill="#8b8c8b" d="M 242.5,462.5 C 243.768,464.905 244.435,467.572 244.5,470.5C 242.96,468.162 242.294,465.495 242.5,462.5 Z"/></g>
<g><path style="opacity:1" fill="#989997" d="M 117.5,467.5 C 114.763,467.401 112.096,467.735 109.5,468.5C 110.492,466.974 111.992,466.307 114,466.5C 115.385,466.514 116.551,466.848 117.5,467.5 Z"/></g>
<g><path style="opacity:1" fill="#070707" d="M 117.5,467.5 C 128.556,472.294 131.056,479.961 125,490.5C 115.542,497.993 107.542,496.659 101,486.5C 99.35,480.074 100.85,474.574 105.5,470C 106.745,469.209 108.078,468.709 109.5,468.5C 112.096,467.735 114.763,467.401 117.5,467.5 Z"/></g>
<g><path style="opacity:1" fill="#070707" d="M 732.5,467.5 C 734.456,468.492 736.456,469.492 738.5,470.5C 743.682,476.246 744.515,482.579 741,489.5C 732.466,497.74 724.466,497.407 717,488.5C 713.55,475.119 718.717,468.119 732.5,467.5 Z"/></g>
<g><path style="opacity:1" fill="#a8a9a6" d="M 732.5,467.5 C 735.313,467.025 737.313,468.025 738.5,470.5C 736.456,469.492 734.456,468.492 732.5,467.5 Z"/></g>
<g><path style="opacity:1" fill="#a4a5a4" d="M 84.5,466.5 C 84.4349,469.428 83.7682,472.095 82.5,474.5C 82.2938,471.505 82.9605,468.838 84.5,466.5 Z"/></g>
<g><path style="opacity:1" fill="#949694" d="M 218.5,468.5 C 220.204,471.939 221.538,475.605 222.5,479.5C 219.81,476.431 218.477,472.764 218.5,468.5 Z"/></g>
<g><path style="opacity:1" fill="#b2b3b1" d="M 556.5,378.5 C 556.833,437.17 556.5,495.837 555.5,554.5C 553.929,555.309 552.262,555.643 550.5,555.5C 551.641,554.661 552.974,553.994 554.5,553.5C 555.167,495.001 555.833,436.668 556.5,378.5 Z"/></g>
<g><path style="opacity:1" fill="#0c0c0c" d="M 64.5,485.5 C 65.4959,485.414 66.3292,485.748 67,486.5C 74.0113,497.928 83.8447,505.928 96.5,510.5C 86.2285,515.964 77.5619,523.298 70.5,532.5C 67.6156,528.558 64.6156,524.725 61.5,521C 64.3008,517.032 67.6341,513.532 71.5,510.5C 67.9262,507.017 65.0928,503.017 63,498.5C 62.1504,493.979 62.6504,489.645 64.5,485.5 Z"/></g>
<g><path style="opacity:1" fill="#0b0b0b" d="M 776.5,485.5 C 778.411,485.574 779.578,486.574 780,488.5C 780.667,492.5 780.667,496.5 780,500.5C 777.354,503.98 774.521,507.314 771.5,510.5C 775.473,513.806 779.14,517.473 782.5,521.5C 779.138,525.192 775.805,528.859 772.5,532.5C 765.554,522.89 756.554,515.89 745.5,511.5C 752.831,507.837 759.831,503.67 766.5,499C 770.461,494.886 773.795,490.386 776.5,485.5 Z"/></g>
<g><path style="opacity:1" fill="#b7b8b6" d="M 175.5,498.5 C 174.785,505.409 173.451,512.076 171.5,518.5C 172.007,512.466 172.841,506.466 174,500.5C 174.278,499.584 174.778,498.918 175.5,498.5 Z"/></g>
<g><path style="opacity:1" fill="#10100f" d="M 704.5,500.5 C 705.239,500.369 705.906,500.536 706.5,501C 709.289,504.623 712.289,507.956 715.5,511C 712.671,514.995 709.338,518.495 705.5,521.5C 702.484,517.485 698.817,514.152 694.5,511.5C 697.855,507.813 701.189,504.147 704.5,500.5 Z"/></g>
<g><path style="opacity:1" fill="#101010" d="M 135.5,500.5 C 136.552,500.351 137.552,500.517 138.5,501C 141.893,504.056 144.893,507.389 147.5,511C 144.699,514.968 141.366,518.468 137.5,521.5C 133.833,518.167 130.167,514.833 126.5,511.5C 129.925,508.085 132.925,504.419 135.5,500.5 Z"/></g>
<g><path style="opacity:1" fill="#aeafad" d="M 171.5,521.5 C 170.451,529.419 168.785,537.086 166.5,544.5C 167.469,537.485 168.636,530.485 170,523.5C 170.278,522.584 170.778,521.918 171.5,521.5 Z"/></g>
<g><path style="opacity:1" fill="#eff0ed" d="M 389.5,539.5 C 389.027,538.094 388.027,537.427 386.5,537.5C 384.716,537.107 383.05,536.441 381.5,535.5C 381.027,534.094 380.027,533.427 378.5,533.5C 373.58,531.505 372.58,528.339 375.5,524C 376.729,523.219 378.062,522.719 379.5,522.5C 394.463,530.316 409.463,538.149 424.5,546C 426.984,548.284 427.151,550.784 425,553.5C 424.044,554.894 422.711,555.561 421,555.5C 409.953,551.06 399.453,545.727 389.5,539.5 Z"/></g>
<g><path style="opacity:1" fill="#696a68" d="M 355.5,520.5 C 354.838,524.466 354.505,528.466 354.5,532.5C 353.842,531.207 353.508,529.707 353.5,528C 353.408,525.179 354.074,522.679 355.5,520.5 Z"/></g>
<g><path style="opacity:1" fill="#e8e9e5" d="M 482.5,526.5 C 479.67,527.51 477.17,529.177 475,531.5C 474.964,537.572 475.131,543.405 475.5,549C 473.9,558.436 473.233,567.936 473.5,577.5C 474.5,577.5 475.5,577.5 476.5,577.5C 475.739,578.391 474.739,579.058 473.5,579.5C 472.501,562.513 472.167,545.513 472.5,528.5C 475.789,527.626 479.123,526.959 482.5,526.5 Z"/></g>
<g><path style="opacity:1" fill="#797a79" d="M 378.5,533.5 C 380.027,533.427 381.027,534.094 381.5,535.5C 379.973,535.573 378.973,534.906 378.5,533.5 Z"/></g>
<g><path style="opacity:1" fill="#a1a2a0" d="M 674.5,534.5 C 676.223,536.78 676.889,539.447 676.5,542.5C 675.469,540.039 674.802,537.373 674.5,534.5 Z"/></g>
<g><path style="opacity:1" fill="#7d7e7d" d="M 386.5,537.5 C 388.027,537.427 389.027,538.094 389.5,539.5C 387.973,539.573 386.973,538.906 386.5,537.5 Z"/></g>
<g><path style="opacity:1" fill="#0c0c0b" d="M 733.5,539.5 C 734.5,539.5 735.5,539.5 736.5,539.5C 738.449,550.46 744.782,557.793 755.5,561.5C 749.552,564.058 744.386,567.725 740,572.5C 738.259,575.309 737.092,578.309 736.5,581.5C 735.325,581.719 734.325,581.386 733.5,580.5C 732.31,575.949 729.976,572.116 726.5,569C 722.296,566.736 718.296,564.236 714.5,561.5C 725.173,557.833 731.506,550.5 733.5,539.5 Z"/></g>
<g><path style="opacity:1" fill="#0a0a0a" d="M 87.5,561.5 C 90.4848,560.674 93.1515,559.341 95.5,557.5C 101.785,552.939 106.118,546.939 108.5,539.5C 112.035,549.701 118.702,557.034 128.5,561.5C 119.447,565.886 112.78,572.553 108.5,581.5C 104.008,572.003 97.0076,565.336 87.5,561.5 Z"/></g>
<g><path style="opacity:1" fill="#555655" d="M 192.5,541.5 C 192.451,545.078 191.785,548.411 190.5,551.5C 190.322,547.878 190.989,544.544 192.5,541.5 Z"/></g>
<g><path style="opacity:1" fill="#c3c4c2" d="M 95.5,557.5 C 93.1515,559.341 90.4848,560.674 87.5,561.5C 89.0887,560.128 90.4221,558.461 91.5,556.5C 92.7362,557.246 94.0695,557.579 95.5,557.5 Z"/></g>
<g><path style="opacity:1" fill="#919492" d="M 450.5,611.5 C 449.791,612.404 448.791,612.737 447.5,612.5C 447.5,587.5 447.5,562.5 447.5,537.5C 446.167,537.5 444.833,537.5 443.5,537.5C 443.5,538.5 443.5,539.5 443.5,540.5C 442.566,539.432 442.232,538.099 442.5,536.5C 444.5,536.5 446.5,536.5 448.5,536.5C 447.843,561.856 448.509,586.856 450.5,611.5 Z"/></g>
<g><path style="opacity:1" fill="#979795" d="M 166.5,544.5 C 166.257,550.184 165.757,555.851 165,561.5C 164.5,631.499 164.333,701.499 164.5,771.5C 141.833,771.5 119.167,771.5 96.5,771.5C 118.66,770.503 140.994,770.169 163.5,770.5C 163.333,699.499 163.5,628.499 164,557.5C 164.614,552.985 165.448,548.652 166.5,544.5 Z"/></g>
<g><path style="opacity:1" fill="#111111" d="M 136.5,572.5 C 137.675,572.281 138.675,572.614 139.5,573.5C 141.86,576.527 144.527,579.194 147.5,581.5C 144.138,585.192 140.805,588.859 137.5,592.5C 133.951,589.448 130.617,586.281 127.5,583C 130.322,579.345 133.322,575.845 136.5,572.5 Z"/></g>
<g><path style="opacity:1" fill="#bebfbd" d="M 490.5,573.5 C 486.195,575.746 481.529,577.08 476.5,577.5C 480.895,575.565 485.562,574.231 490.5,573.5 Z"/></g>
<g><path style="opacity:1" fill="#0f0f0f" d="M 704.5,572.5 C 708.925,575.419 712.925,578.919 716.5,583C 713.339,586.327 710.006,589.494 706.5,592.5C 703.195,588.859 699.862,585.192 696.5,581.5C 699.189,578.48 701.856,575.48 704.5,572.5 Z"/></g>
<g><path style="opacity:1" fill="#afb0ae" d="M 576.5,573.5 C 575.493,574.828 574.16,575.828 572.5,576.5C 568.188,577.354 563.854,578.021 559.5,578.5C 564.847,576.076 570.513,574.409 576.5,573.5 Z"/></g>
<g><path style="opacity:1" fill="#727372" d="M 653.5,556.5 C 654.29,557.609 654.79,558.942 655,560.5C 655.5,581.497 655.667,602.497 655.5,623.5C 655.167,623.5 654.833,623.5 654.5,623.5C 654.779,601.144 654.446,578.811 653.5,556.5 Z"/></g>
<g><path style="opacity:1" fill="#666765" d="M 375.5,599.5 C 377.027,599.427 378.027,600.094 378.5,601.5C 376.973,601.573 375.973,600.906 375.5,599.5 Z"/></g>
<g><path style="opacity:1" fill="#c6c7c5" d="M 276.5,604.5 C 285.839,604.334 295.173,604.5 304.5,605C 307.036,605.186 309.369,605.686 311.5,606.5C 299.665,606.096 287.998,605.429 276.5,604.5 Z"/></g>
<g><path style="opacity:1" fill="#3e3f3e" d="M 189.5,557.5 C 189.5,600.833 189.5,644.167 189.5,687.5C 188.677,684.023 188.177,680.356 188,676.5C 187.333,642.167 187.333,607.833 188,573.5C 188.173,567.984 188.673,562.651 189.5,557.5 Z"/></g>
<g><path style="opacity:1" fill="#60605f" d="M 522.5,612.5 C 519.916,614.472 516.916,615.472 513.5,615.5C 516.215,613.928 519.215,612.928 522.5,612.5 Z"/></g>
<g><path style="opacity:1" fill="#858684" d="M 513.5,615.5 C 512.22,616.931 510.553,617.598 508.5,617.5C 509.78,616.069 511.447,615.402 513.5,615.5 Z"/></g>
<g><path style="opacity:1" fill="#bcbdbb" d="M 508.5,617.5 C 506.208,619.267 503.542,620.267 500.5,620.5C 502.386,617.901 505.052,616.901 508.5,617.5 Z"/></g>
<g><path style="opacity:1" fill="#f3f4f0" d="M 592.5,616.5 C 593.64,618.045 594.64,619.712 595.5,621.5C 594.127,621.343 592.793,621.51 591.5,622C 589.935,623.412 588.269,624.579 586.5,625.5C 583.088,626.042 580.088,627.375 577.5,629.5C 576.486,630.674 575.153,631.34 573.5,631.5C 571.62,631.229 570.287,631.896 569.5,633.5C 539.859,645.218 510.193,657.051 480.5,669C 470.431,673.928 460.764,679.428 451.5,685.5C 450.624,685.631 449.957,685.298 449.5,684.5C 450.127,683.583 450.461,682.583 450.5,681.5C 455.704,675.129 461.704,669.629 468.5,665C 478.336,658.088 488.669,652.254 499.5,647.5C 503.836,647.163 507.503,645.496 510.5,642.5C 521.767,639.411 532.767,635.744 543.5,631.5C 548.165,630.943 552.498,629.61 556.5,627.5C 561.739,626.659 566.739,625.326 571.5,623.5C 577.438,621.471 583.604,619.805 590,618.5C 591.376,618.316 592.209,617.649 592.5,616.5 Z"/></g>
<g><path style="opacity:1" fill="#777876" d="M 500.5,620.5 C 497.912,622.592 494.912,623.925 491.5,624.5C 494.057,622.393 497.057,621.059 500.5,620.5 Z"/></g>
<g><path style="opacity:1" fill="#a0a19f" d="M 571.5,623.5 C 566.739,625.326 561.739,626.659 556.5,627.5C 561.126,625.168 566.126,623.835 571.5,623.5 Z"/></g>
<g><path style="opacity:1" fill="#959695" d="M 586.5,625.5 C 583.912,627.625 580.912,628.958 577.5,629.5C 580.088,627.375 583.088,626.042 586.5,625.5 Z"/></g>
<g><path style="opacity:1" fill="#797a78" d="M 137.5,630.5 C 133.5,629.167 129.5,629.167 125.5,630.5C 125.611,629.883 125.944,629.383 126.5,629C 129.833,628.333 133.167,628.333 136.5,629C 137.056,629.383 137.389,629.883 137.5,630.5 Z"/></g>
<g><path style="opacity:1" fill="#797a78" d="M 716.5,629.5 C 713.098,629.342 709.764,629.676 706.5,630.5C 706.611,629.883 706.944,629.383 707.5,629C 710.696,628.195 713.696,628.362 716.5,629.5 Z"/></g>
<g><path style="opacity:1" fill="#090909" d="M 137.5,630.5 C 145.119,636.491 145.453,642.991 138.5,650C 128.136,655.166 121.803,651.999 119.5,640.5C 119.99,636.176 121.99,632.843 125.5,630.5C 129.5,629.167 133.5,629.167 137.5,630.5 Z"/></g>
<g><path style="opacity:1" fill="#7c7d7c" d="M 482.5,628.5 C 481.486,629.674 480.153,630.34 478.5,630.5C 479.287,628.896 480.62,628.229 482.5,628.5 Z"/></g>
<g><path style="opacity:1" fill="#060606" d="M 716.5,629.5 C 725.781,636.706 725.781,644.039 716.5,651.5C 712.227,651.919 708.227,651.252 704.5,649.5C 700.401,645.159 699.568,640.159 702,634.5C 703.307,632.808 704.807,631.475 706.5,630.5C 709.764,629.676 713.098,629.342 716.5,629.5 Z"/></g>
<g><path style="opacity:1" fill="#a9aaa9" d="M 556.5,627.5 C 552.498,629.61 548.165,630.943 543.5,631.5C 547.502,629.39 551.835,628.057 556.5,627.5 Z"/></g>
<g><path style="opacity:1" fill="#858684" d="M 573.5,631.5 C 572.486,632.674 571.153,633.34 569.5,633.5C 570.287,631.896 571.62,631.229 573.5,631.5 Z"/></g>
<g><path style="opacity:1" fill="#9e9f9d" d="M 543.5,631.5 C 532.767,635.744 521.767,639.411 510.5,642.5C 521.086,637.86 532.086,634.194 543.5,631.5 Z"/></g>
<g><path style="opacity:1" fill="#b8b8b6" d="M 510.5,642.5 C 507.503,645.496 503.836,647.163 499.5,647.5C 502.74,645.049 506.407,643.382 510.5,642.5 Z"/></g>
<g><path style="opacity:1" fill="#626362" d="M 704.5,649.5 C 708.227,651.252 712.227,651.919 716.5,651.5C 713.432,653.951 710.099,654.118 706.5,652C 705.619,651.292 704.953,650.458 704.5,649.5 Z"/></g>
<g><path style="opacity:1" fill="#f9f9f6" d="M 299.5,697.5 C 297.824,695.166 295.491,694.166 292.5,694.5C 290.824,692.166 288.491,691.166 285.5,691.5C 283.703,690.27 281.703,689.604 279.5,689.5C 279.389,688.883 279.056,688.383 278.5,688C 260.995,687.832 243.662,687.332 226.5,686.5C 226.833,686.5 227.167,686.5 227.5,686.5C 229.587,685.415 230.92,683.749 231.5,681.5C 239.512,670.5 248.178,660.166 257.5,650.5C 288.19,664.172 319.19,677.339 350.5,690C 372.832,698.345 390.332,712.512 403,732.5C 405.364,736.219 406.864,740.219 407.5,744.5C 371.443,728.801 335.443,713.134 299.5,697.5 Z"/></g>
<g><path style="opacity:1" fill="#828381" d="M 588.5,652.5 C 586.833,653.167 585.167,653.833 583.5,654.5C 584.591,651.808 586.257,651.142 588.5,652.5 Z"/></g>
<g><path style="opacity:1" fill="#f8f8f5" d="M 588.5,652.5 C 598.535,663.549 607.868,675.216 616.5,687.5C 599.51,688.333 582.51,688.833 565.5,689C 562.312,690.928 558.979,692.428 555.5,693.5C 553.973,693.427 552.973,694.094 552.5,695.5C 548.61,697.304 544.61,698.971 540.5,700.5C 538.447,700.402 536.78,701.069 535.5,702.5C 527.835,706.395 519.835,709.729 511.5,712.5C 509.62,712.229 508.287,712.896 507.5,714.5C 483.809,724.506 460.142,734.839 436.5,745.5C 436.167,745 435.833,744.5 435.5,744C 443.86,725.301 456.86,710.635 474.5,700C 500.627,687.352 527.294,676.186 554.5,666.5C 556.967,666.245 558.967,665.245 560.5,663.5C 564.381,661.531 568.381,659.864 572.5,658.5C 574.553,658.598 576.22,657.931 577.5,656.5C 579.142,654.919 581.142,654.253 583.5,654.5C 585.167,653.833 586.833,653.167 588.5,652.5 Z"/></g>
<g><path style="opacity:1" fill="#9fa09f" d="M 654.5,623.5 C 654.833,623.5 655.167,623.5 655.5,623.5C 655.5,645.167 655.5,666.833 655.5,688.5C 652.615,688.806 649.948,688.473 647.5,687.5C 649.833,687.5 652.167,687.5 654.5,687.5C 654.5,666.167 654.5,644.833 654.5,623.5 Z"/></g>
<g><path style="opacity:1" fill="#666766" d="M 577.5,656.5 C 576.22,657.931 574.553,658.598 572.5,658.5C 573.78,657.069 575.447,656.402 577.5,656.5 Z"/></g>
<g><path style="opacity:1" fill="#a0a19f" d="M 560.5,663.5 C 558.967,665.245 556.967,666.245 554.5,666.5C 556.033,664.755 558.033,663.755 560.5,663.5 Z"/></g>
<g><path style="opacity:1" fill="#737473" d="M 716.5,684.5 C 713.148,683.293 709.814,683.293 706.5,684.5C 706.611,683.883 706.944,683.383 707.5,683C 710.167,682.333 712.833,682.333 715.5,683C 716.056,683.383 716.389,683.883 716.5,684.5 Z"/></g>
<g><path style="opacity:1" fill="#0a0a0a" d="M 128.5,682.5 C 140.531,683.015 145.031,689.015 142,700.5C 134.464,708.736 127.464,708.402 121,699.5C 118.785,691.6 121.285,685.934 128.5,682.5 Z"/></g>
<g><path style="opacity:1" fill="#080808" d="M 716.5,684.5 C 722.148,687.427 723.981,692.094 722,698.5C 715.283,708.658 708.283,708.991 701,699.5C 700.333,696.167 700.333,692.833 701,689.5C 702.076,686.921 703.909,685.254 706.5,684.5C 709.814,683.293 713.148,683.293 716.5,684.5 Z"/></g>
<g><path style="opacity:1" fill="#a6a7a5" d="M 231.5,681.5 C 230.92,683.749 229.587,685.415 227.5,686.5C 228.08,684.251 229.413,682.585 231.5,681.5 Z"/></g>
<g><path style="opacity:1" fill="#c5c6c4" d="M 450.5,681.5 C 450.461,682.583 450.127,683.583 449.5,684.5C 449.957,685.298 450.624,685.631 451.5,685.5C 448.571,687.982 445.571,690.482 442.5,693C 441.833,693.667 441.167,693.667 440.5,693C 443.698,688.974 447.032,685.141 450.5,681.5 Z"/></g>
<g><path style="opacity:1" fill="#898b89" d="M 226.5,686.5 C 243.662,687.332 260.995,687.832 278.5,688C 279.056,688.383 279.389,688.883 279.5,689.5C 261.534,688.859 243.534,688.192 225.5,687.5C 225.624,686.893 225.957,686.56 226.5,686.5 Z"/></g>
<g><path style="opacity:1" fill="#a8aaa8" d="M 285.5,691.5 C 288.491,691.166 290.824,692.166 292.5,694.5C 289.843,694.065 287.509,693.065 285.5,691.5 Z"/></g>
<g><path style="opacity:1" fill="#a3a4a1" d="M 292.5,694.5 C 295.491,694.166 297.824,695.166 299.5,697.5C 296.843,697.065 294.509,696.065 292.5,694.5 Z"/></g>
<g><path style="opacity:1" fill="#686a68" d="M 555.5,693.5 C 555.027,694.906 554.027,695.573 552.5,695.5C 552.973,694.094 553.973,693.427 555.5,693.5 Z"/></g>
<g><path style="opacity:1" fill="#888988" d="M 540.5,700.5 C 539.22,701.931 537.553,702.598 535.5,702.5C 536.78,701.069 538.447,700.402 540.5,700.5 Z"/></g>
<g><path style="opacity:1" fill="#2f2f2e" d="M 189.5,712.5 C 213.67,711.171 238.003,711.171 262.5,712.5C 262.043,713.298 261.376,713.631 260.5,713.5C 237.006,712.502 213.339,712.169 189.5,712.5 Z"/></g>
<g><path style="opacity:1" fill="#2f2f2e" d="M 654.5,712.5 C 630.661,712.169 606.994,712.502 583.5,713.5C 582.624,713.631 581.957,713.298 581.5,712.5C 605.997,711.171 630.33,711.171 654.5,712.5 Z"/></g>
<g><path style="opacity:1" fill="#aaaba9" d="M 189.5,712.5 C 213.339,712.169 237.006,712.502 260.5,713.5C 260.158,714.338 259.492,714.672 258.5,714.5C 235.673,713.502 212.673,713.169 189.5,713.5C 189.5,717.833 189.5,722.167 189.5,726.5C 188.167,721.833 188.167,717.167 189.5,712.5 Z"/></g>
<g><path style="opacity:1" fill="#b8b9b7" d="M 654.5,712.5 C 654.5,712.833 654.5,713.167 654.5,713.5C 632.49,713.167 610.49,713.5 588.5,714.5C 589.524,715.852 590.524,717.185 591.5,718.5C 588.825,716.83 586.159,715.164 583.5,713.5C 606.994,712.502 630.661,712.169 654.5,712.5 Z"/></g>
<g><path style="opacity:1" fill="#fafaf7" d="M 258.5,714.5 C 249.027,720.972 241.693,729.305 236.5,739.5C 235.094,739.973 234.427,740.973 234.5,742.5C 232.273,748.515 230.273,754.515 228.5,760.5C 226.825,763.507 226.159,766.84 226.5,770.5C 214.167,770.5 201.833,770.5 189.5,770.5C 189.5,758.5 189.5,746.5 189.5,734.5C 194.833,734.5 200.167,734.5 205.5,734.5C 206.922,735.925 208.589,736.925 210.5,737.5C 211.449,738.152 212.615,738.486 214,738.5C 216.008,738.693 217.508,738.026 218.5,736.5C 223.708,727.42 221.041,722.92 210.5,723C 208.382,723.26 206.716,724.26 205.5,726C 200.177,726.499 194.844,726.666 189.5,726.5C 189.5,722.167 189.5,717.833 189.5,713.5C 212.673,713.169 235.673,713.502 258.5,714.5 Z"/></g>
<g><path style="opacity:1" fill="#898a88" d="M 511.5,712.5 C 510.486,713.674 509.153,714.34 507.5,714.5C 508.287,712.896 509.62,712.229 511.5,712.5 Z"/></g>
<g><path style="opacity:1" fill="#fafaf6" d="M 654.5,713.5 C 654.5,717.833 654.5,722.167 654.5,726.5C 649.156,726.666 643.823,726.499 638.5,726C 633.66,721.725 628.827,721.558 624,725.5C 621.494,730.639 622.661,734.806 627.5,738C 629.929,738.703 632.262,738.537 634.5,737.5C 636.196,737.315 637.529,736.481 638.5,735C 643.823,734.501 649.156,734.334 654.5,734.5C 654.5,746.5 654.5,758.5 654.5,770.5C 642.167,770.5 629.833,770.5 617.5,770.5C 615.197,749.894 606.53,732.56 591.5,718.5C 590.524,717.185 589.524,715.852 588.5,714.5C 610.49,713.5 632.49,713.167 654.5,713.5 Z"/></g>
<g><path style="opacity:1" fill="#a7a8a6" d="M 746.5,715.5 C 743.523,714.322 740.523,714.322 737.5,715.5C 738.492,713.974 739.992,713.307 742,713.5C 744.008,713.307 745.508,713.974 746.5,715.5 Z"/></g>
<g><path style="opacity:1" fill="#a8a9a7" d="M 98.5,714.5 C 101.293,713.254 103.96,713.587 106.5,715.5C 103.833,715.167 101.167,714.833 98.5,714.5 Z"/></g>
<g><path style="opacity:1" fill="#0a0a0a" d="M 746.5,715.5 C 752.077,719.015 753.91,724.015 752,730.5C 749.045,737.063 744.212,739.396 737.5,737.5C 737.027,736.094 736.027,735.427 734.5,735.5C 730.37,730.763 729.537,725.43 732,719.5C 733.432,717.561 735.265,716.228 737.5,715.5C 740.523,714.322 743.523,714.322 746.5,715.5 Z"/></g>
<g><path style="opacity:1" fill="#090909" d="M 98.5,714.5 C 101.167,714.833 103.833,715.167 106.5,715.5C 114.825,722.991 114.491,730.158 105.5,737C 96.2479,739.715 90.9146,736.382 89.5,727C 90.0359,720.977 93.0359,716.81 98.5,714.5 Z"/></g>
<g><path style="opacity:1" fill="#5e5f5e" d="M 301.5,726.5 C 294.996,727.043 288.663,728.376 282.5,730.5C 284.385,728.689 286.719,727.522 289.5,727C 293.628,725.607 297.628,725.44 301.5,726.5 Z"/></g>
<g><path style="opacity:1" fill="#9ba09f" d="M 301.5,726.5 C 329.16,737.425 356.493,749.259 383.5,762C 384.582,763.33 385.249,764.83 385.5,766.5C 385.511,768.017 386.177,769.184 387.5,770C 375.171,770.5 362.838,770.667 350.5,770.5C 350.672,769.508 350.338,768.842 349.5,768.5C 332.785,743.313 309.452,733.146 279.5,738C 270.858,741.507 263.858,747.173 258.5,755C 257.906,755.464 257.239,755.631 256.5,755.5C 261.893,743.774 270.56,735.441 282.5,730.5C 288.663,728.376 294.996,727.043 301.5,726.5 Z"/></g>
<g><path style="opacity:1" fill="#999b99" d="M 654.5,734.5 C 649.156,734.334 643.823,734.501 638.5,735C 637.529,736.481 636.196,737.315 634.5,737.5C 635.29,736.206 636.29,735.039 637.5,734C 643.349,733.182 649.015,733.348 654.5,734.5 Z"/></g>
<g><path style="opacity:1" fill="#8f9190" d="M 205.5,734.5 C 200.167,734.5 194.833,734.5 189.5,734.5C 189.5,746.5 189.5,758.5 189.5,770.5C 188.505,758.345 188.171,746.011 188.5,733.5C 194.358,733.178 200.025,733.511 205.5,734.5 Z"/></g>
<g><path style="opacity:1" fill="#fdfdfa" d="M 349.5,768.5 C 317.338,769.498 285.004,769.832 252.5,769.5C 252.5,768.833 252.5,768.167 252.5,767.5C 252.847,763.126 254.18,759.126 256.5,755.5C 257.239,755.631 257.906,755.464 258.5,755C 263.858,747.173 270.858,741.507 279.5,738C 309.452,733.146 332.785,743.313 349.5,768.5 Z"/></g>
<g><path style="opacity:1" fill="#fdfdf9" d="M 578.5,742.5 C 582.99,746.326 586.323,750.993 588.5,756.5C 589.488,760.485 590.488,764.485 591.5,768.5C 559.833,769.833 528.167,769.833 496.5,768.5C 500.89,761.272 506.556,755.105 513.5,750C 521.85,743.96 530.85,739.293 540.5,736C 554.046,733.679 566.713,735.845 578.5,742.5 Z"/></g>
<g><path style="opacity:1" fill="#767776" d="M 734.5,735.5 C 736.027,735.427 737.027,736.094 737.5,737.5C 735.973,737.573 734.973,736.906 734.5,735.5 Z"/></g>
<g><path style="opacity:1" fill="#929391" d="M 218.5,736.5 C 217.508,738.026 216.008,738.693 214,738.5C 212.615,738.486 211.449,738.152 210.5,737.5C 213.237,737.599 215.904,737.265 218.5,736.5 Z"/></g>
<g><path style="opacity:1" fill="#868786" d="M 236.5,739.5 C 236.573,741.027 235.906,742.027 234.5,742.5C 234.427,740.973 235.094,739.973 236.5,739.5 Z"/></g>
<g><path style="opacity:1" fill="#999e9e" d="M 578.5,742.5 C 566.713,735.845 554.046,733.679 540.5,736C 530.85,739.293 521.85,743.96 513.5,750C 506.556,755.105 500.89,761.272 496.5,768.5C 495.662,768.842 495.328,769.508 495.5,770.5C 482.323,770.829 469.323,770.495 456.5,769.5C 459.081,763.09 463.747,758.924 470.5,757C 495.03,746.966 519.364,736.632 543.5,726C 557.615,726.422 569.281,731.922 578.5,742.5 Z"/></g>
<g><path style="opacity:1" fill="#f4f4f1" d="M 419.5,746.5 C 426.249,746.744 431.416,749.744 435,755.5C 435.777,768.721 429.61,774.221 416.5,772C 407.521,764.412 407.187,756.412 415.5,748C 417.058,747.79 418.391,747.29 419.5,746.5 Z"/></g>
<g><path style="opacity:1" fill="#989998" d="M 588.5,756.5 C 591.048,759.996 592.381,763.996 592.5,768.5C 592.167,768.5 591.833,768.5 591.5,768.5C 590.488,764.485 589.488,760.485 588.5,756.5 Z"/></g>
<g><path style="opacity:1" fill="#828482" d="M 228.5,760.5 C 228.451,764.078 227.785,767.411 226.5,770.5C 226.159,766.84 226.825,763.507 228.5,760.5 Z"/></g>
<g><path style="opacity:1" fill="#dfe0de" d="M 496.5,768.5 C 528.167,769.833 559.833,769.833 591.5,768.5C 591.833,768.5 592.167,768.5 592.5,768.5C 592.5,769.167 592.5,769.833 592.5,770.5C 560.167,770.5 527.833,770.5 495.5,770.5C 495.328,769.508 495.662,768.842 496.5,768.5 Z"/></g>
<g><path style="opacity:1" fill="#616362" d="M 385.5,766.5 C 387.727,767.401 388.727,769.067 388.5,771.5C 342.833,771.5 297.167,771.5 251.5,771.5C 251.232,769.901 251.566,768.568 252.5,767.5C 252.5,768.167 252.5,768.833 252.5,769.5C 284.996,770.498 317.662,770.832 350.5,770.5C 362.838,770.667 375.171,770.5 387.5,770C 386.177,769.184 385.511,768.017 385.5,766.5 Z"/></g>
<g><path style="opacity:1" fill="#dcdddb" d="M 349.5,768.5 C 350.338,768.842 350.672,769.508 350.5,770.5C 317.662,770.832 284.996,770.498 252.5,769.5C 285.004,769.832 317.338,769.498 349.5,768.5 Z"/></g>
<g><path style="opacity:1" fill="#656765" d="M 456.5,769.5 C 469.323,770.495 482.323,770.829 495.5,770.5C 527.833,770.5 560.167,770.5 592.5,770.5C 546.998,771.831 501.332,771.831 455.5,770.5C 455.624,769.893 455.957,769.56 456.5,769.5 Z"/></g>
<g><path style="opacity:1" fill="#757675" d="M 654.5,734.5 C 655.495,746.655 655.829,758.989 655.5,771.5C 642.656,771.829 629.989,771.495 617.5,770.5C 629.833,770.5 642.167,770.5 654.5,770.5C 654.5,758.5 654.5,746.5 654.5,734.5 Z"/></g>
<g><path style="opacity:1" fill="#b2b4b3" d="M 779.5,774.5 C 789.44,773.274 793.94,777.607 793,787.5C 790.497,793.461 785.997,795.628 779.5,794C 774.38,790.997 772.546,786.497 774,780.5C 775.699,778.304 777.533,776.304 779.5,774.5 Z"/></g>
<g><path style="opacity:1" fill="#a8acab" d="M 56.5,774.5 C 66.4638,774.643 70.2971,779.643 68,789.5C 64.6501,794.083 60.1501,795.583 54.5,794C 47.4242,786.699 48.0909,780.199 56.5,774.5 Z"/></g>
<g><path style="opacity:1" fill="#c3c4c2" d="M 97.5,796.5 C 313.167,796.5 528.833,796.5 744.5,796.5C 690.335,797.333 636.002,797.833 581.5,798C 586.684,798.174 591.684,798.674 596.5,799.5C 478.833,799.5 361.167,799.5 243.5,799.5C 246.305,798.681 249.305,798.181 252.5,798C 200.665,797.833 148.998,797.333 97.5,796.5 Z"/></g>
</svg>
